STARTFONT 2.1
COMMENT
COMMENT Converted from OpenType font "Roboto-Regular.ttf" by "otf2bdf 3.0".
COMMENT
FONT -FreeType-Roboto-Medium-R-Normal--25-180-100-100-P-126-ISO10646-1
SIZE 18 100 100
FONTBOUNDINGBOX 47 33 -18 -7
STARTPROPERTIES 19
FOUNDRY "FreeType"
FAMILY_NAME "Roboto"
WEIGHT_NAME "Medium"
SLANT "R"
SETWIDTH_NAME "Normal"
ADD_STYLE_NAME ""
PIXEL_SIZE 25
POINT_SIZE 180
RESOLUTION_X 100
RESOLUTION_Y 100
SPACING "P"
AVERAGE_WIDTH 126
CHARSET_REGISTRY "ISO10646"
CHARSET_ENCODING "1"
FONT_ASCENT 23
FONT_DESCENT 6
COPYRIGHT "Copyright 2011 Google Inc. All Rights Reserved."
_OTF_FONTFILE "Roboto-Regular.ttf"
_OTF_PSNAME "Roboto-Regular"
ENDPROPERTIES
CHARS 896
STARTCHAR 0000
ENCODING 0
SWIDTH 0 0
DWIDTH 0 0
BBX 0 0 0 0
BITMAP
ENDCHAR
STARTCHAR 0002
ENCODING 2
SWIDTH 0 0
DWIDTH 0 0
BBX 0 0 0 0
BITMAP
ENDCHAR
STARTCHAR 000D
ENCODING 13
SWIDTH 240 0
DWIDTH 6 0
BBX 0 0 0 0
BITMAP
ENDCHAR
STARTCHAR 0020
ENCODING 32
SWIDTH 240 0
DWIDTH 6 0
BBX 0 0 0 0
BITMAP
ENDCHAR
STARTCHAR 0021
ENCODING 33
SWIDTH 240 0
DWIDTH 6 0
BBX 3 18 2 0
BITMAP
C0
C0
C0
C0
C0
C0
C0
C0
C0
C0
C0
C0
C0
00
00
80
E0
C0
ENDCHAR
STARTCHAR 0022
ENCODING 34
SWIDTH 320 0
DWIDTH 8 0
BBX 5 6 2 13
BITMAP
98
98
98
98
90
90
ENDCHAR
STARTCHAR 0023
ENCODING 35
SWIDTH 600 0
DWIDTH 15 0
BBX 14 18 1 0
BITMAP
0318
0210
0630
0630
0630
7FFC
7FFC
0C60
0C60
0C60
0C60
FFF8
FFF8
18C0
18C0
18C0
1080
3180
ENDCHAR
STARTCHAR 0024
ENCODING 36
SWIDTH 560 0
DWIDTH 14 0
BBX 12 23 1 -2
BITMAP
0600
0600
0600
0F80
3FC0
70E0
7060
6060
6070
7000
3800
1F00
07C0
01E0
0060
0070
E070
6070
70E0
3FE0
1F80
0600
0600
ENDCHAR
STARTCHAR 0025
ENCODING 37
SWIDTH 720 0
DWIDTH 18 0
BBX 16 18 1 0
BITMAP
3C00
7E00
C208
C318
C330
C220
7E60
3CC0
0080
0180
031E
023F
0663
0C61
0861
1863
0037
001E
ENDCHAR
STARTCHAR 0026
ENCODING 38
SWIDTH 640 0
DWIDTH 16 0
BBX 14 18 1 0
BITMAP
0F00
1FC0
38C0
30C0
30C0
30C0
3B80
1F00
1E00
3E00
7318
6398
E1D8
E0F8
E070
70F8
3FD8
1F9C
ENDCHAR
STARTCHAR 0027
ENCODING 39
SWIDTH 160 0
DWIDTH 4 0
BBX 2 6 1 13
BITMAP
C0
C0
C0
C0
C0
C0
ENDCHAR
STARTCHAR 0028
ENCODING 40
SWIDTH 360 0
DWIDTH 9 0
BBX 6 26 2 -6
BITMAP
04
0C
18
30
30
60
60
E0
C0
C0
C0
C0
C0
C0
C0
C0
C0
C0
E0
60
60
30
30
18
0C
04
ENDCHAR
STARTCHAR 0029
ENCODING 41
SWIDTH 360 0
DWIDTH 9 0
BBX 7 26 0 -6
BITMAP
40
E0
30
30
18
18
0C
0C
0C
0E
06
06
06
06
06
06
0E
0C
0C
0C
18
18
30
30
60
C0
ENDCHAR
STARTCHAR 002A
ENCODING 42
SWIDTH 440 0
DWIDTH 11 0
BBX 10 10 0 8
BITMAP
0C00
0400
0400
64C0
FFC0
0E00
1E00
1B00
3180
2100
ENDCHAR
STARTCHAR 002B
ENCODING 43
SWIDTH 560 0
DWIDTH 14 0
BBX 12 13 1 2
BITMAP
0600
0600
0600
0600
0600
FFF0
FFF0
0600
0600
0600
0600
0600
0600
ENDCHAR
STARTCHAR 002C
ENCODING 44
SWIDTH 200 0
DWIDTH 5 0
BBX 4 7 0 -4
BITMAP
30
30
30
70
60
60
C0
ENDCHAR
STARTCHAR 002D
ENCODING 45
SWIDTH 280 0
DWIDTH 7 0
BBX 6 2 0 6
BITMAP
FC
FC
ENDCHAR
STARTCHAR 002E
ENCODING 46
SWIDTH 280 0
DWIDTH 7 0
BBX 3 3 2 0
BITMAP
40
E0
C0
ENDCHAR
STARTCHAR 002F
ENCODING 47
SWIDTH 400 0
DWIDTH 10 0
BBX 10 20 0 -2
BITMAP
01C0
0180
0180
0300
0300
0300
0600
0600
0C00
0C00
0C00
1800
1800
1800
3000
3000
2000
6000
6000
C000
ENDCHAR
STARTCHAR 0030
ENCODING 48
SWIDTH 560 0
DWIDTH 14 0
BBX 12 18 1 0
BITMAP
1F80
3FC0
70E0
6060
6060
E060
E070
E070
E070
E070
E070
E070
6060
6060
6060
70E0
3FC0
1F80
ENDCHAR
STARTCHAR 0031
ENCODING 49
SWIDTH 560 0
DWIDTH 14 0
BBX 7 18 2 0
BITMAP
06
3E
FE
C6
06
06
06
06
06
06
06
06
06
06
06
06
06
06
ENDCHAR
STARTCHAR 0032
ENCODING 50
SWIDTH 560 0
DWIDTH 14 0
BBX 12 18 1 0
BITMAP
1F80
3FC0
70E0
E060
C060
0060
0060
00E0
00C0
0180
0300
0700
0E00
1C00
3800
7000
FFF0
FFF0
ENDCHAR
STARTCHAR 0033
ENCODING 51
SWIDTH 560 0
DWIDTH 14 0
BBX 11 18 1 0
BITMAP
1F00
3FC0
70E0
E060
E060
0060
00E0
01C0
0F80
0FC0
00E0
0060
0060
E060
E060
70E0
3FC0
1F80
ENDCHAR
STARTCHAR 0034
ENCODING 52
SWIDTH 560 0
DWIDTH 14 0
BBX 12 18 1 0
BITMAP
01C0
01C0
03C0
07C0
06C0
0CC0
1CC0
18C0
30C0
30C0
60C0
E0C0
FFF0
FFF0
00C0
00C0
00C0
00C0
ENDCHAR
STARTCHAR 0035
ENCODING 53
SWIDTH 560 0
DWIDTH 14 0
BBX 11 18 2 0
BITMAP
7FE0
7FE0
6000
6000
6000
6000
7F00
7F80
61C0
00E0
0060
0060
0060
C060
C0E0
61C0
7F80
1F00
ENDCHAR
STARTCHAR 0036
ENCODING 54
SWIDTH 560 0
DWIDTH 14 0
BBX 11 18 2 0
BITMAP
0700
1F00
3800
7000
6000
C000
DF00
FF80
E1C0
C0C0
C0E0
C060
C060
C0E0
E0C0
71C0
3F80
1F00
ENDCHAR
STARTCHAR 0037
ENCODING 55
SWIDTH 560 0
DWIDTH 14 0
BBX 12 18 1 0
BITMAP
FFF0
FFF0
0060
0060
00E0
00C0
01C0
0180
0180
0300
0300
0600
0600
0E00
0C00
1C00
1800
3800
ENDCHAR
STARTCHAR 0038
ENCODING 56
SWIDTH 560 0
DWIDTH 14 0
BBX 12 18 1 0
BITMAP
0F80
3FC0
70E0
6060
6060
6060
6060
30C0
1F80
3FC0
70E0
6060
E070
E070
6060
70E0
3FC0
1F80
ENDCHAR
STARTCHAR 0039
ENCODING 57
SWIDTH 560 0
DWIDTH 14 0
BBX 11 18 1 0
BITMAP
1F00
3F80
71C0
60E0
E060
C060
C060
E060
6060
70E0
3FE0
1E60
0060
00E0
00C0
0380
1F00
1C00
ENDCHAR
STARTCHAR 003A
ENCODING 58
SWIDTH 240 0
DWIDTH 6 0
BBX 2 13 2 0
BITMAP
C0
C0
40
00
00
00
00
00
00
00
40
C0
C0
ENDCHAR
STARTCHAR 003B
ENCODING 59
SWIDTH 200 0
DWIDTH 5 0
BBX 4 17 0 -4
BITMAP
30
70
30
00
00
00
00
00
00
00
30
30
30
30
60
60
C0
ENDCHAR
STARTCHAR 003C
ENCODING 60
SWIDTH 520 0
DWIDTH 13 0
BBX 10 11 1 2
BITMAP
0040
01C0
0FC0
3E00
F800
C000
F800
3E00
0FC0
01C0
0040
ENDCHAR
STARTCHAR 003D
ENCODING 61
SWIDTH 560 0
DWIDTH 14 0
BBX 10 7 2 5
BITMAP
FFC0
FFC0
0000
0000
0000
FFC0
FFC0
ENDCHAR
STARTCHAR 003E
ENCODING 62
SWIDTH 520 0
DWIDTH 13 0
BBX 10 11 2 2
BITMAP
8000
E000
F800
1F00
07C0
00C0
07C0
1F00
F800
E000
8000
ENDCHAR
STARTCHAR 003F
ENCODING 63
SWIDTH 480 0
DWIDTH 12 0
BBX 10 18 1 0
BITMAP
3E00
7F80
E180
C1C0
00C0
01C0
0180
0380
0700
0E00
0C00
1C00
1C00
0000
0000
0800
1C00
0C00
ENDCHAR
STARTCHAR 0040
ENCODING 64
SWIDTH 880 0
DWIDTH 22 0
BBX 20 22 1 -5
BITMAP
00FC00
07FF00
0E01C0
1800C0
300060
307820
60FE30
618430
618410
430C10
C30C10
C30C10
C30C30
C30C30
431C20
63FEE0
61E780
300000
380000
1C0000
0FFC00
01F800
ENDCHAR
STARTCHAR 0041
ENCODING 65
SWIDTH 640 0
DWIDTH 16 0
BBX 16 18 0 0
BITMAP
0180
01C0
03C0
03E0
0760
0660
0670
0C30
0C30
0C18
1818
1FFC
3FFC
300C
300E
7006
6006
E007
ENDCHAR
STARTCHAR 0042
ENCODING 66
SWIDTH 640 0
DWIDTH 16 0
BBX 12 18 2 0
BITMAP
FF80
FFC0
C0E0
C070
C070
C070
C060
C0E0
FFC0
FFC0
C060
C030
C030
C030
C070
C0F0
FFE0
FF80
ENDCHAR
STARTCHAR 0043
ENCODING 67
SWIDTH 640 0
DWIDTH 16 0
BBX 14 18 1 0
BITMAP
07C0
1FF0
3838
701C
701C
600C
6000
E000
E000
E000
E000
6000
600C
601C
701C
3838
1FF0
07C0
ENDCHAR
STARTCHAR 0044
ENCODING 68
SWIDTH 640 0
DWIDTH 16 0
BBX 13 18 2 0
BITMAP
FF00
FFC0
C0E0
C070
C030
C038
C038
C018
C018
C018
C018
C038
C038
C030
C070
C0E0
FFC0
FF00
ENDCHAR
STARTCHAR 0045
ENCODING 69
SWIDTH 560 0
DWIDTH 14 0
BBX 11 18 2 0
BITMAP
FFE0
FFE0
C000
C000
C000
C000
C000
C000
FFC0
FFC0
C000
C000
C000
C000
C000
C000
FFE0
FFE0
ENDCHAR
STARTCHAR 0046
ENCODING 70
SWIDTH 560 0
DWIDTH 14 0
BBX 11 18 2 0
BITMAP
FFE0
FFE0
C000
C000
C000
C000
C000
C000
FFC0
FFC0
C000
C000
C000
C000
C000
C000
C000
C000
ENDCHAR
STARTCHAR 0047
ENCODING 71
SWIDTH 680 0
DWIDTH 17 0
BBX 14 18 1 0
BITMAP
07E0
1FF0
3838
701C
700C
6000
6000
E000
E000
E0FC
60FC
600C
600C
700C
300C
3C1C
1FF8
07E0
ENDCHAR
STARTCHAR 0048
ENCODING 72
SWIDTH 720 0
DWIDTH 18 0
BBX 14 18 2 0
BITMAP
C01C
C01C
C01C
C01C
C01C
C01C
C01C
C01C
FFFC
FFFC
C01C
C01C
C01C
C01C
C01C
C01C
C01C
C01C
ENDCHAR
STARTCHAR 0049
ENCODING 73
SWIDTH 280 0
DWIDTH 7 0
BBX 3 18 2 0
BITMAP
E0
E0
E0
E0
E0
E0
E0
E0
E0
E0
E0
E0
E0
E0
E0
E0
E0
E0
ENDCHAR
STARTCHAR 004A
ENCODING 74
SWIDTH 560 0
DWIDTH 14 0
BBX 11 18 1 0
BITMAP
0060
0060
0060
0060
0060
0060
0060
0060
0060
0060
0060
0060
0060
C0E0
C0E0
E1C0
7F80
3F00
ENDCHAR
STARTCHAR 004B
ENCODING 75
SWIDTH 640 0
DWIDTH 16 0
BBX 14 18 2 0
BITMAP
C038
C070
C0E0
C1C0
C380
C700
C600
CE00
DE00
FE00
F700
E380
C1C0
C1C0
C0E0
C070
C038
C03C
ENDCHAR
STARTCHAR 004C
ENCODING 76
SWIDTH 520 0
DWIDTH 13 0
BBX 11 18 2 0
BITMAP
C000
C000
C000
C000
C000
C000
C000
C000
C000
C000
C000
C000
C000
C000
C000
C000
FFE0
FFE0
ENDCHAR
STARTCHAR 004D
ENCODING 77
SWIDTH 880 0
DWIDTH 22 0
BBX 18 18 2 0
BITMAP
E001C0
F003C0
F003C0
F007C0
D806C0
D806C0
DC0CC0
CC0DC0
CC1DC0
C619C0
C619C0
C731C0
C331C0
C371C0
C1E1C0
C1E1C0
C1C1C0
C0C1C0
ENDCHAR
STARTCHAR 004E
ENCODING 78
SWIDTH 720 0
DWIDTH 18 0
BBX 14 18 2 0
BITMAP
E01C
E01C
F01C
F81C
D81C
DC1C
CE1C
C61C
C71C
C39C
C19C
C1DC
C0DC
C0FC
C07C
C03C
C03C
C01C
ENDCHAR
STARTCHAR 004F
ENCODING 79
SWIDTH 680 0
DWIDTH 17 0
BBX 15 18 1 0
BITMAP
07C0
1FF0
3838
301C
700C
600C
600E
E00E
E00E
E00E
E00E
600E
600C
700C
301C
3838
1FF0
07C0
ENDCHAR
STARTCHAR 0050
ENCODING 80
SWIDTH 640 0
DWIDTH 16 0
BBX 13 18 2 0
BITMAP
FFC0
FFE0
C070
C038
C038
C038
C038
C038
C070
FFE0
FF80
C000
C000
C000
C000
C000
C000
C000
ENDCHAR
STARTCHAR 0051
ENCODING 81
SWIDTH 680 0
DWIDTH 17 0
BBX 15 21 1 -3
BITMAP
07C0
1FF0
3838
701C
600C
600C
E00C
E00E
E00E
E00E
E00E
E00E
600C
600C
701C
3838
1FF0
07F0
003C
001E
0008
ENDCHAR
STARTCHAR 0052
ENCODING 82
SWIDTH 600 0
DWIDTH 15 0
BBX 13 18 2 0
BITMAP
FF80
FFE0
C0E0
C070
C030
C030
C030
C070
C0E0
FFC0
FF80
C180
C1C0
C0E0
C060
C070
C030
C038
ENDCHAR
STARTCHAR 0053
ENCODING 83
SWIDTH 600 0
DWIDTH 15 0
BBX 13 18 1 0
BITMAP
0F80
3FE0
7070
6030
6038
6000
7000
3C00
1F80
07E0
00F0
0038
0038
C018
E038
7070
3FE0
0FC0
ENDCHAR
STARTCHAR 0054
ENCODING 84
SWIDTH 600 0
DWIDTH 15 0
BBX 13 18 1 0
BITMAP
FFF8
FFF8
0700
0700
0700
0700
0700
0700
0700
0700
0700
0700
0700
0700
0700
0700
0700
0700
ENDCHAR
STARTCHAR 0055
ENCODING 85
SWIDTH 640 0
DWIDTH 16 0
BBX 13 18 2 0
BITMAP
C038
C038
C038
C038
C038
C038
C038
C038
C038
C038
C038
C038
C038
C030
E030
7070
3FE0
1F80
ENDCHAR
STARTCHAR 0056
ENCODING 86
SWIDTH 640 0
DWIDTH 16 0
BBX 16 18 0 0
BITMAP
E007
6006
700E
300C
301C
381C
1818
1838
1C30
0C30
0C70
0660
0660
07E0
03C0
03C0
03C0
0180
ENDCHAR
STARTCHAR 0057
ENCODING 87
SWIDTH 880 0
DWIDTH 22 0
BBX 21 18 1 0
BITMAP
C06038
C07030
E07030
60F070
60F070
60D860
71D860
319860
318CE0
318CC0
330CC0
3B0CC0
1B07C0
1E0780
1E0780
1E0380
0E0380
0C0300
ENDCHAR
STARTCHAR 0058
ENCODING 88
SWIDTH 640 0
DWIDTH 16 0
BBX 14 18 1 0
BITMAP
E01C
7038
7030
3870
18E0
1CC0
0FC0
0780
0780
0780
0F80
0FC0
1CE0
18E0
3870
7030
6038
E01C
ENDCHAR
STARTCHAR 0059
ENCODING 89
SWIDTH 600 0
DWIDTH 15 0
BBX 15 18 0 0
BITMAP
E00E
701C
3018
3838
1830
1C70
0C60
0EE0
06C0
07C0
0380
0380
0380
0380
0380
0380
0380
0380
ENDCHAR
STARTCHAR 005A
ENCODING 90
SWIDTH 600 0
DWIDTH 15 0
BBX 13 18 1 0
BITMAP
FFF8
FFF8
0070
0060
00E0
01C0
0180
0380
0700
0600
0E00
1C00
1800
3800
7000
6000
FFF8
FFF8
ENDCHAR
STARTCHAR 005B
ENCODING 91
SWIDTH 280 0
DWIDTH 7 0
BBX 4 24 2 -4
BITMAP
F0
F0
C0
C0
C0
C0
C0
C0
C0
C0
C0
C0
C0
C0
C0
C0
C0
C0
C0
C0
C0
C0
F0
F0
ENDCHAR
STARTCHAR 005C
ENCODING 92
SWIDTH 400 0
DWIDTH 10 0
BBX 10 20 0 -2
BITMAP
E000
6000
7000
3000
3000
1800
1800
1800
0C00
0C00
0E00
0600
0600
0700
0300
0300
0180
0180
01C0
00C0
ENDCHAR
STARTCHAR 005D
ENCODING 93
SWIDTH 280 0
DWIDTH 7 0
BBX 5 24 0 -4
BITMAP
F8
F8
38
38
38
38
38
38
38
38
38
38
38
38
38
38
38
38
38
38
38
38
F8
F8
ENDCHAR
STARTCHAR 005E
ENCODING 94
SWIDTH 400 0
DWIDTH 10 0
BBX 9 9 1 9
BITMAP
1800
1C00
3C00
3C00
3600
6600
6300
C300
C380
ENDCHAR
STARTCHAR 005F
ENCODING 95
SWIDTH 440 0
DWIDTH 11 0
BBX 11 2 0 -2
BITMAP
FFE0
FFE0
ENDCHAR
STARTCHAR 0060
ENCODING 96
SWIDTH 320 0
DWIDTH 8 0
BBX 5 4 1 15
BITMAP
E0
60
30
38
ENDCHAR
STARTCHAR 0061
ENCODING 97
SWIDTH 560 0
DWIDTH 14 0
BBX 11 13 1 0
BITMAP
1F00
3FC0
60C0
60E0
0060
1FE0
7FE0
6060
E060
E0E0
61E0
7FE0
3E60
ENDCHAR
STARTCHAR 0062
ENCODING 98
SWIDTH 560 0
DWIDTH 14 0
BBX 11 19 2 0
BITMAP
C000
C000
C000
C000
C000
C000
DF00
FF80
E1C0
C0C0
C0E0
C060
C060
C0E0
C0E0
C0C0
E1C0
FF80
DF00
ENDCHAR
STARTCHAR 0063
ENCODING 99
SWIDTH 520 0
DWIDTH 13 0
BBX 11 13 1 0
BITMAP
1F00
3FC0
70E0
6060
E060
C000
C000
C000
E000
6060
70E0
3FC0
1F00
ENDCHAR
STARTCHAR 0064
ENCODING 100
SWIDTH 560 0
DWIDTH 14 0
BBX 11 19 1 0
BITMAP
0060
0060
0060
0060
0060
0060
1F60
3FE0
70E0
6060
E060
C060
C060
C060
E060
6060
70E0
3FE0
1F60
ENDCHAR
STARTCHAR 0065
ENCODING 101
SWIDTH 520 0
DWIDTH 13 0
BBX 11 13 1 0
BITMAP
0F00
3FC0
70E0
6060
E060
FFE0
FFE0
E000
E000
6000
7060
3FC0
0F80
ENDCHAR
STARTCHAR 0066
ENCODING 102
SWIDTH 360 0
DWIDTH 9 0
BBX 8 19 1 0
BITMAP
0F
1F
38
30
30
30
FE
FE
30
30
30
30
30
30
30
30
30
30
30
ENDCHAR
STARTCHAR 0067
ENCODING 103
SWIDTH 560 0
DWIDTH 14 0
BBX 11 18 1 -5
BITMAP
1F60
3FE0
70E0
6060
E060
E060
C060
C060
E060
6060
70E0
3FE0
1F60
0060
4060
60E0
3FC0
1F00
ENDCHAR
STARTCHAR 0068
ENCODING 104
SWIDTH 560 0
DWIDTH 14 0
BBX 10 19 2 0
BITMAP
C000
C000
C000
C000
C000
C000
CF00
FF80
E1C0
C0C0
C0C0
C0C0
C0C0
C0C0
C0C0
C0C0
C0C0
C0C0
C0C0
ENDCHAR
STARTCHAR 0069
ENCODING 105
SWIDTH 240 0
DWIDTH 6 0
BBX 2 18 2 0
BITMAP
80
C0
C0
00
00
C0
C0
C0
C0
C0
C0
C0
C0
C0
C0
C0
C0
C0
ENDCHAR
STARTCHAR 006A
ENCODING 106
SWIDTH 240 0
DWIDTH 6 0
BBX 5 23 -1 -5
BITMAP
10
18
18
00
00
18
18
18
18
18
18
18
18
18
18
18
18
18
18
18
38
F8
F0
ENDCHAR
STARTCHAR 006B
ENCODING 107
SWIDTH 520 0
DWIDTH 13 0
BBX 11 19 2 0
BITMAP
C000
C000
C000
C000
C000
C000
C1C0
C380
C700
CE00
DC00
F800
FC00
EC00
C600
C700
C380
C1C0
C0E0
ENDCHAR
STARTCHAR 006C
ENCODING 108
SWIDTH 240 0
DWIDTH 6 0
BBX 2 19 2 0
BITMAP
C0
C0
C0
C0
C0
C0
C0
C0
C0
C0
C0
C0
C0
C0
C0
C0
C0
C0
C0
ENDCHAR
STARTCHAR 006D
ENCODING 109
SWIDTH 880 0
DWIDTH 22 0
BBX 18 13 2 0
BITMAP
DF1F00
FFBF80
E1E1C0
C0C0C0
C0C0C0
C0C0C0
C0C0C0
C0C0C0
C0C0C0
C0C0C0
C0C0C0
C0C0C0
C0C0C0
ENDCHAR
STARTCHAR 006E
ENCODING 110
SWIDTH 560 0
DWIDTH 14 0
BBX 10 13 2 0
BITMAP
CF00
FF80
E1C0
C0C0
C0C0
C0C0
C0C0
C0C0
C0C0
C0C0
C0C0
C0C0
C0C0
ENDCHAR
STARTCHAR 006F
ENCODING 111
SWIDTH 560 0
DWIDTH 14 0
BBX 12 13 1 0
BITMAP
0F80
3FC0
70E0
6070
E030
C030
C030
C030
E030
6070
70E0
3FC0
0F80
ENDCHAR
STARTCHAR 0070
ENCODING 112
SWIDTH 560 0
DWIDTH 14 0
BBX 11 18 2 -5
BITMAP
DF00
FF80
E1C0
C0C0
C0E0
C060
C060
C060
C0E0
C0C0
E1C0
FF80
DF00
C000
C000
C000
C000
C000
ENDCHAR
STARTCHAR 0071
ENCODING 113
SWIDTH 560 0
DWIDTH 14 0
BBX 11 18 1 -5
BITMAP
1F60
3FE0
70E0
6060
E060
C060
C060
C060
E060
6060
70E0
3FE0
1F60
0060
0060
0060
0060
0060
ENDCHAR
STARTCHAR 0072
ENCODING 114
SWIDTH 320 0
DWIDTH 8 0
BBX 6 13 2 0
BITMAP
DC
FC
F0
C0
C0
C0
C0
C0
C0
C0
C0
C0
C0
ENDCHAR
STARTCHAR 0073
ENCODING 115
SWIDTH 520 0
DWIDTH 13 0
BBX 11 13 1 0
BITMAP
1F00
3F80
61C0
60C0
6020
7C00
1F80
03C0
00E0
E0E0
60C0
7FC0
1F00
ENDCHAR
STARTCHAR 0074
ENCODING 116
SWIDTH 320 0
DWIDTH 8 0
BBX 7 16 0 0
BITMAP
18
18
18
FE
FE
18
18
18
18
18
18
18
18
18
1E
0E
ENDCHAR
STARTCHAR 0075
ENCODING 117
SWIDTH 560 0
DWIDTH 14 0
BBX 10 13 2 0
BITMAP
C0C0
C0C0
C0C0
C0C0
C0C0
C0C0
C0C0
C0C0
C0C0
C0C0
E1C0
FFC0
3CC0
ENDCHAR
STARTCHAR 0076
ENCODING 118
SWIDTH 480 0
DWIDTH 12 0
BBX 12 13 0 0
BITMAP
E070
6060
7060
30C0
30C0
38C0
1980
1980
0D80
0F00
0F00
0600
0600
ENDCHAR
STARTCHAR 0077
ENCODING 119
SWIDTH 760 0
DWIDTH 19 0
BBX 17 13 1 0
BITMAP
C18180
C1C180
C1C300
63C300
636300
636300
766600
363600
363600
3C3400
1C1C00
1C1C00
181C00
ENDCHAR
STARTCHAR 0078
ENCODING 120
SWIDTH 480 0
DWIDTH 12 0
BBX 12 13 0 0
BITMAP
7070
30E0
38C0
1980
0F80
0F00
0600
0F00
0F80
1980
38C0
30E0
E070
ENDCHAR
STARTCHAR 0079
ENCODING 121
SWIDTH 480 0
DWIDTH 12 0
BBX 12 18 0 -5
BITMAP
E070
6060
70E0
30C0
30C0
39C0
1980
1980
1F80
0F00
0F00
0600
0600
0600
0C00
0C00
7800
7000
ENDCHAR
STARTCHAR 007A
ENCODING 122
SWIDTH 480 0
DWIDTH 12 0
BBX 11 13 1 0
BITMAP
FFC0
FFC0
01C0
0380
0700
0600
0C00
1C00
3800
7000
6000
FFE0
FFE0
ENDCHAR
STARTCHAR 007B
ENCODING 123
SWIDTH 320 0
DWIDTH 8 0
BBX 7 24 1 -4
BITMAP
06
0E
18
18
38
38
38
38
38
30
70
E0
E0
30
30
38
38
38
38
38
18
1C
0E
06
ENDCHAR
STARTCHAR 007C
ENCODING 124
SWIDTH 240 0
DWIDTH 6 0
BBX 2 21 2 -3
BITMAP
C0
C0
C0
C0
C0
C0
C0
C0
C0
C0
C0
C0
C0
C0
C0
C0
C0
C0
C0
C0
C0
ENDCHAR
STARTCHAR 007D
ENCODING 125
SWIDTH 320 0
DWIDTH 8 0
BBX 8 24 0 -4
BITMAP
40
F0
30
38
18
18
18
18
18
18
1C
0F
0F
1C
18
18
18
18
18
18
38
30
E0
40
ENDCHAR
STARTCHAR 007E
ENCODING 126
SWIDTH 680 0
DWIDTH 17 0
BBX 13 5 2 5
BITMAP
3C08
7E18
C718
C3F0
C0E0
ENDCHAR
STARTCHAR 00A0
ENCODING 160
SWIDTH 240 0
DWIDTH 6 0
BBX 0 0 0 0
BITMAP
ENDCHAR
STARTCHAR 00A1
ENCODING 161
SWIDTH 240 0
DWIDTH 6 0
BBX 2 17 2 -4
BITMAP
C0
C0
80
00
00
C0
C0
C0
C0
C0
C0
C0
C0
C0
C0
C0
C0
ENDCHAR
STARTCHAR 00A2
ENCODING 162
SWIDTH 560 0
DWIDTH 14 0
BBX 11 19 1 -3
BITMAP
0600
0600
0600
1F80
3FC0
70E0
6060
E060
E000
E000
E000
E000
6060
70E0
3FC0
1F80
0600
0600
0600
ENDCHAR
STARTCHAR 00A3
ENCODING 163
SWIDTH 600 0
DWIDTH 15 0
BBX 13 18 1 0
BITMAP
07C0
1FE0
1870
3830
3030
3000
3000
3000
FF00
FF00
3800
3800
3800
3800
3000
3000
FFF8
FFF8
ENDCHAR
STARTCHAR 00A4
ENCODING 164
SWIDTH 720 0
DWIDTH 18 0
BBX 16 15 1 0
BITMAP
67E6
FFFF
7C3E
381C
700E
6006
6006
6006
6006
6006
700E
381C
7C3E
EFF7
47E2
ENDCHAR
STARTCHAR 00A5
ENCODING 165
SWIDTH 520 0
DWIDTH 13 0
BBX 13 18 0 0
BITMAP
E038
7030
3070
3060
18C0
18C0
0D80
0D80
7FF0
7FF0
0700
0700
7FF0
7FF0
0700
0700
0700
0700
ENDCHAR
STARTCHAR 00A6
ENCODING 166
SWIDTH 240 0
DWIDTH 6 0
BBX 2 21 2 -3
BITMAP
C0
C0
C0
C0
C0
C0
C0
C0
C0
C0
00
00
C0
C0
C0
C0
C0
C0
C0
C0
C0
ENDCHAR
STARTCHAR 00A7
ENCODING 167
SWIDTH 600 0
DWIDTH 15 0
BBX 13 24 1 -6
BITMAP
0FC0
3FE0
7070
6030
6038
6000
7000
3E00
7FC0
63F0
E070
C038
E018
7018
3E38
1FF0
03E0
0070
0030
C030
E030
7070
3FE0
1F80
ENDCHAR
STARTCHAR 00A8
ENCODING 168
SWIDTH 400 0
DWIDTH 10 0
BBX 8 3 1 15
BITMAP
42
E7
E3
ENDCHAR
STARTCHAR 00A9
ENCODING 169
SWIDTH 800 0
DWIDTH 20 0
BBX 17 18 1 0
BITMAP
03F000
0FFC00
180E00
300300
63E100
47F180
C61880
CC1880
CC0080
CC0080
CC1880
C61880
47F180
63E100
300300
180E00
0F7C00
03F000
ENDCHAR
STARTCHAR 00AA
ENCODING 170
SWIDTH 440 0
DWIDTH 11 0
BBX 7 10 2 8
BITMAP
7C
FE
C6
06
7E
E6
C6
C6
FE
7E
ENDCHAR
STARTCHAR 00AB
ENCODING 171
SWIDTH 480 0
DWIDTH 12 0
BBX 10 10 1 2
BITMAP
1DC0
1980
3300
6600
6600
EE00
6600
3300
1980
1DC0
ENDCHAR
STARTCHAR 00AC
ENCODING 172
SWIDTH 560 0
DWIDTH 14 0
BBX 10 5 2 5
BITMAP
FFC0
FFC0
01C0
01C0
01C0
ENDCHAR
STARTCHAR 00AD
ENCODING 173
SWIDTH 280 0
DWIDTH 7 0
BBX 6 2 0 6
BITMAP
FC
FC
ENDCHAR
STARTCHAR 00AE
ENCODING 174
SWIDTH 800 0
DWIDTH 20 0
BBX 17 18 1 0
BITMAP
03F000
0FFC00
180E00
300300
67E100
47F180
C61080
C61880
C63080
C7E080
C7F080
C61080
461180
661900
300300
180E00
0F7C00
03F000
ENDCHAR
STARTCHAR 00AF
ENCODING 175
SWIDTH 440 0
DWIDTH 11 0
BBX 8 2 2 16
BITMAP
FF
FF
ENDCHAR
STARTCHAR 00B0
ENCODING 176
SWIDTH 360 0
DWIDTH 9 0
BBX 6 7 2 11
BITMAP
70
F8
8C
8C
CC
F8
20
ENDCHAR
STARTCHAR 00B1
ENCODING 177
SWIDTH 520 0
DWIDTH 13 0
BBX 11 15 1 0
BITMAP
0600
0600
0600
0600
0600
FFE0
FFE0
0600
0600
0600
0600
0600
0000
7FE0
7FE0
ENDCHAR
STARTCHAR 00B2
ENCODING 178
SWIDTH 360 0
DWIDTH 9 0
BBX 7 10 1 8
BITMAP
7C
FE
C6
06
0E
1C
38
70
FE
FE
ENDCHAR
STARTCHAR 00B3
ENCODING 179
SWIDTH 360 0
DWIDTH 9 0
BBX 7 10 1 8
BITMAP
7C
FE
C6
06
3C
0E
06
C6
FE
7C
ENDCHAR
STARTCHAR 00B4
ENCODING 180
SWIDTH 320 0
DWIDTH 8 0
BBX 6 4 1 15
BITMAP
1C
30
70
E0
ENDCHAR
STARTCHAR 00B5
ENCODING 181
SWIDTH 560 0
DWIDTH 14 0
BBX 10 18 2 -5
BITMAP
C0C0
C0C0
C0C0
C0C0
C0C0
C0C0
C0C0
C0C0
C0C0
C0C0
E1C0
FFC0
DEC0
C000
C000
C000
C000
C000
ENDCHAR
STARTCHAR 00B6
ENCODING 182
SWIDTH 480 0
DWIDTH 12 0
BBX 9 18 1 0
BITMAP
1F80
3F80
7F80
FF80
FF80
FF80
FF80
FF80
FF80
7F80
3F80
0780
0180
0180
0180
0180
0180
0180
ENDCHAR
STARTCHAR 00B7
ENCODING 183
SWIDTH 280 0
DWIDTH 7 0
BBX 3 3 2 7
BITMAP
C0
E0
40
ENDCHAR
STARTCHAR 00B8
ENCODING 184
SWIDTH 240 0
DWIDTH 6 0
BBX 4 5 1 -5
BITMAP
40
F0
30
70
E0
ENDCHAR
STARTCHAR 00B9
ENCODING 185
SWIDTH 360 0
DWIDTH 9 0
BBX 5 10 1 8
BITMAP
18
F8
98
18
18
18
18
18
18
18
ENDCHAR
STARTCHAR 00BA
ENCODING 186
SWIDTH 440 0
DWIDTH 11 0
BBX 9 10 1 8
BITMAP
1E00
7F00
6300
6180
C180
C180
6180
6300
7F00
1E00
ENDCHAR
STARTCHAR 00BB
ENCODING 187
SWIDTH 480 0
DWIDTH 12 0
BBX 10 10 1 2
BITMAP
C600
6600
3300
3980
19C0
1DC0
3980
3300
6600
C600
ENDCHAR
STARTCHAR 00BC
ENCODING 188
SWIDTH 720 0
DWIDTH 18 0
BBX 16 18 1 0
BITMAP
3800
F800
9808
1818
1830
1820
1860
18C0
18C6
198E
011E
0316
0636
0666
0C7F
087F
1806
0006
ENDCHAR
STARTCHAR 00BD
ENCODING 189
SWIDTH 760 0
DWIDTH 19 0
BBX 17 18 1 0
BITMAP
380000
F80000
981000
183800
183000
186000
184000
18C000
199E00
193F00
033180
060180
060300
0C0600
080C00
181800
103F80
003F80
ENDCHAR
STARTCHAR 00BE
ENCODING 190
SWIDTH 760 0
DWIDTH 19 0
BBX 18 18 1 0
BITMAP
3C0000
7E0000
C30400
060E00
1C0C00
0E1800
031000
C33000
7E6300
3C6700
00CF00
008F00
019B00
033300
033FC0
063FC0
040300
000300
ENDCHAR
STARTCHAR 00BF
ENCODING 191
SWIDTH 480 0
DWIDTH 12 0
BBX 10 18 1 -5
BITMAP
0C00
0C00
0800
0000
0000
0C00
0C00
1C00
3800
7000
6000
E000
C000
C000
C1C0
E180
7F80
3E00
ENDCHAR
STARTCHAR 00C0
ENCODING 192
SWIDTH 640 0
DWIDTH 16 0
BBX 16 23 0 0
BITMAP
0E00
0300
0380
01C0
0000
0180
01C0
03C0
03E0
0760
0660
0670
0C30
0C30
0C18
1818
1FFC
3FFC
300C
300E
7006
6006
E007
ENDCHAR
STARTCHAR 00C1
ENCODING 193
SWIDTH 640 0
DWIDTH 16 0
BBX 16 23 0 0
BITMAP
0070
00E0
00C0
0180
0000
0180
01C0
03C0
03E0
0760
0660
0670
0C30
0C30
0C18
1818
1FFC
3FFC
300C
300E
7006
6006
E007
ENDCHAR
STARTCHAR 00C2
ENCODING 194
SWIDTH 640 0
DWIDTH 16 0
BBX 16 22 0 0
BITMAP
01C0
03E0
0630
0000
0180
01C0
03C0
03E0
0760
0660
0670
0C30
0C30
0C18
1818
1FFC
3FFC
300C
300E
7006
6006
E007
ENDCHAR
STARTCHAR 00C3
ENCODING 195
SWIDTH 640 0
DWIDTH 16 0
BBX 16 23 0 0
BITMAP
0718
0FF0
0CE0
0000
0000
0180
01C0
03C0
03E0
0760
0660
0670
0C30
0C30
0C18
1818
1FFC
3FFC
300C
300E
7006
6006
E007
ENDCHAR
STARTCHAR 00C4
ENCODING 196
SWIDTH 640 0
DWIDTH 16 0
BBX 16 23 0 0
BITMAP
0420
0E30
0630
0000
0000
0180
01C0
03C0
03E0
0760
0660
0670
0C30
0C30
0C18
1818
1FFC
3FFC
300C
300E
7006
6006
E007
ENDCHAR
STARTCHAR 00C5
ENCODING 197
SWIDTH 640 0
DWIDTH 16 0
BBX 16 24 0 0
BITMAP
01C0
0260
0220
0260
01C0
0000
0180
01C0
03C0
03E0
0760
0660
0670
0C30
0C30
0C18
1818
1FFC
3FFC
300C
300E
7006
6006
E007
ENDCHAR
STARTCHAR 00C6
ENCODING 198
SWIDTH 920 0
DWIDTH 23 0
BBX 23 18 0 0
BITMAP
003FFC
003FFC
006C00
00EC00
00CC00
01CC00
018C00
030C00
070FF8
060FF8
0E0C00
0FFC00
1FFC00
380C00
300C00
700C00
600FFE
E00FFE
ENDCHAR
STARTCHAR 00C7
ENCODING 199
SWIDTH 640 0
DWIDTH 16 0
BBX 14 23 1 -5
BITMAP
07C0
1FF0
3838
701C
701C
600C
6000
E000
E000
E000
E000
6000
600C
601C
701C
3838
1FF0
07C0
0300
03C0
00C0
01C0
0380
ENDCHAR
STARTCHAR 00C8
ENCODING 200
SWIDTH 560 0
DWIDTH 14 0
BBX 11 23 2 0
BITMAP
3800
1C00
0C00
0600
0000
FFE0
FFE0
C000
C000
C000
C000
C000
C000
FFC0
FFC0
C000
C000
C000
C000
C000
C000
FFE0
FFE0
ENDCHAR
STARTCHAR 00C9
ENCODING 201
SWIDTH 560 0
DWIDTH 14 0
BBX 11 23 2 0
BITMAP
0380
0300
0600
0E00
0000
FFE0
FFE0
C000
C000
C000
C000
C000
C000
FFC0
FFC0
C000
C000
C000
C000
C000
C000
FFE0
FFE0
ENDCHAR
STARTCHAR 00CA
ENCODING 202
SWIDTH 560 0
DWIDTH 14 0
BBX 11 22 2 0
BITMAP
0E00
1B00
3180
0000
FFE0
FFE0
C000
C000
C000
C000
C000
C000
FFC0
FFC0
C000
C000
C000
C000
C000
C000
FFE0
FFE0
ENDCHAR
STARTCHAR 00CB
ENCODING 203
SWIDTH 560 0
DWIDTH 14 0
BBX 11 23 2 0
BITMAP
3100
31C0
3180
0000
0000
FFE0
FFE0
C000
C000
C000
C000
C000
C000
FFC0
FFC0
C000
C000
C000
C000
C000
C000
FFE0
FFE0
ENDCHAR
STARTCHAR 00CC
ENCODING 204
SWIDTH 280 0
DWIDTH 7 0
BBX 5 23 0 0
BITMAP
E0
60
30
38
00
38
38
38
38
38
38
38
38
38
38
38
38
38
38
38
38
38
38
ENDCHAR
STARTCHAR 00CD
ENCODING 205
SWIDTH 280 0
DWIDTH 7 0
BBX 5 23 2 0
BITMAP
38
70
60
C0
00
E0
E0
E0
E0
E0
E0
E0
E0
E0
E0
E0
E0
E0
E0
E0
E0
E0
E0
ENDCHAR
STARTCHAR 00CE
ENCODING 206
SWIDTH 280 0
DWIDTH 7 0
BBX 7 22 0 0
BITMAP
38
6C
C6
00
38
38
38
38
38
38
38
38
38
38
38
38
38
38
38
38
38
38
ENDCHAR
STARTCHAR 00CF
ENCODING 207
SWIDTH 280 0
DWIDTH 7 0
BBX 8 23 -1 0
BITMAP
43
E3
63
00
00
1C
1C
1C
1C
1C
1C
1C
1C
1C
1C
1C
1C
1C
1C
1C
1C
1C
1C
ENDCHAR
STARTCHAR 00D0
ENCODING 208
SWIDTH 680 0
DWIDTH 17 0
BBX 15 18 0 0
BITMAP
3FC0
3FF0
3838
381C
380E
3806
3806
3806
FF06
FF06
3806
3806
380E
380E
381C
3838
3FF0
3FC0
ENDCHAR
STARTCHAR 00D1
ENCODING 209
SWIDTH 720 0
DWIDTH 18 0
BBX 14 23 2 0
BITMAP
0C20
1FE0
11C0
0000
0000
E01C
E01C
F01C
F81C
D81C
DC1C
CE1C
C61C
C71C
C39C
C19C
C1DC
C0DC
C0FC
C07C
C03C
C03C
C01C
ENDCHAR
STARTCHAR 00D2
ENCODING 210
SWIDTH 680 0
DWIDTH 17 0
BBX 15 23 1 0
BITMAP
0E00
0700
0300
0180
0000
07C0
1FF0
3838
301C
700C
600C
600E
E00E
E00E
E00E
E00E
600E
600C
700C
301C
3838
1FF0
07C0
ENDCHAR
STARTCHAR 00D3
ENCODING 211
SWIDTH 680 0
DWIDTH 17 0
BBX 15 23 1 0
BITMAP
00E0
00C0
0180
0380
0000
07C0
1FF0
3838
301C
700C
600C
600E
E00E
E00E
E00E
E00E
600E
600C
700C
301C
3838
1FF0
07C0
ENDCHAR
STARTCHAR 00D4
ENCODING 212
SWIDTH 680 0
DWIDTH 17 0
BBX 15 22 1 0
BITMAP
0380
06C0
0C60
0000
07C0
1FF0
3838
301C
700C
600C
600E
E00E
E00E
E00E
E00E
600E
600C
700C
301C
3838
1FF0
07C0
ENDCHAR
STARTCHAR 00D5
ENCODING 213
SWIDTH 680 0
DWIDTH 17 0
BBX 15 23 1 0
BITMAP
0630
0FF0
18E0
0000
0000
07C0
1FF0
3838
301C
700C
600C
600E
E00E
E00E
E00E
E00E
600E
600C
700C
301C
3838
1FF0
07C0
ENDCHAR
STARTCHAR 00D6
ENCODING 214
SWIDTH 680 0
DWIDTH 17 0
BBX 15 23 1 0
BITMAP
0840
0C70
0C60
0000
0000
07C0
1FF0
3838
301C
700C
600C
600E
E00E
E00E
E00E
E00E
600E
600C
700C
301C
3838
1FF0
07C0
ENDCHAR
STARTCHAR 00D7
ENCODING 215
SWIDTH 520 0
DWIDTH 13 0
BBX 11 11 1 3
BITMAP
4040
E0E0
71C0
3B80
1F00
0E00
1F00
3B80
71C0
E0E0
4040
ENDCHAR
STARTCHAR 00D8
ENCODING 216
SWIDTH 680 0
DWIDTH 17 0
BBX 15 19 1 -1
BITMAP
07C6
1FFC
3838
301C
703C
606C
606E
E0CE
E08E
E18E
E30E
620E
660C
7C0C
3C1C
3838
3FF0
37C0
6000
ENDCHAR
STARTCHAR 00D9
ENCODING 217
SWIDTH 640 0
DWIDTH 16 0
BBX 13 23 2 0
BITMAP
3800
0C00
0E00
0600
0000
C038
C038
C038
C038
C038
C038
C038
C038
C038
C038
C038
C038
C038
C030
E030
7070
3FE0
1F80
ENDCHAR
STARTCHAR 00DA
ENCODING 218
SWIDTH 640 0
DWIDTH 16 0
BBX 13 23 2 0
BITMAP
01C0
0380
0300
0600
0000
C038
C038
C038
C038
C038
C038
C038
C038
C038
C038
C038
C038
C038
C030
E030
7070
3FE0
1F80
ENDCHAR
STARTCHAR 00DB
ENCODING 219
SWIDTH 640 0
DWIDTH 16 0
BBX 13 22 2 0
BITMAP
0600
0F80
39C0
0000
C038
C038
C038
C038
C038
C038
C038
C038
C038
C038
C038
C038
C038
C030
E030
7070
3FE0
1F80
ENDCHAR
STARTCHAR 00DC
ENCODING 220
SWIDTH 640 0
DWIDTH 16 0
BBX 13 23 2 0
BITMAP
1080
39C0
38C0
0000
0000
C038
C038
C038
C038
C038
C038
C038
C038
C038
C038
C038
C038
C038
C030
E030
7070
3FE0
1F80
ENDCHAR
STARTCHAR 00DD
ENCODING 221
SWIDTH 600 0
DWIDTH 15 0
BBX 15 23 0 0
BITMAP
00E0
00C0
0180
0380
0000
E00E
701C
3018
3838
1830
1C70
0C60
0EE0
06C0
07C0
0380
0380
0380
0380
0380
0380
0380
0380
ENDCHAR
STARTCHAR 00DE
ENCODING 222
SWIDTH 600 0
DWIDTH 15 0
BBX 12 18 2 0
BITMAP
C000
C000
C000
C000
FF80
FFC0
C0E0
C060
C070
C070
C060
C0E0
FFC0
FF00
C000
C000
C000
C000
ENDCHAR
STARTCHAR 00DF
ENCODING 223
SWIDTH 600 0
DWIDTH 15 0
BBX 12 19 2 0
BITMAP
3E00
7F00
E380
C180
C180
C180
C300
C300
C700
C700
C300
C3C0
C0E0
C060
C070
C070
D070
CFE0
DFC0
ENDCHAR
STARTCHAR 00E0
ENCODING 224
SWIDTH 560 0
DWIDTH 14 0
BBX 11 19 1 0
BITMAP
3800
1C00
0E00
0600
0000
0000
1F00
3FC0
60C0
60E0
0060
1FE0
7FE0
6060
E060
E0E0
61E0
7FE0
3E60
ENDCHAR
STARTCHAR 00E1
ENCODING 225
SWIDTH 560 0
DWIDTH 14 0
BBX 11 19 1 0
BITMAP
01C0
0380
0300
0600
0000
0000
1F00
3FC0
60C0
60E0
0060
1FE0
7FE0
6060
E060
E0E0
61E0
7FE0
3E60
ENDCHAR
STARTCHAR 00E2
ENCODING 226
SWIDTH 560 0
DWIDTH 14 0
BBX 11 18 1 0
BITMAP
0600
0F80
39C0
0000
0000
1F00
3FC0
60C0
60E0
0060
1FE0
7FE0
6060
E060
E0E0
61E0
7FE0
3E60
ENDCHAR
STARTCHAR 00E3
ENCODING 227
SWIDTH 560 0
DWIDTH 14 0
BBX 11 18 1 0
BITMAP
1840
3FC0
2380
0000
0000
1F00
3FC0
60C0
60E0
0060
1FE0
7FE0
6060
E060
E0E0
61E0
7FE0
3E60
ENDCHAR
STARTCHAR 00E4
ENCODING 228
SWIDTH 560 0
DWIDTH 14 0
BBX 11 18 1 0
BITMAP
1080
39C0
38C0
0000
0000
1F00
3FC0
60C0
60E0
0060
1FE0
7FE0
6060
E060
E0E0
61E0
7FE0
3E60
ENDCHAR
STARTCHAR 00E5
ENCODING 229
SWIDTH 560 0
DWIDTH 14 0
BBX 11 20 1 0
BITMAP
0700
0900
1980
0980
0F00
0000
0000
1F00
3FC0
60C0
60E0
0060
1FE0
7FE0
6060
E060
E0E0
61E0
7FE0
3E60
ENDCHAR
STARTCHAR 00E6
ENCODING 230
SWIDTH 840 0
DWIDTH 21 0
BBX 19 13 1 0
BITMAP
1F0F00
7FBFC0
E1F0E0
E0E060
00E060
3FFFE0
7FFFE0
E0C000
C0E000
C0E000
E1F060
7FBFE0
3E0F80
ENDCHAR
STARTCHAR 00E7
ENCODING 231
SWIDTH 520 0
DWIDTH 13 0
BBX 11 18 1 -5
BITMAP
1F00
3FC0
70E0
6060
E060
C000
C000
C000
E000
6060
70E0
3FC0
1F00
0400
0F00
0300
0700
0E00
ENDCHAR
STARTCHAR 00E8
ENCODING 232
SWIDTH 520 0
DWIDTH 13 0
BBX 11 19 1 0
BITMAP
3800
1C00
0E00
0600
0000
0000
0F00
3FC0
70E0
6060
E060
FFE0
FFE0
E000
E000
6000
7060
3FC0
0F80
ENDCHAR
STARTCHAR 00E9
ENCODING 233
SWIDTH 520 0
DWIDTH 13 0
BBX 11 19 1 0
BITMAP
01C0
0380
0700
0600
0000
0000
0F00
3FC0
70E0
6060
E060
FFE0
FFE0
E000
E000
6000
7060
3FC0
0F80
ENDCHAR
STARTCHAR 00EA
ENCODING 234
SWIDTH 520 0
DWIDTH 13 0
BBX 11 18 1 0
BITMAP
0600
1F00
39C0
0000
0000
0F00
3FC0
70E0
6060
E060
FFE0
FFE0
E000
E000
6000
7060
3FC0
0F80
ENDCHAR
STARTCHAR 00EB
ENCODING 235
SWIDTH 520 0
DWIDTH 13 0
BBX 11 18 1 0
BITMAP
1080
39C0
31C0
0000
0000
0F00
3FC0
70E0
6060
E060
FFE0
FFE0
E000
E000
6000
7060
3FC0
0F80
ENDCHAR
STARTCHAR 00EC
ENCODING 236
SWIDTH 240 0
DWIDTH 6 0
BBX 5 19 -1 0
BITMAP
E0
70
38
18
00
00
18
18
18
18
18
18
18
18
18
18
18
18
18
ENDCHAR
STARTCHAR 00ED
ENCODING 237
SWIDTH 240 0
DWIDTH 6 0
BBX 5 19 2 0
BITMAP
38
70
E0
C0
00
00
C0
C0
C0
C0
C0
C0
C0
C0
C0
C0
C0
C0
C0
ENDCHAR
STARTCHAR 00EE
ENCODING 238
SWIDTH 240 0
DWIDTH 6 0
BBX 8 18 -1 0
BITMAP
18
3E
E7
00
00
18
18
18
18
18
18
18
18
18
18
18
18
18
ENDCHAR
STARTCHAR 00EF
ENCODING 239
SWIDTH 240 0
DWIDTH 6 0
BBX 8 18 -1 0
BITMAP
42
E7
E3
00
00
18
18
18
18
18
18
18
18
18
18
18
18
18
ENDCHAR
STARTCHAR 00F0
ENCODING 240
SWIDTH 600 0
DWIDTH 15 0
BBX 11 19 2 0
BITMAP
3000
7CC0
1F80
0700
0F80
19C0
00C0
1EC0
7FE0
E0E0
C060
C060
C060
C060
C0E0
C0C0
E1C0
7F80
1F00
ENDCHAR
STARTCHAR 00F1
ENCODING 241
SWIDTH 560 0
DWIDTH 14 0
BBX 10 18 2 0
BITMAP
3080
7F80
4700
0000
0000
CF00
FF80
E1C0
C0C0
C0C0
C0C0
C0C0
C0C0
C0C0
C0C0
C0C0
C0C0
C0C0
ENDCHAR
STARTCHAR 00F2
ENCODING 242
SWIDTH 560 0
DWIDTH 14 0
BBX 12 19 1 0
BITMAP
3800
1C00
0E00
0600
0000
0000
0F80
3FC0
70E0
6070
E030
C030
C030
C030
E030
6070
70E0
3FC0
0F80
ENDCHAR
STARTCHAR 00F3
ENCODING 243
SWIDTH 560 0
DWIDTH 14 0
BBX 12 19 1 0
BITMAP
01C0
0380
0700
0600
0000
0000
0F80
3FC0
70E0
6070
E030
C030
C030
C030
E030
6070
70E0
3FC0
0F80
ENDCHAR
STARTCHAR 00F4
ENCODING 244
SWIDTH 560 0
DWIDTH 14 0
BBX 12 18 1 0
BITMAP
0600
1F80
39C0
0000
0000
0F80
3FC0
70E0
6070
E030
C030
C030
C030
E030
6070
70E0
3FC0
0F80
ENDCHAR
STARTCHAR 00F5
ENCODING 245
SWIDTH 560 0
DWIDTH 14 0
BBX 12 18 1 0
BITMAP
1840
3FC0
2380
0000
0000
0F80
3FC0
70E0
6070
E030
C030
C030
C030
E030
6070
70E0
3FC0
0F80
ENDCHAR
STARTCHAR 00F6
ENCODING 246
SWIDTH 560 0
DWIDTH 14 0
BBX 12 18 1 0
BITMAP
1080
39C0
38C0
0000
0000
0F80
3FC0
70E0
6070
E030
C030
C030
C030
E030
6070
70E0
3FC0
0F80
ENDCHAR
STARTCHAR 00F7
ENCODING 247
SWIDTH 560 0
DWIDTH 14 0
BBX 12 12 1 3
BITMAP
0600
0600
0400
0000
0000
FFF0
FFF0
0000
0000
0000
0600
0600
ENDCHAR
STARTCHAR 00F8
ENCODING 248
SWIDTH 560 0
DWIDTH 14 0
BBX 12 15 1 -1
BITMAP
0060
0FC0
3FC0
70E0
61F0
E130
C330
C630
C430
EC30
6870
78E0
3FC0
3F80
6000
ENDCHAR
STARTCHAR 00F9
ENCODING 249
SWIDTH 560 0
DWIDTH 14 0
BBX 10 19 2 0
BITMAP
7000
3800
1C00
0C00
0000
0000
C0C0
C0C0
C0C0
C0C0
C0C0
C0C0
C0C0
C0C0
C0C0
C0C0
E1C0
FFC0
3CC0
ENDCHAR
STARTCHAR 00FA
ENCODING 250
SWIDTH 560 0
DWIDTH 14 0
BBX 10 19 2 0
BITMAP
0380
0700
0E00
0C00
0000
0000
C0C0
C0C0
C0C0
C0C0
C0C0
C0C0
C0C0
C0C0
C0C0
C0C0
E1C0
FFC0
3CC0
ENDCHAR
STARTCHAR 00FB
ENCODING 251
SWIDTH 560 0
DWIDTH 14 0
BBX 10 18 2 0
BITMAP
0C00
3F00
7380
0000
0000
C0C0
C0C0
C0C0
C0C0
C0C0
C0C0
C0C0
C0C0
C0C0
C0C0
E1C0
FFC0
3CC0
ENDCHAR
STARTCHAR 00FC
ENCODING 252
SWIDTH 560 0
DWIDTH 14 0
BBX 10 18 2 0
BITMAP
2100
7380
6380
0000
0000
C0C0
C0C0
C0C0
C0C0
C0C0
C0C0
C0C0
C0C0
C0C0
C0C0
E1C0
FFC0
3CC0
ENDCHAR
STARTCHAR 00FD
ENCODING 253
SWIDTH 480 0
DWIDTH 12 0
BBX 12 24 0 -5
BITMAP
01C0
0380
0300
0600
0000
0000
E070
6060
70E0
30C0
30C0
39C0
1980
1980
1F80
0F00
0F00
0600
0600
0600
0C00
0C00
7800
7000
ENDCHAR
STARTCHAR 00FE
ENCODING 254
SWIDTH 560 0
DWIDTH 14 0
BBX 11 24 2 -5
BITMAP
C000
C000
C000
C000
C000
C000
DF00
FF80
E1C0
C0E0
C0E0
C060
C060
C060
C0E0
C0E0
E1C0
FF80
DF00
C000
C000
C000
C000
C000
ENDCHAR
STARTCHAR 00FF
ENCODING 255
SWIDTH 480 0
DWIDTH 12 0
BBX 12 23 0 -5
BITMAP
1080
38C0
18C0
0000
0000
E070
6060
70E0
30C0
30C0
39C0
1980
1980
1F80
0F00
0F00
0600
0600
0600
0C00
0C00
7800
7000
ENDCHAR
STARTCHAR 0100
ENCODING 256
SWIDTH 640 0
DWIDTH 16 0
BBX 16 22 0 0
BITMAP
0FF0
0FF0
0000
0000
0180
01C0
03C0
03E0
0760
0660
0670
0C30
0C30
0C18
1818
1FFC
3FFC
300C
300E
7006
6006
E007
ENDCHAR
STARTCHAR 0101
ENCODING 257
SWIDTH 560 0
DWIDTH 14 0
BBX 11 18 1 0
BITMAP
3FC0
3FC0
0000
0000
0000
1F00
3FC0
60C0
60E0
0060
1FE0
7FE0
6060
E060
E0E0
61E0
7FE0
3E60
ENDCHAR
STARTCHAR 0102
ENCODING 258
SWIDTH 640 0
DWIDTH 16 0
BBX 16 22 0 0
BITMAP
0430
07E0
03C0
0000
0180
01C0
03C0
03E0
0760
0660
0670
0C30
0C30
0C18
1818
1FFC
3FFC
300C
300E
7006
6006
E007
ENDCHAR
STARTCHAR 0103
ENCODING 259
SWIDTH 560 0
DWIDTH 14 0
BBX 11 18 1 0
BITMAP
38C0
1F80
0F00
0000
0000
1F00
3FC0
60C0
60E0
0060
1FE0
7FE0
6060
E060
E0E0
61E0
7FE0
3E60
ENDCHAR
STARTCHAR 0104
ENCODING 260
SWIDTH 640 0
DWIDTH 16 0
BBX 16 23 0 -5
BITMAP
0180
01C0
03C0
03E0
0760
0660
0670
0C30
0C30
0C18
1818
1FFC
3FFC
300C
300E
7006
6006
6007
8006
000C
0018
000F
000F
ENDCHAR
STARTCHAR 0105
ENCODING 261
SWIDTH 560 0
DWIDTH 14 0
BBX 11 18 1 -5
BITMAP
1F00
3FC0
60C0
60E0
0060
1FE0
7FE0
6060
E060
E0E0
61E0
7FE0
3E60
00C0
0180
0180
01E0
00E0
ENDCHAR
STARTCHAR 0106
ENCODING 262
SWIDTH 640 0
DWIDTH 16 0
BBX 14 23 1 0
BITMAP
00E0
01C0
0180
0300
0000
07C0
1FF0
3838
701C
701C
600C
6000
E000
E000
E000
E000
6000
600C
601C
701C
3838
1FF0
07C0
ENDCHAR
STARTCHAR 0107
ENCODING 263
SWIDTH 520 0
DWIDTH 13 0
BBX 11 19 1 0
BITMAP
0380
0300
0600
0E00
0000
0000
1F00
3FC0
70E0
6060
E060
C000
C000
C000
E000
6060
70E0
3FC0
1F00
ENDCHAR
STARTCHAR 0108
ENCODING 264
SWIDTH 640 0
DWIDTH 16 0
BBX 14 22 1 0
BITMAP
0380
06C0
0C60
0000
07C0
1FF0
3838
701C
701C
600C
6000
E000
E000
E000
E000
6000
600C
601C
701C
3838
1FF0
07C0
ENDCHAR
STARTCHAR 0109
ENCODING 265
SWIDTH 520 0
DWIDTH 13 0
BBX 11 18 1 0
BITMAP
0E00
1B00
3180
0000
0000
1F00
3FC0
70E0
6060
E060
C000
C000
C000
E000
6060
70E0
3FC0
1F00
ENDCHAR
STARTCHAR 010A
ENCODING 266
SWIDTH 640 0
DWIDTH 16 0
BBX 14 23 1 0
BITMAP
0100
0380
0300
0000
0000
07C0
1FF0
3838
701C
701C
600C
6000
E000
E000
E000
E000
6000
600C
601C
701C
3838
1FF0
07C0
ENDCHAR
STARTCHAR 010B
ENCODING 267
SWIDTH 520 0
DWIDTH 13 0
BBX 11 18 1 0
BITMAP
0400
0E00
0E00
0000
0000
1F00
3FC0
70E0
6060
E060
C000
C000
C000
E000
6060
70E0
3FC0
1F00
ENDCHAR
STARTCHAR 010C
ENCODING 268
SWIDTH 640 0
DWIDTH 16 0
BBX 14 22 1 0
BITMAP
0C60
06C0
0380
0000
07C0
1FF0
3838
701C
701C
600C
6000
E000
E000
E000
E000
6000
600C
601C
701C
3838
1FF0
07C0
ENDCHAR
STARTCHAR 010D
ENCODING 269
SWIDTH 520 0
DWIDTH 13 0
BBX 11 18 1 0
BITMAP
3180
1B00
0E00
0000
0000
1F00
3FC0
70E0
6060
E060
C000
C000
C000
E000
6060
70E0
3FC0
1F00
ENDCHAR
STARTCHAR 010E
ENCODING 270
SWIDTH 640 0
DWIDTH 16 0
BBX 13 22 2 0
BITMAP
3180
1B00
0E00
0000
FF00
FFC0
C0E0
C070
C030
C038
C038
C018
C018
C018
C018
C038
C038
C030
C070
C0E0
FFC0
FF00
ENDCHAR
STARTCHAR 010F
ENCODING 271
SWIDTH 640 0
DWIDTH 16 0
BBX 15 19 1 0
BITMAP
0066
0066
0066
006E
0064
0060
1F60
3FE0
70E0
6060
E060
C060
C060
C060
E060
6060
70E0
3FE0
1F60
ENDCHAR
STARTCHAR 0110
ENCODING 272
SWIDTH 680 0
DWIDTH 17 0
BBX 15 18 0 0
BITMAP
3FC0
3FF0
3838
381C
380E
3806
3806
3806
FF06
FF06
3806
3806
380E
380E
381C
3838
3FF0
3FC0
ENDCHAR
STARTCHAR 0111
ENCODING 273
SWIDTH 600 0
DWIDTH 15 0
BBX 14 19 1 0
BITMAP
0060
0060
03FC
03FC
0060
0060
1F60
3FE0
70E0
6060
E060
C060
C060
C060
E060
6060
70E0
3FE0
1F60
ENDCHAR
STARTCHAR 0112
ENCODING 274
SWIDTH 560 0
DWIDTH 14 0
BBX 11 22 2 0
BITMAP
3FC0
3FC0
0000
0000
FFE0
FFE0
C000
C000
C000
C000
C000
C000
FFC0
FFC0
C000
C000
C000
C000
C000
C000
FFE0
FFE0
ENDCHAR
STARTCHAR 0113
ENCODING 275
SWIDTH 520 0
DWIDTH 13 0
BBX 11 18 1 0
BITMAP
3FC0
3FC0
0000
0000
0000
0F00
3FC0
70E0
6060
E060
FFE0
FFE0
E000
E000
6000
7060
3FC0
0F80
ENDCHAR
STARTCHAR 0114
ENCODING 276
SWIDTH 560 0
DWIDTH 14 0
BBX 11 22 2 0
BITMAP
3180
3B80
1F00
0000
FFE0
FFE0
C000
C000
C000
C000
C000
C000
FFC0
FFC0
C000
C000
C000
C000
C000
C000
FFE0
FFE0
ENDCHAR
STARTCHAR 0115
ENCODING 277
SWIDTH 520 0
DWIDTH 13 0
BBX 11 18 1 0
BITMAP
30C0
1F80
0F00
0000
0000
0F00
3FC0
70E0
6060
E060
FFE0
FFE0
E000
E000
6000
7060
3FC0
0F80
ENDCHAR
STARTCHAR 0116
ENCODING 278
SWIDTH 560 0
DWIDTH 14 0
BBX 11 23 2 0
BITMAP
0400
0E00
0E00
0000
0000
FFE0
FFE0
C000
C000
C000
C000
C000
C000
FFC0
FFC0
C000
C000
C000
C000
C000
C000
FFE0
FFE0
ENDCHAR
STARTCHAR 0117
ENCODING 279
SWIDTH 520 0
DWIDTH 13 0
BBX 11 18 1 0
BITMAP
0400
0600
0600
0000
0000
0F00
3FC0
70E0
6060
E060
FFE0
FFE0
E000
E000
6000
7060
3FC0
0F80
ENDCHAR
STARTCHAR 0118
ENCODING 280
SWIDTH 560 0
DWIDTH 14 0
BBX 11 23 2 -5
BITMAP
FFE0
FFE0
C000
C000
C000
C000
C000
C000
FFC0
FFC0
C000
C000
C000
C000
C000
C000
FFE0
FFE0
00C0
0180
0300
03E0
01E0
ENDCHAR
STARTCHAR 0119
ENCODING 281
SWIDTH 520 0
DWIDTH 13 0
BBX 11 18 1 -5
BITMAP
0F00
3FC0
70E0
6060
E060
FFE0
FFE0
E000
E000
6000
7060
3FC0
1F80
0300
0600
0600
0780
0380
ENDCHAR
STARTCHAR 011A
ENCODING 282
SWIDTH 560 0
DWIDTH 14 0
BBX 11 22 2 0
BITMAP
3180
1B00
0E00
0000
FFE0
FFE0
C000
C000
C000
C000
C000
C000
FFC0
FFC0
C000
C000
C000
C000
C000
C000
FFE0
FFE0
ENDCHAR
STARTCHAR 011B
ENCODING 283
SWIDTH 520 0
DWIDTH 13 0
BBX 11 18 1 0
BITMAP
39C0
0F00
0600
0000
0000
0F00
3FC0
70E0
6060
E060
FFE0
FFE0
E000
E000
6000
7060
3FC0
0F80
ENDCHAR
STARTCHAR 011C
ENCODING 284
SWIDTH 680 0
DWIDTH 17 0
BBX 14 22 1 0
BITMAP
0380
07C0
1CE0
0000
07E0
1FF0
3838
701C
700C
6000
6000
E000
E000
E0FC
60FC
600C
600C
700C
300C
3C1C
1FF8
07E0
ENDCHAR
STARTCHAR 011D
ENCODING 285
SWIDTH 560 0
DWIDTH 14 0
BBX 11 23 1 -5
BITMAP
0E00
1B00
3180
0000
0000
1F60
3FE0
70E0
6060
E060
E060
C060
C060
E060
6060
70E0
3FE0
1F60
0060
4060
60E0
3FC0
1F00
ENDCHAR
STARTCHAR 011E
ENCODING 286
SWIDTH 680 0
DWIDTH 17 0
BBX 14 22 1 0
BITMAP
0860
0FC0
0780
0000
07E0
1FF0
3838
701C
700C
6000
6000
E000
E000
E0FC
60FC
600C
600C
700C
300C
3C1C
1FF8
07E0
ENDCHAR
STARTCHAR 011F
ENCODING 287
SWIDTH 560 0
DWIDTH 14 0
BBX 11 23 1 -5
BITMAP
3080
1F80
0F00
0000
0000
1F60
3FE0
70E0
6060
E060
E060
C060
C060
E060
6060
70E0
3FE0
1F60
0060
4060
60E0
3FC0
1F00
ENDCHAR
STARTCHAR 0120
ENCODING 288
SWIDTH 680 0
DWIDTH 17 0
BBX 14 23 1 0
BITMAP
0200
0380
0300
0000
0000
07E0
1FF0
3838
701C
700C
6000
6000
E000
E000
E0FC
60FC
600C
600C
700C
300C
3C1C
1FF8
07E0
ENDCHAR
STARTCHAR 0121
ENCODING 289
SWIDTH 560 0
DWIDTH 14 0
BBX 11 23 1 -5
BITMAP
0400
0E00
0600
0000
0000
1F60
3FE0
70E0
6060
E060
E060
C060
C060
E060
6060
70E0
3FE0
1F60
0060
4060
60E0
3FC0
1F00
ENDCHAR
STARTCHAR 0122
ENCODING 290
SWIDTH 680 0
DWIDTH 17 0
BBX 14 24 1 -6
BITMAP
07E0
1FF0
3838
701C
700C
6000
6000
E000
E000
E0FC
60FC
600C
600C
700C
300C
3C1C
1FF8
07E0
0000
0180
0180
0180
0300
0300
ENDCHAR
STARTCHAR 0123
ENCODING 291
SWIDTH 560 0
DWIDTH 14 0
BBX 11 25 1 -5
BITMAP
0200
0700
0600
0600
0600
0000
0000
1F60
3FE0
70E0
6060
E060
E060
C060
C060
E060
6060
70E0
3FE0
1F60
0060
4060
60E0
3FC0
1F00
ENDCHAR
STARTCHAR 0124
ENCODING 292
SWIDTH 720 0
DWIDTH 18 0
BBX 14 22 2 0
BITMAP
0700
0D80
18C0
0000
C01C
C01C
C01C
C01C
C01C
C01C
C01C
C01C
FFFC
FFFC
C01C
C01C
C01C
C01C
C01C
C01C
C01C
C01C
ENDCHAR
STARTCHAR 0125
ENCODING 293
SWIDTH 560 0
DWIDTH 14 0
BBX 10 23 2 0
BITMAP
1800
3E00
E700
0000
C000
C000
C000
C000
C000
C000
CF00
FF80
E1C0
C0C0
C0C0
C0C0
C0C0
C0C0
C0C0
C0C0
C0C0
C0C0
C0C0
ENDCHAR
STARTCHAR 0126
ENCODING 294
SWIDTH 720 0
DWIDTH 18 0
BBX 17 18 0 0
BITMAP
300700
300700
300700
300700
FFFF80
FFFF80
300700
300700
3FFF00
3FFF00
300700
300700
300700
300700
300700
300700
300700
300700
ENDCHAR
STARTCHAR 0127
ENCODING 295
SWIDTH 560 0
DWIDTH 14 0
BBX 12 19 0 0
BITMAP
3000
3000
FE00
FE00
3000
3000
33E0
37F0
3C70
3830
3030
3030
3030
3030
3030
3030
3030
3030
3030
ENDCHAR
STARTCHAR 0128
ENCODING 296
SWIDTH 280 0
DWIDTH 7 0
BBX 9 23 -1 0
BITMAP
3180
FF00
CF00
0000
0000
1C00
1C00
1C00
1C00
1C00
1C00
1C00
1C00
1C00
1C00
1C00
1C00
1C00
1C00
1C00
1C00
1C00
1C00
ENDCHAR
STARTCHAR 0129
ENCODING 297
SWIDTH 240 0
DWIDTH 6 0
BBX 8 18 -1 0
BITMAP
61
FF
8E
00
00
18
18
18
18
18
18
18
18
18
18
18
18
18
ENDCHAR
STARTCHAR 012A
ENCODING 298
SWIDTH 280 0
DWIDTH 7 0
BBX 9 22 -1 0
BITMAP
FF80
FF80
0000
0000
1C00
1C00
1C00
1C00
1C00
1C00
1C00
1C00
1C00
1C00
1C00
1C00
1C00
1C00
1C00
1C00
1C00
1C00
ENDCHAR
STARTCHAR 012B
ENCODING 299
SWIDTH 240 0
DWIDTH 6 0
BBX 8 18 -1 0
BITMAP
FF
FF
00
00
00
18
18
18
18
18
18
18
18
18
18
18
18
18
ENDCHAR
STARTCHAR 012C
ENCODING 300
SWIDTH 280 0
DWIDTH 7 0
BBX 7 22 0 0
BITMAP
C6
EE
7C
00
38
38
38
38
38
38
38
38
38
38
38
38
38
38
38
38
38
38
ENDCHAR
STARTCHAR 012D
ENCODING 301
SWIDTH 240 0
DWIDTH 6 0
BBX 8 18 -1 0
BITMAP
C3
7E
3C
00
00
18
18
18
18
18
18
18
18
18
18
18
18
18
ENDCHAR
STARTCHAR 012E
ENCODING 302
SWIDTH 280 0
DWIDTH 7 0
BBX 5 23 0 -5
BITMAP
38
38
38
38
38
38
38
38
38
38
38
38
38
38
38
38
38
38
60
60
C0
F8
78
ENDCHAR
STARTCHAR 012F
ENCODING 303
SWIDTH 240 0
DWIDTH 6 0
BBX 4 23 0 -5
BITMAP
20
30
30
00
00
30
30
30
30
30
30
30
30
30
30
30
30
30
60
C0
C0
F0
70
ENDCHAR
STARTCHAR 0130
ENCODING 304
SWIDTH 280 0
DWIDTH 7 0
BBX 3 23 2 0
BITMAP
40
E0
C0
00
00
E0
E0
E0
E0
E0
E0
E0
E0
E0
E0
E0
E0
E0
E0
E0
E0
E0
E0
ENDCHAR
STARTCHAR 0131
ENCODING 305
SWIDTH 240 0
DWIDTH 6 0
BBX 2 13 2 0
BITMAP
C0
C0
C0
C0
C0
C0
C0
C0
C0
C0
C0
C0
C0
ENDCHAR
STARTCHAR 0132
ENCODING 306
SWIDTH 840 0
DWIDTH 21 0
BBX 17 18 2 0
BITMAP
E00380
E00380
E00380
E00380
E00380
E00380
E00380
E00380
E00380
E00380
E00380
E00380
E00380
E70380
E30300
E38700
E1FE00
E0FC00
ENDCHAR
STARTCHAR 0133
ENCODING 307
SWIDTH 480 0
DWIDTH 12 0
BBX 8 23 2 -5
BITMAP
83
C3
C3
00
00
C3
C3
C3
C3
C3
C3
C3
C3
C3
C3
C3
C3
C3
03
03
03
1F
1E
ENDCHAR
STARTCHAR 0134
ENCODING 308
SWIDTH 560 0
DWIDTH 14 0
BBX 13 22 1 0
BITMAP
00E0
01B0
0318
0000
0060
0060
0060
0060
0060
0060
0060
0060
0060
0060
0060
0060
0060
C0E0
C0E0
E1C0
7F80
3F00
ENDCHAR
STARTCHAR 0135
ENCODING 309
SWIDTH 240 0
DWIDTH 6 0
BBX 8 23 -1 -5
BITMAP
1C
36
63
00
00
18
18
18
18
18
18
18
18
18
18
18
18
18
18
18
18
F8
F0
ENDCHAR
STARTCHAR 0136
ENCODING 310
SWIDTH 640 0
DWIDTH 16 0
BBX 14 23 2 -5
BITMAP
C038
C070
C0E0
C1C0
C380
C700
C600
CE00
DE00
FE00
F700
E380
C1C0
C1C0
C0E0
C070
C038
C038
0604
0600
0600
0C00
0400
ENDCHAR
STARTCHAR 0137
ENCODING 311
SWIDTH 520 0
DWIDTH 13 0
BBX 11 24 2 -5
BITMAP
C000
C000
C000
C000
C000
C000
C1C0
C380
C700
CE00
DC00
F800
FC00
EC00
C600
C700
C380
C1C0
C0C0
1C20
1C00
1800
1800
3000
ENDCHAR
STARTCHAR 0138
ENCODING 312
SWIDTH 560 0
DWIDTH 14 0
BBX 11 13 2 0
BITMAP
C0E0
C180
C300
C700
CE00
FC00
FC00
CE00
C700
C300
C380
C1C0
C0E0
ENDCHAR
STARTCHAR 0139
ENCODING 313
SWIDTH 520 0
DWIDTH 13 0
BBX 11 23 2 0
BITMAP
3800
7000
6000
C000
0000
C000
C000
C000
C000
C000
C000
C000
C000
C000
C000
C000
C000
C000
C000
C000
C000
FFE0
FFE0
ENDCHAR
STARTCHAR 013A
ENCODING 314
SWIDTH 240 0
DWIDTH 6 0
BBX 5 25 2 0
BITMAP
38
70
E0
C0
00
00
C0
C0
C0
C0
C0
C0
C0
C0
C0
C0
C0
C0
C0
C0
C0
C0
C0
C0
C0
ENDCHAR
STARTCHAR 013B
ENCODING 315
SWIDTH 520 0
DWIDTH 13 0
BBX 11 24 2 -6
BITMAP
C000
C000
C000
C000
C000
C000
C000
C000
C000
C000
C000
C000
C000
C000
C000
C000
FFE0
FFE0
0000
0E00
0E00
0C00
0C00
0800
ENDCHAR
STARTCHAR 013C
ENCODING 316
SWIDTH 240 0
DWIDTH 6 0
BBX 3 25 1 -6
BITMAP
60
60
60
60
60
60
60
60
60
60
60
60
60
60
60
60
60
60
60
00
60
60
60
C0
40
ENDCHAR
STARTCHAR 013D
ENCODING 317
SWIDTH 520 0
DWIDTH 13 0
BBX 11 18 2 0
BITMAP
C300
C300
C300
C600
C600
C000
C000
C000
C000
C000
C000
C000
C000
C000
C000
C000
FFE0
FFE0
ENDCHAR
STARTCHAR 013E
ENCODING 318
SWIDTH 320 0
DWIDTH 8 0
BBX 6 19 2 0
BITMAP
CC
CC
CC
CC
D8
C0
C0
C0
C0
C0
C0
C0
C0
C0
C0
C0
C0
C0
C0
ENDCHAR
STARTCHAR 013F
ENCODING 319
SWIDTH 520 0
DWIDTH 13 0
BBX 11 18 2 0
BITMAP
C000
C000
C000
C000
C000
C000
C000
C200
C700
C700
C000
C000
C000
C000
C000
C000
FFE0
FFE0
ENDCHAR
STARTCHAR 0140
ENCODING 320
SWIDTH 360 0
DWIDTH 9 0
BBX 6 19 2 0
BITMAP
C0
C0
C0
C0
C0
C0
C0
C0
C8
CC
CC
C0
C0
C0
C0
C0
C0
C0
C0
ENDCHAR
STARTCHAR 0141
ENCODING 321
SWIDTH 520 0
DWIDTH 13 0
BBX 13 18 0 0
BITMAP
3000
3000
3000
3000
3000
3000
3000
3300
3F00
F800
B000
3000
3000
3000
3000
3000
3FF8
3FF8
ENDCHAR
STARTCHAR 0142
ENCODING 322
SWIDTH 280 0
DWIDTH 7 0
BBX 6 19 0 0
BITMAP
30
30
30
30
30
30
30
34
3C
F0
B0
30
30
30
30
30
30
30
30
ENDCHAR
STARTCHAR 0143
ENCODING 323
SWIDTH 720 0
DWIDTH 18 0
BBX 14 23 2 0
BITMAP
00E0
0180
0380
0300
0000
E01C
E01C
F01C
F81C
D81C
DC1C
CE1C
C61C
C71C
C39C
C19C
C1DC
C0DC
C0FC
C07C
C03C
C03C
C01C
ENDCHAR
STARTCHAR 0144
ENCODING 324
SWIDTH 560 0
DWIDTH 14 0
BBX 10 19 2 0
BITMAP
0380
0700
0E00
0C00
0000
0000
CF00
FF80
E1C0
C0C0
C0C0
C0C0
C0C0
C0C0
C0C0
C0C0
C0C0
C0C0
C0C0
ENDCHAR
STARTCHAR 0145
ENCODING 325
SWIDTH 720 0
DWIDTH 18 0
BBX 14 24 2 -6
BITMAP
E01C
E01C
F01C
F81C
D81C
DC1C
CE1C
C61C
C71C
C39C
C19C
C1DC
C0DC
C0FC
C07C
C03C
C03C
C01C
0000
0300
0300
0700
0600
0600
ENDCHAR
STARTCHAR 0146
ENCODING 326
SWIDTH 560 0
DWIDTH 14 0
BBX 10 19 2 -6
BITMAP
CF00
FF80
E1C0
C0C0
C0C0
C0C0
C0C0
C0C0
C0C0
C0C0
C0C0
C0C0
C0C0
0000
0C00
0C00
0C00
1800
1800
ENDCHAR
STARTCHAR 0147
ENCODING 327
SWIDTH 720 0
DWIDTH 18 0
BBX 14 22 2 0
BITMAP
1CE0
0780
0300
0000
E01C
E01C
F01C
F81C
D81C
DC1C
CE1C
C61C
C71C
C39C
C19C
C1DC
C0DC
C0FC
C07C
C03C
C03C
C01C
ENDCHAR
STARTCHAR 0148
ENCODING 328
SWIDTH 560 0
DWIDTH 14 0
BBX 10 18 2 0
BITMAP
7380
1E00
0C00
0000
0000
CF00
FF80
E1C0
C0C0
C0C0
C0C0
C0C0
C0C0
C0C0
C0C0
C0C0
C0C0
C0C0
ENDCHAR
STARTCHAR 0149
ENCODING 329
SWIDTH 560 0
DWIDTH 14 0
BBX 13 19 -1 0
BITMAP
6000
6000
6000
E000
4000
0000
19E0
1FF0
1C38
1818
1818
1818
1818
1818
1818
1818
1818
1818
1818
ENDCHAR
STARTCHAR 014A
ENCODING 330
SWIDTH 680 0
DWIDTH 17 0
BBX 13 23 2 -5
BITMAP
E018
E018
F018
F818
D818
DC18
CC18
C618
C718
C318
C398
C1D8
C0D8
C0F8
C078
C038
C038
C018
0018
0018
0018
00F8
00F0
ENDCHAR
STARTCHAR 014B
ENCODING 331
SWIDTH 560 0
DWIDTH 14 0
BBX 10 18 2 -5
BITMAP
CF00
FF80
E1C0
C0C0
C0C0
C0C0
C0C0
C0C0
C0C0
C0C0
C0C0
C0C0
C0C0
00C0
00C0
00C0
07C0
0700
ENDCHAR
STARTCHAR 014C
ENCODING 332
SWIDTH 680 0
DWIDTH 17 0
BBX 15 22 1 0
BITMAP
0FF0
0FF0
0000
0000
07C0
1FF0
3838
301C
700C
600C
600E
E00E
E00E
E00E
E00E
600E
600C
700C
301C
3838
1FF0
07C0
ENDCHAR
STARTCHAR 014D
ENCODING 333
SWIDTH 560 0
DWIDTH 14 0
BBX 12 18 1 0
BITMAP
3FC0
3FC0
0000
0000
0000
0F80
3FC0
70E0
6070
E030
C030
C030
C030
E030
6070
70E0
3FC0
0F80
ENDCHAR
STARTCHAR 014E
ENCODING 334
SWIDTH 680 0
DWIDTH 17 0
BBX 15 22 1 0
BITMAP
0C60
0EE0
07C0
0000
07C0
1FF0
3838
301C
700C
600C
600E
E00E
E00E
E00E
E00E
600E
600C
700C
301C
3838
1FF0
07C0
ENDCHAR
STARTCHAR 014F
ENCODING 335
SWIDTH 560 0
DWIDTH 14 0
BBX 12 18 1 0
BITMAP
30C0
1F80
0F00
0000
0000
0F80
3FC0
70E0
6070
E030
C030
C030
C030
E030
6070
70E0
3FC0
0F80
ENDCHAR
STARTCHAR 0150
ENCODING 336
SWIDTH 680 0
DWIDTH 17 0
BBX 15 23 1 0
BITMAP
03B8
0330
0660
06C0
0000
07C0
1FF0
3838
301C
700C
600C
600E
E00E
E00E
E00E
E00E
600E
600C
700C
301C
3838
1FF0
07C0
ENDCHAR
STARTCHAR 0151
ENCODING 337
SWIDTH 560 0
DWIDTH 14 0
BBX 12 19 1 0
BITMAP
0670
0CE0
0DC0
1B80
0000
0000
0F80
3FC0
70E0
6070
E030
C030
C030
C030
E030
6070
70E0
3FC0
0F80
ENDCHAR
STARTCHAR 0152
ENCODING 338
SWIDTH 960 0
DWIDTH 24 0
BBX 21 18 1 0
BITMAP
0FFFF8
1FFFF8
383000
703000
603000
E03000
E03000
E03000
E03FF0
E03FF0
E03000
E03000
E03000
603000
703000
383000
1FFFF8
0FFFF8
ENDCHAR
STARTCHAR 0153
ENCODING 339
SWIDTH 920 0
DWIDTH 23 0
BBX 21 13 1 0
BITMAP
0F87C0
3FCFF0
70FC30
607838
E07018
E03FF8
C03FF8
C03000
E07000
607800
70FC10
3FCFF8
0F87E0
ENDCHAR
STARTCHAR 0154
ENCODING 340
SWIDTH 600 0
DWIDTH 15 0
BBX 13 23 2 0
BITMAP
0380
0300
0600
0C00
0000
FF80
FFE0
C0E0
C070
C030
C030
C030
C070
C0E0
FFC0
FF80
C180
C1C0
C0E0
C060
C070
C030
C038
ENDCHAR
STARTCHAR 0155
ENCODING 341
SWIDTH 320 0
DWIDTH 8 0
BBX 7 19 2 0
BITMAP
0E
1C
38
30
00
00
DC
FC
F0
C0
C0
C0
C0
C0
C0
C0
C0
C0
C0
ENDCHAR
STARTCHAR 0156
ENCODING 342
SWIDTH 600 0
DWIDTH 15 0
BBX 13 24 2 -6
BITMAP
FF80
FFE0
C0E0
C070
C030
C030
C030
C070
C0E0
FFC0
FF80
C180
C1C0
C0E0
C060
C070
C030
C038
0000
0E00
0E00
0C00
0C00
1800
ENDCHAR
STARTCHAR 0157
ENCODING 343
SWIDTH 320 0
DWIDTH 8 0
BBX 7 19 1 -6
BITMAP
6E
7E
78
60
60
60
60
60
60
60
60
60
60
00
60
60
60
C0
40
ENDCHAR
STARTCHAR 0158
ENCODING 344
SWIDTH 600 0
DWIDTH 15 0
BBX 13 22 2 0
BITMAP
3180
1B00
0E00
0000
FF80
FFE0
C0E0
C070
C030
C030
C030
C070
C0E0
FFC0
FF80
C180
C1C0
C0E0
C060
C070
C030
C038
ENDCHAR
STARTCHAR 0159
ENCODING 345
SWIDTH 320 0
DWIDTH 8 0
BBX 8 18 1 0
BITMAP
E7
3C
18
00
00
6E
7E
78
60
60
60
60
60
60
60
60
60
60
ENDCHAR
STARTCHAR 015A
ENCODING 346
SWIDTH 600 0
DWIDTH 15 0
BBX 13 23 1 0
BITMAP
01C0
0180
0300
0700
0000
0F80
3FE0
7070
6030
6038
6000
7000
3C00
1F80
07E0
00F0
0038
0038
C018
E038
7070
3FE0
0FC0
ENDCHAR
STARTCHAR 015B
ENCODING 347
SWIDTH 520 0
DWIDTH 13 0
BBX 11 19 1 0
BITMAP
01C0
0300
0700
0600
0000
0000
1F00
3F80
61C0
60C0
6020
7C00
1F80
03C0
00E0
E0E0
60C0
7FC0
1F00
ENDCHAR
STARTCHAR 015C
ENCODING 348
SWIDTH 600 0
DWIDTH 15 0
BBX 13 22 1 0
BITMAP
0700
0D80
18C0
0000
0F80
3FE0
7070
6030
6038
6000
7000
3C00
1F80
07E0
00F0
0038
0038
C018
E038
7070
3FE0
0FC0
ENDCHAR
STARTCHAR 015D
ENCODING 349
SWIDTH 520 0
DWIDTH 13 0
BBX 11 18 1 0
BITMAP
0600
1F00
39C0
0000
0000
1F00
3F80
61C0
60C0
6020
7C00
1F80
03C0
00E0
E0E0
60C0
7FC0
1F00
ENDCHAR
STARTCHAR 015E
ENCODING 350
SWIDTH 600 0
DWIDTH 15 0
BBX 13 23 1 -5
BITMAP
0F80
3FE0
7070
6030
6038
6000
7000
3C00
1F80
07E0
00F0
0038
0038
C018
E038
7070
3FE0
0FC0
0200
0380
0180
0380
0700
ENDCHAR
STARTCHAR 015F
ENCODING 351
SWIDTH 520 0
DWIDTH 13 0
BBX 11 18 1 -5
BITMAP
1F00
3F80
61C0
60C0
6020
7C00
1F80
03C0
00E0
E0E0
60C0
7FC0
1F00
0600
0700
0100
0300
0600
ENDCHAR
STARTCHAR 0160
ENCODING 352
SWIDTH 600 0
DWIDTH 15 0
BBX 13 22 1 0
BITMAP
18C0
0D80
0700
0000
0F80
3FE0
7070
6030
6038
6000
7000
3C00
1F80
07E0
00F0
0038
0038
C018
E038
7070
3FE0
0FC0
ENDCHAR
STARTCHAR 0161
ENCODING 353
SWIDTH 520 0
DWIDTH 13 0
BBX 11 18 1 0
BITMAP
39C0
0F00
0600
0000
0000
1F00
3F80
61C0
60C0
6020
7C00
1F80
03C0
00E0
E0E0
60C0
7FC0
1F00
ENDCHAR
STARTCHAR 0162
ENCODING 354
SWIDTH 600 0
DWIDTH 15 0
BBX 13 23 1 -5
BITMAP
FFF8
FFF8
0700
0700
0700
0700
0700
0700
0700
0700
0700
0700
0700
0700
0700
0700
0700
0700
0200
0780
0180
0380
0700
ENDCHAR
STARTCHAR 0163
ENCODING 355
SWIDTH 320 0
DWIDTH 8 0
BBX 8 21 0 -5
BITMAP
18
18
18
FE
FE
18
18
18
18
18
18
18
18
18
1E
0E
04
0F
03
07
0E
ENDCHAR
STARTCHAR 0164
ENCODING 356
SWIDTH 600 0
DWIDTH 15 0
BBX 13 22 1 0
BITMAP
18C0
0D80
0700
0000
FFF8
FFF8
0700
0700
0700
0700
0700
0700
0700
0700
0700
0700
0700
0700
0700
0700
0700
0700
ENDCHAR
STARTCHAR 0165
ENCODING 357
SWIDTH 360 0
DWIDTH 9 0
BBX 9 20 0 0
BITMAP
0180
0180
0180
0300
1900
1800
1800
FE00
FE00
1800
1800
1800
1800
1800
1800
1800
1800
1800
1E00
0E00
ENDCHAR
STARTCHAR 0166
ENCODING 358
SWIDTH 600 0
DWIDTH 15 0
BBX 13 18 1 0
BITMAP
FFF8
FFF8
0700
0700
0700
0700
1FC0
1FC0
0700
0700
0700
0700
0700
0700
0700
0700
0700
0700
ENDCHAR
STARTCHAR 0167
ENCODING 359
SWIDTH 320 0
DWIDTH 8 0
BBX 8 16 0 0
BITMAP
18
18
18
FE
FE
18
18
FF
FF
18
18
18
18
18
1E
0E
ENDCHAR
STARTCHAR 0168
ENCODING 360
SWIDTH 640 0
DWIDTH 16 0
BBX 13 23 2 0
BITMAP
1840
3FC0
3380
0000
0000
C038
C038
C038
C038
C038
C038
C038
C038
C038
C038
C038
C038
C038
C030
E030
7070
3FE0
1F80
ENDCHAR
STARTCHAR 0169
ENCODING 361
SWIDTH 560 0
DWIDTH 14 0
BBX 10 18 2 0
BITMAP
3080
7F80
4700
0000
0000
C0C0
C0C0
C0C0
C0C0
C0C0
C0C0
C0C0
C0C0
C0C0
C0C0
E1C0
FFC0
3CC0
ENDCHAR
STARTCHAR 016A
ENCODING 362
SWIDTH 640 0
DWIDTH 16 0
BBX 13 22 2 0
BITMAP
3FC0
3FC0
0000
0000
C038
C038
C038
C038
C038
C038
C038
C038
C038
C038
C038
C038
C038
C030
E030
7070
3FE0
1F80
ENDCHAR
STARTCHAR 016B
ENCODING 363
SWIDTH 560 0
DWIDTH 14 0
BBX 10 18 2 0
BITMAP
7F80
7F80
0000
0000
0000
C0C0
C0C0
C0C0
C0C0
C0C0
C0C0
C0C0
C0C0
C0C0
C0C0
E1C0
FFC0
3CC0
ENDCHAR
STARTCHAR 016C
ENCODING 364
SWIDTH 640 0
DWIDTH 16 0
BBX 13 22 2 0
BITMAP
30C0
1F80
0F00
0000
C038
C038
C038
C038
C038
C038
C038
C038
C038
C038
C038
C038
C038
C030
E030
7070
3FE0
1F80
ENDCHAR
STARTCHAR 016D
ENCODING 365
SWIDTH 560 0
DWIDTH 14 0
BBX 10 18 2 0
BITMAP
6180
3F00
1E00
0000
0000
C0C0
C0C0
C0C0
C0C0
C0C0
C0C0
C0C0
C0C0
C0C0
C0C0
E1C0
FFC0
3CC0
ENDCHAR
STARTCHAR 016E
ENCODING 366
SWIDTH 640 0
DWIDTH 16 0
BBX 13 24 2 0
BITMAP
0700
0980
0880
0980
0700
0000
C038
C038
C038
C038
C038
C038
C038
C038
C038
C038
C038
C038
C038
C030
E030
7070
3FE0
1F80
ENDCHAR
STARTCHAR 016F
ENCODING 367
SWIDTH 560 0
DWIDTH 14 0
BBX 10 20 2 0
BITMAP
1C00
1200
3300
3200
1E00
0000
0000
C0C0
C0C0
C0C0
C0C0
C0C0
C0C0
C0C0
C0C0
C0C0
C0C0
E1C0
FFC0
3CC0
ENDCHAR
STARTCHAR 0170
ENCODING 368
SWIDTH 640 0
DWIDTH 16 0
BBX 13 23 2 0
BITMAP
0770
0EE0
0DC0
1980
0000
C038
C038
C038
C038
C038
C038
C038
C038
C038
C038
C038
C038
C038
C030
E030
7070
3FE0
1F80
ENDCHAR
STARTCHAR 0171
ENCODING 369
SWIDTH 560 0
DWIDTH 14 0
BBX 11 19 2 0
BITMAP
0CE0
1980
3B80
3700
0000
0000
C0C0
C0C0
C0C0
C0C0
C0C0
C0C0
C0C0
C0C0
C0C0
C0C0
E1C0
FFC0
3CC0
ENDCHAR
STARTCHAR 0172
ENCODING 370
SWIDTH 640 0
DWIDTH 16 0
BBX 13 23 2 -5
BITMAP
C038
C038
C038
C038
C038
C038
C038
C038
C038
C038
C038
C038
C038
C030
E030
7070
3FE0
1F80
0300
0300
0600
03C0
03C0
ENDCHAR
STARTCHAR 0173
ENCODING 371
SWIDTH 560 0
DWIDTH 14 0
BBX 10 18 2 -5
BITMAP
C0C0
C0C0
C0C0
C0C0
C0C0
C0C0
C0C0
C0C0
C0C0
C0C0
E1C0
FFC0
3CC0
0180
0300
0300
03C0
01C0
ENDCHAR
STARTCHAR 0174
ENCODING 372
SWIDTH 880 0
DWIDTH 22 0
BBX 21 22 1 0
BITMAP
007000
00D800
018C00
000000
C06038
C07030
E07030
60F070
60F070
60D860
71D860
319860
318CE0
318CC0
330CC0
3B0CC0
1B07C0
1E0780
1E0780
1E0380
0E0380
0C0300
ENDCHAR
STARTCHAR 0175
ENCODING 373
SWIDTH 760 0
DWIDTH 19 0
BBX 17 18 1 0
BITMAP
01C000
036000
063000
000000
000000
C18180
C1C180
C1C300
63C300
636300
636300
766600
363600
363600
3C3400
1C1C00
1C1C00
181C00
ENDCHAR
STARTCHAR 0176
ENCODING 374
SWIDTH 600 0
DWIDTH 15 0
BBX 15 22 0 0
BITMAP
0380
06C0
0C60
0000
E00E
701C
3018
3838
1830
1C70
0C60
0EE0
06C0
07C0
0380
0380
0380
0380
0380
0380
0380
0380
ENDCHAR
STARTCHAR 0177
ENCODING 375
SWIDTH 480 0
DWIDTH 12 0
BBX 12 23 0 -5
BITMAP
0700
0F80
18C0
0000
0000
E070
6060
70E0
30C0
30C0
39C0
1980
1980
1F80
0F00
0F00
0600
0600
0600
0C00
0C00
7800
7000
ENDCHAR
STARTCHAR 0178
ENCODING 376
SWIDTH 600 0
DWIDTH 15 0
BBX 15 23 0 0
BITMAP
0C40
0C70
0C60
0000
0000
E00E
701C
3018
3838
1830
1C70
0C60
0EE0
06C0
07C0
0380
0380
0380
0380
0380
0380
0380
0380
ENDCHAR
STARTCHAR 0179
ENCODING 377
SWIDTH 600 0
DWIDTH 15 0
BBX 13 23 1 0
BITMAP
01C0
0180
0300
0700
0000
FFF8
FFF8
0070
0060
00E0
01C0
0180
0380
0700
0600
0E00
1C00
1800
3800
7000
6000
FFF8
FFF8
ENDCHAR
STARTCHAR 017A
ENCODING 378
SWIDTH 480 0
DWIDTH 12 0
BBX 11 19 1 0
BITMAP
0380
0700
0600
0C00
0000
0000
FFC0
FFC0
01C0
0380
0700
0600
0C00
1C00
3800
7000
6000
FFE0
FFE0
ENDCHAR
STARTCHAR 017B
ENCODING 379
SWIDTH 600 0
DWIDTH 15 0
BBX 13 23 1 0
BITMAP
0200
0700
0700
0000
0000
FFF8
FFF8
0070
0060
00E0
01C0
0180
0380
0700
0600
0E00
1C00
1800
3800
7000
6000
FFF8
FFF8
ENDCHAR
STARTCHAR 017C
ENCODING 380
SWIDTH 480 0
DWIDTH 12 0
BBX 11 18 1 0
BITMAP
0400
0E00
0C00
0000
0000
FFC0
FFC0
01C0
0380
0700
0600
0C00
1C00
3800
7000
6000
FFE0
FFE0
ENDCHAR
STARTCHAR 017D
ENCODING 381
SWIDTH 600 0
DWIDTH 15 0
BBX 13 22 1 0
BITMAP
18C0
0D80
0700
0000
FFF8
FFF8
0070
0060
00E0
01C0
0180
0380
0700
0600
0E00
1C00
1800
3800
7000
6000
FFF8
FFF8
ENDCHAR
STARTCHAR 017E
ENCODING 382
SWIDTH 480 0
DWIDTH 12 0
BBX 11 18 1 0
BITMAP
7180
1B00
0E00
0000
0000
FFC0
FFC0
01C0
0380
0700
0600
0C00
1C00
3800
7000
6000
FFE0
FFE0
ENDCHAR
STARTCHAR 017F
ENCODING 383
SWIDTH 240 0
DWIDTH 6 0
BBX 6 19 2 0
BITMAP
3C
7C
E0
C0
C0
C0
C0
C0
C0
C0
C0
C0
C0
C0
C0
C0
C0
C0
C0
ENDCHAR
STARTCHAR 018F
ENCODING 399
SWIDTH 680 0
DWIDTH 17 0
BBX 15 18 1 0
BITMAP
1FC0
3FF0
3078
001C
001C
000C
000E
000E
000E
FFFE
FFFE
C00E
E00C
600C
601C
3838
1FF0
0FC0
ENDCHAR
STARTCHAR 0192
ENCODING 402
SWIDTH 360 0
DWIDTH 9 0
BBX 9 24 0 -5
BITMAP
0780
0F00
1C00
1800
1800
1800
7E00
7E00
1800
1800
1800
1800
1800
1800
1800
1800
1800
1800
1800
1800
1800
3800
F000
E000
ENDCHAR
STARTCHAR 01A0
ENCODING 416
SWIDTH 680 0
DWIDTH 17 0
BBX 17 19 1 0
BITMAP
000380
07C300
1FF700
383E00
701800
601C00
600C00
E00C00
E00C00
E00E00
E00E00
E00C00
E00C00
600C00
601C00
701800
383800
1FF000
07C000
ENDCHAR
STARTCHAR 01A1
ENCODING 417
SWIDTH 560 0
DWIDTH 14 0
BBX 14 14 1 0
BITMAP
000C
0F8C
3FD8
70F0
6070
E030
C030
C030
C030
E030
6070
70E0
3FC0
0F80
ENDCHAR
STARTCHAR 01AF
ENCODING 431
SWIDTH 680 0
DWIDTH 17 0
BBX 17 19 2 0
BITMAP
000180
C03980
C03980
C03F00
C03E00
C03800
C03800
C03800
C03800
C03800
C03800
C03800
C03800
C03800
C03000
E03000
707000
3FE000
1F8000
ENDCHAR
STARTCHAR 01B0
ENCODING 432
SWIDTH 600 0
DWIDTH 15 0
BBX 14 14 2 0
BITMAP
000C
C0CC
C0F8
C0F0
C0C0
C0C0
C0C0
C0C0
C0C0
C0C0
C0C0
E1C0
FFC0
3CC0
ENDCHAR
STARTCHAR 01F0
ENCODING 496
SWIDTH 240 0
DWIDTH 6 0
BBX 8 23 -1 -5
BITMAP
E3
36
18
00
00
18
18
18
18
18
18
18
18
18
18
18
18
18
18
18
18
F8
F0
ENDCHAR
STARTCHAR 01FA
ENCODING 506
SWIDTH 640 0
DWIDTH 16 0
BBX 16 24 0 0
BITMAP
0070
00C0
0000
01C0
0240
0240
01C0
01C0
03C0
03E0
0760
0660
0670
0C30
0C30
0C18
1818
1FFC
3FFC
300C
300E
7006
6006
E007
ENDCHAR
STARTCHAR 01FB
ENCODING 507
SWIDTH 560 0
DWIDTH 14 0
BBX 11 20 1 0
BITMAP
01C0
0300
0000
0600
0900
0900
0700
1F00
3FC0
60C0
60E0
0060
1FE0
7FE0
6060
E060
E0E0
61E0
7FE0
3E60
ENDCHAR
STARTCHAR 01FC
ENCODING 508
SWIDTH 920 0
DWIDTH 23 0
BBX 23 23 0 0
BITMAP
000E00
000C00
001800
003000
000000
003FFC
003FFC
006C00
00EC00
00CC00
01CC00
018C00
030C00
070FF8
060FF8
0E0C00
0FFC00
1FFC00
380C00
300C00
700C00
600FFE
E00FFE
ENDCHAR
STARTCHAR 01FD
ENCODING 509
SWIDTH 840 0
DWIDTH 21 0
BBX 19 19 1 0
BITMAP
003800
003000
006000
00C000
000000
000000
1F0F00
7FBFC0
E1F0E0
E0E060
00E060
3FFFE0
7FFFE0
E0C000
C0E000
C0E000
E1F060
7FBFE0
3E0F80
ENDCHAR
STARTCHAR 01FE
ENCODING 510
SWIDTH 680 0
DWIDTH 17 0
BBX 15 24 1 -1
BITMAP
00F0
00C0
01C0
0380
0000
07C6
1FFC
3838
301C
703C
606C
606E
E0CE
E08E
E18E
E30E
620E
660C
7C0C
3C1C
3838
3FF0
37C0
6000
ENDCHAR
STARTCHAR 01FF
ENCODING 511
SWIDTH 560 0
DWIDTH 14 0
BBX 12 20 1 -1
BITMAP
0380
0300
0600
0E00
0000
0060
0FC0
3FC0
70E0
61F0
E130
C330
C630
C430
EC30
6870
78E0
3FC0
3F80
6000
ENDCHAR
STARTCHAR 0218
ENCODING 536
SWIDTH 600 0
DWIDTH 15 0
BBX 13 24 1 -6
BITMAP
0F80
3FE0
7070
6030
6038
6000
7000
3C00
1F80
07E0
00F0
0038
0038
C018
E038
7070
3FE0
0FC0
0000
0300
0300
0700
0600
0400
ENDCHAR
STARTCHAR 0219
ENCODING 537
SWIDTH 520 0
DWIDTH 13 0
BBX 11 19 1 -6
BITMAP
1F00
3F80
61C0
60C0
6020
7C00
1F80
03C0
00E0
E0E0
60C0
7FC0
1F00
0000
0600
0600
0600
0C00
0C00
ENDCHAR
STARTCHAR 021A
ENCODING 538
SWIDTH 600 0
DWIDTH 15 0
BBX 13 24 1 -6
BITMAP
FFF8
FFF8
0700
0700
0700
0700
0700
0700
0700
0700
0700
0700
0700
0700
0700
0700
0700
0700
0000
0700
0700
0600
0600
0C00
ENDCHAR
STARTCHAR 021B
ENCODING 539
SWIDTH 320 0
DWIDTH 8 0
BBX 7 22 0 -6
BITMAP
18
18
18
FE
FE
18
18
18
18
18
18
18
18
18
1E
0E
00
0E
0E
0C
0C
08
ENDCHAR
STARTCHAR 0237
ENCODING 567
SWIDTH 240 0
DWIDTH 6 0
BBX 5 18 -1 -5
BITMAP
18
18
18
18
18
18
18
18
18
18
18
18
18
18
18
18
F8
F0
ENDCHAR
STARTCHAR 0259
ENCODING 601
SWIDTH 520 0
DWIDTH 13 0
BBX 11 13 1 0
BITMAP
3F00
7F80
41C0
00E0
0060
0060
FFE0
FFE0
C060
E0E0
71C0
3F80
1F00
ENDCHAR
STARTCHAR 02BC
ENCODING 700
SWIDTH 200 0
DWIDTH 5 0
BBX 3 6 1 13
BITMAP
60
60
60
E0
C0
80
ENDCHAR
STARTCHAR 02C6
ENCODING 710
SWIDTH 480 0
DWIDTH 12 0
BBX 7 3 2 15
BITMAP
38
6C
C6
ENDCHAR
STARTCHAR 02C7
ENCODING 711
SWIDTH 440 0
DWIDTH 11 0
BBX 7 3 2 15
BITMAP
C6
6C
38
ENDCHAR
STARTCHAR 02C9
ENCODING 713
SWIDTH 440 0
DWIDTH 11 0
BBX 8 2 2 16
BITMAP
FF
FF
ENDCHAR
STARTCHAR 02D8
ENCODING 728
SWIDTH 440 0
DWIDTH 11 0
BBX 7 3 2 15
BITMAP
86
FC
78
ENDCHAR
STARTCHAR 02D9
ENCODING 729
SWIDTH 240 0
DWIDTH 6 0
BBX 2 3 2 15
BITMAP
80
C0
C0
ENDCHAR
STARTCHAR 02DA
ENCODING 730
SWIDTH 320 0
DWIDTH 8 0
BBX 6 5 1 15
BITMAP
38
4C
C4
4C
78
ENDCHAR
STARTCHAR 02DB
ENCODING 731
SWIDTH 280 0
DWIDTH 7 0
BBX 4 6 1 -5
BITMAP
20
70
C0
C0
F0
F0
ENDCHAR
STARTCHAR 02DC
ENCODING 732
SWIDTH 480 0
DWIDTH 12 0
BBX 9 3 1 15
BITMAP
3080
7F80
C700
ENDCHAR
STARTCHAR 02DD
ENCODING 733
SWIDTH 360 0
DWIDTH 9 0
BBX 9 4 1 15
BITMAP
3B80
7700
6E00
CC00
ENDCHAR
STARTCHAR 02F3
ENCODING 755
SWIDTH 280 0
DWIDTH 7 0
BBX 4 4 2 -5
BITMAP
E0
90
90
E0
ENDCHAR
STARTCHAR 0300
ENCODING 768
SWIDTH 0 0
DWIDTH 0 0
BBX 5 4 -10 15
BITMAP
E0
60
70
38
ENDCHAR
STARTCHAR 0301
ENCODING 769
SWIDTH 0 0
DWIDTH 0 0
BBX 5 4 -8 15
BITMAP
38
70
60
C0
ENDCHAR
STARTCHAR 0303
ENCODING 771
SWIDTH 0 0
DWIDTH 0 0
BBX 9 3 -11 15
BITMAP
3180
7F80
CF00
ENDCHAR
STARTCHAR 0309
ENCODING 777
SWIDTH 0 0
DWIDTH 0 0
BBX 4 5 -8 15
BITMAP
C0
60
30
E0
C0
ENDCHAR
STARTCHAR 030F
ENCODING 783
SWIDTH 0 0
DWIDTH 0 0
BBX 9 3 -12 15
BITMAP
EE00
3B00
1D80
ENDCHAR
STARTCHAR 0323
ENCODING 803
SWIDTH 0 0
DWIDTH 0 0
BBX 3 3 -9 -5
BITMAP
60
E0
40
ENDCHAR
STARTCHAR 0384
ENCODING 900
SWIDTH 240 0
DWIDTH 6 0
BBX 3 4 2 15
BITMAP
60
60
C0
C0
ENDCHAR
STARTCHAR 0385
ENCODING 901
SWIDTH 520 0
DWIDTH 13 0
BBX 10 5 1 15
BITMAP
0600
0600
4C80
E1C0
60C0
ENDCHAR
STARTCHAR 0386
ENCODING 902
SWIDTH 640 0
DWIDTH 16 0
BBX 16 19 0 0
BITMAP
1800
1980
31C0
33C0
03E0
0760
0660
0670
0C30
0C30
0C18
1818
1FFC
3FFC
300C
300E
7006
6006
E007
ENDCHAR
STARTCHAR 0387
ENCODING 903
SWIDTH 280 0
DWIDTH 7 0
BBX 3 3 2 7
BITMAP
C0
E0
40
ENDCHAR
STARTCHAR 0388
ENCODING 904
SWIDTH 560 0
DWIDTH 14 0
BBX 16 19 -3 0
BITMAP
6000
67FF
47FF
C600
0600
0600
0600
0600
0600
07FE
07FE
0600
0600
0600
0600
0600
0600
07FF
07FF
ENDCHAR
STARTCHAR 0389
ENCODING 905
SWIDTH 720 0
DWIDTH 18 0
BBX 18 19 -2 0
BITMAP
C00000
CC01C0
8C01C0
8C01C0
0C01C0
0C01C0
0C01C0
0C01C0
0C01C0
0FFFC0
0FFFC0
0C01C0
0C01C0
0C01C0
0C01C0
0C01C0
0C01C0
0C01C0
0C01C0
ENDCHAR
STARTCHAR 038A
ENCODING 906
SWIDTH 280 0
DWIDTH 7 0
BBX 7 19 -2 0
BITMAP
C0
CE
CE
8E
0E
0E
0E
0E
0E
0E
0E
0E
0E
0E
0E
0E
0E
0E
0E
ENDCHAR
STARTCHAR 038C
ENCODING 908
SWIDTH 680 0
DWIDTH 17 0
BBX 16 19 0 0
BITMAP
C000
C3F0
CFF8
9E1C
180E
3806
3007
3007
3003
3003
3003
3003
3007
3007
3806
180E
1E1C
0FF8
03F0
ENDCHAR
STARTCHAR 038E
ENCODING 910
SWIDTH 640 0
DWIDTH 16 0
BBX 19 19 -3 0
BITMAP
600000
CE00E0
C700C0
C301C0
038180
018380
01C700
00C600
00EE00
006C00
003C00
003800
001800
001800
001800
001800
001800
001800
001800
ENDCHAR
STARTCHAR 038F
ENCODING 911
SWIDTH 680 0
DWIDTH 17 0
BBX 15 19 0 0
BITMAP
E000
C3E0
CFF8
9C1C
180C
380E
3006
3006
3006
3006
3006
3006
3006
300E
180C
180C
0C38
3F7E
3F7E
ENDCHAR
STARTCHAR 0390
ENCODING 912
SWIDTH 320 0
DWIDTH 8 0
BBX 9 20 -1 0
BITMAP
0E00
0C00
8D80
C180
C180
0000
0000
1C00
1C00
1C00
1C00
1C00
1C00
1C00
1C00
1C00
1C00
1C00
0F00
0700
ENDCHAR
STARTCHAR 0391
ENCODING 913
SWIDTH 640 0
DWIDTH 16 0
BBX 16 18 0 0
BITMAP
0180
01C0
03C0
03E0
0760
0660
0670
0C30
0C30
0C18
1818
1FFC
3FFC
300C
300E
7006
6006
E007
ENDCHAR
STARTCHAR 0392
ENCODING 914
SWIDTH 640 0
DWIDTH 16 0
BBX 12 18 2 0
BITMAP
FF80
FFC0
C0E0
C070
C070
C070
C060
C0E0
FFC0
FFC0
C060
C030
C030
C030
C070
C0F0
FFE0
FF80
ENDCHAR
STARTCHAR 0393
ENCODING 915
SWIDTH 560 0
DWIDTH 14 0
BBX 11 18 2 0
BITMAP
FFE0
FFE0
E000
E000
E000
E000
E000
E000
E000
E000
E000
E000
E000
E000
E000
E000
E000
E000
ENDCHAR
STARTCHAR 0394
ENCODING 916
SWIDTH 720 0
DWIDTH 18 0
BBX 17 18 0 0
BITMAP
00C000
01E000
01E000
03E000
037000
033000
063800
061800
0E1800
0C1C00
1C0C00
180C00
180600
380600
300700
700300
7FFF00
FFFF80
ENDCHAR
STARTCHAR 0395
ENCODING 917
SWIDTH 560 0
DWIDTH 14 0
BBX 11 18 2 0
BITMAP
FFE0
FFE0
C000
C000
C000
C000
C000
C000
FFC0
FFC0
C000
C000
C000
C000
C000
C000
FFE0
FFE0
ENDCHAR
STARTCHAR 0396
ENCODING 918
SWIDTH 600 0
DWIDTH 15 0
BBX 13 18 1 0
BITMAP
FFF8
FFF8
0070
0060
00E0
01C0
0180
0380
0700
0600
0E00
1C00
1800
3800
7000
6000
FFF8
FFF8
ENDCHAR
STARTCHAR 0397
ENCODING 919
SWIDTH 720 0
DWIDTH 18 0
BBX 14 18 2 0
BITMAP
C01C
C01C
C01C
C01C
C01C
C01C
C01C
C01C
FFFC
FFFC
C01C
C01C
C01C
C01C
C01C
C01C
C01C
C01C
ENDCHAR
STARTCHAR 0398
ENCODING 920
SWIDTH 680 0
DWIDTH 17 0
BBX 15 18 1 0
BITMAP
07C0
1FF0
3838
7018
601C
600C
E00C
E00C
EFEE
EFEE
E00E
E00C
600C
601C
7018
3838
1FF0
07C0
ENDCHAR
STARTCHAR 0399
ENCODING 921
SWIDTH 280 0
DWIDTH 7 0
BBX 3 18 2 0
BITMAP
E0
E0
E0
E0
E0
E0
E0
E0
E0
E0
E0
E0
E0
E0
E0
E0
E0
E0
ENDCHAR
STARTCHAR 039A
ENCODING 922
SWIDTH 640 0
DWIDTH 16 0
BBX 14 18 2 0
BITMAP
C038
C070
C0E0
C1C0
C380
C700
C600
CE00
DE00
FE00
F700
E380
C1C0
C1C0
C0E0
C070
C038
C03C
ENDCHAR
STARTCHAR 039B
ENCODING 923
SWIDTH 640 0
DWIDTH 16 0
BBX 15 18 1 0
BITMAP
0300
0380
0780
0780
0FC0
0CC0
0CE0
1CE0
1860
1870
3830
3030
3038
7018
6018
601C
E00C
C00E
ENDCHAR
STARTCHAR 039C
ENCODING 924
SWIDTH 880 0
DWIDTH 22 0
BBX 18 18 2 0
BITMAP
E001C0
F003C0
F003C0
F007C0
D806C0
D806C0
DC0CC0
CC0DC0
CC1DC0
C619C0
C619C0
C731C0
C331C0
C371C0
C1E1C0
C1E1C0
C1C1C0
C0C1C0
ENDCHAR
STARTCHAR 039D
ENCODING 925
SWIDTH 720 0
DWIDTH 18 0
BBX 14 18 2 0
BITMAP
E01C
E01C
F01C
F81C
D81C
DC1C
CE1C
C61C
C71C
C39C
C19C
C1DC
C0DC
C0FC
C07C
C03C
C03C
C01C
ENDCHAR
STARTCHAR 039E
ENCODING 926
SWIDTH 560 0
DWIDTH 14 0
BBX 12 18 1 0
BITMAP
7FF0
7FF0
0000
0000
0000
0000
0000
0000
3FE0
3FE0
0000
0000
0000
0000
0000
0000
FFF0
FFF0
ENDCHAR
STARTCHAR 039F
ENCODING 927
SWIDTH 680 0
DWIDTH 17 0
BBX 15 18 1 0
BITMAP
07C0
1FF0
3838
301C
700C
600C
600E
E00E
E00E
E00E
E00E
600E
600C
700C
301C
3838
1FF0
07C0
ENDCHAR
STARTCHAR 03A0
ENCODING 928
SWIDTH 720 0
DWIDTH 18 0
BBX 14 18 2 0
BITMAP
FFFC
FFFC
E01C
E01C
E01C
E01C
E01C
E01C
E01C
E01C
E01C
E01C
E01C
E01C
E01C
E01C
E01C
E01C
ENDCHAR
STARTCHAR 03A1
ENCODING 929
SWIDTH 640 0
DWIDTH 16 0
BBX 13 18 2 0
BITMAP
FFC0
FFE0
C070
C038
C038
C038
C038
C038
C070
FFE0
FF80
C000
C000
C000
C000
C000
C000
C000
ENDCHAR
STARTCHAR 03A3
ENCODING 931
SWIDTH 560 0
DWIDTH 14 0
BBX 12 18 1 0
BITMAP
FFF0
FFF0
E000
7000
3800
1C00
0C00
0E00
0700
0700
0E00
0C00
1C00
3800
7000
E000
FFF0
FFF0
ENDCHAR
STARTCHAR 03A4
ENCODING 932
SWIDTH 600 0
DWIDTH 15 0
BBX 13 18 1 0
BITMAP
FFF8
FFF8
0700
0700
0700
0700
0700
0700
0700
0700
0700
0700
0700
0700
0700
0700
0700
0700
ENDCHAR
STARTCHAR 03A5
ENCODING 933
SWIDTH 600 0
DWIDTH 15 0
BBX 15 18 0 0
BITMAP
E00E
701C
3018
3838
1830
1C70
0C60
0EE0
06C0
07C0
0380
0380
0380
0380
0380
0380
0380
0380
ENDCHAR
STARTCHAR 03A6
ENCODING 934
SWIDTH 720 0
DWIDTH 18 0
BBX 16 18 1 0
BITMAP
0180
0180
0FF0
3FFC
799E
6186
E187
C183
C183
C183
C183
E187
6186
719E
3FFC
0FF0
0180
0180
ENDCHAR
STARTCHAR 03A7
ENCODING 935
SWIDTH 640 0
DWIDTH 16 0
BBX 14 18 1 0
BITMAP
E01C
7038
7030
3870
18E0
1CC0
0FC0
0780
0780
0780
0F80
0FC0
1CE0
18E0
3870
7030
6038
E01C
ENDCHAR
STARTCHAR 03A8
ENCODING 936
SWIDTH 680 0
DWIDTH 17 0
BBX 15 18 1 0
BITMAP
C386
C386
C386
C386
C386
C386
C386
C386
E38E
E38E
739C
3BBC
1FF8
0FE0
0380
0380
0380
0380
ENDCHAR
STARTCHAR 03A9
ENCODING 937
SWIDTH 680 0
DWIDTH 17 0
BBX 14 18 1 0
BITMAP
07C0
1FE0
3870
7038
6018
601C
E00C
E00C
E00C
E00C
E00C
601C
6018
7018
3030
1870
FCFC
FCFC
ENDCHAR
STARTCHAR 03AA
ENCODING 938
SWIDTH 280 0
DWIDTH 7 0
BBX 8 23 -1 0
BITMAP
43
E3
63
00
00
1C
1C
1C
1C
1C
1C
1C
1C
1C
1C
1C
1C
1C
1C
1C
1C
1C
1C
ENDCHAR
STARTCHAR 03AB
ENCODING 939
SWIDTH 600 0
DWIDTH 15 0
BBX 15 23 0 0
BITMAP
0C40
0C70
0C60
0000
0000
E00E
701C
3018
3838
1830
1C70
0C60
0EE0
06C0
07C0
0380
0380
0380
0380
0380
0380
0380
0380
ENDCHAR
STARTCHAR 03AC
ENCODING 940
SWIDTH 560 0
DWIDTH 14 0
BBX 13 19 1 0
BITMAP
0380
0300
0300
0200
0000
0000
1F60
3FE0
70E0
6060
E060
E060
C060
C060
E060
6060
70F0
3FF8
1F38
ENDCHAR
STARTCHAR 03AD
ENCODING 941
SWIDTH 520 0
DWIDTH 13 0
BBX 11 19 1 0
BITMAP
0700
0600
0600
0400
0000
0000
1F80
7FC0
60E0
E000
6000
3F00
7F00
6000
E000
E060
60E0
7FC0
1F00
ENDCHAR
STARTCHAR 03AE
ENCODING 942
SWIDTH 560 0
DWIDTH 14 0
BBX 10 24 2 -5
BITMAP
0600
0400
0C00
0C00
0000
0000
CF00
FF80
E1C0
C0C0
C0C0
C0C0
C0C0
C0C0
C0C0
C0C0
C0C0
C0C0
C0C0
00C0
00C0
00C0
00C0
00C0
ENDCHAR
STARTCHAR 03AF
ENCODING 943
SWIDTH 320 0
DWIDTH 8 0
BBX 5 19 2 0
BITMAP
70
60
60
40
00
00
E0
E0
E0
E0
E0
E0
E0
E0
E0
E0
E0
78
38
ENDCHAR
STARTCHAR 03B0
ENCODING 944
SWIDTH 560 0
DWIDTH 14 0
BBX 10 20 2 0
BITMAP
0E00
0C00
8D80
C180
C180
0000
0000
C180
C1C0
C0C0
C0C0
C0C0
C0C0
C0C0
C0C0
C0C0
C1C0
E380
7F00
3E00
ENDCHAR
STARTCHAR 03B1
ENCODING 945
SWIDTH 560 0
DWIDTH 14 0
BBX 13 13 1 0
BITMAP
1F60
3FE0
70E0
6060
E060
E060
C060
C060
E060
6060
70F0
3FF8
1F38
ENDCHAR
STARTCHAR 03B2
ENCODING 946
SWIDTH 600 0
DWIDTH 15 0
BBX 11 23 2 -5
BITMAP
1F00
3F80
61C0
E0E0
C0E0
C0C0
C1C0
CF80
CFC0
C0E0
C060
C060
C060
C060
C060
E0E0
FFC0
DF00
C000
C000
C000
C000
C000
ENDCHAR
STARTCHAR 03B3
ENCODING 947
SWIDTH 520 0
DWIDTH 13 0
BBX 11 18 1 -5
BITMAP
C060
C0E0
60C0
60C0
7180
3180
3380
3B00
1B00
1F00
0E00
0E00
0C00
0C00
0C00
0C00
0C00
0C00
ENDCHAR
STARTCHAR 03B4
ENCODING 948
SWIDTH 560 0
DWIDTH 14 0
BBX 12 19 1 0
BITMAP
0F80
3FC0
3040
3000
3000
3C00
1F00
1FC0
31E0
6060
E070
E030
C030
C030
E070
6060
70E0
3FC0
1F80
ENDCHAR
STARTCHAR 03B5
ENCODING 949
SWIDTH 520 0
DWIDTH 13 0
BBX 11 13 1 0
BITMAP
1F80
7FC0
60E0
E000
6000
3F00
7F00
6000
E000
E060
60E0
7FC0
1F00
ENDCHAR
STARTCHAR 03B6
ENCODING 950
SWIDTH 520 0
DWIDTH 13 0
BBX 11 23 1 -5
BITMAP
FFE0
FFE0
00C0
0180
0300
0700
0E00
1C00
1800
3800
3000
3000
7000
7000
7000
3800
3E00
0FC0
01C0
00C0
00C0
0180
0080
ENDCHAR
STARTCHAR 03B7
ENCODING 951
SWIDTH 560 0
DWIDTH 14 0
BBX 10 18 2 -5
BITMAP
CF00
FF80
E1C0
C0C0
C0C0
C0C0
C0C0
C0C0
C0C0
C0C0
C0C0
C0C0
C0C0
00C0
00C0
00C0
00C0
00C0
ENDCHAR
STARTCHAR 03B8
ENCODING 952
SWIDTH 560 0
DWIDTH 14 0
BBX 12 18 1 0
BITMAP
0F00
3FC0
30E0
6060
6060
6070
E070
E070
FFF0
FFF0
E070
6070
6070
6060
7060
30E0
3FC0
0F00
ENDCHAR
STARTCHAR 03B9
ENCODING 953
SWIDTH 320 0
DWIDTH 8 0
BBX 5 13 2 0
BITMAP
E0
E0
E0
E0
E0
E0
E0
E0
E0
E0
E0
78
38
ENDCHAR
STARTCHAR 03BA
ENCODING 954
SWIDTH 560 0
DWIDTH 14 0
BBX 11 13 2 0
BITMAP
C0E0
C180
C300
C700
CE00
FC00
FC00
CE00
C700
C300
C380
C1C0
C0E0
ENDCHAR
STARTCHAR 03BB
ENCODING 955
SWIDTH 560 0
DWIDTH 14 0
BBX 13 19 0 0
BITMAP
3800
3C00
0C00
0E00
0600
0700
0700
0700
0F80
0D80
0D80
1DC0
18C0
38E0
3860
3060
7070
7038
E038
ENDCHAR
STARTCHAR 03BC
ENCODING 956
SWIDTH 560 0
DWIDTH 14 0
BBX 10 18 2 -5
BITMAP
C0C0
C0C0
C0C0
C0C0
C0C0
C0C0
C0C0
C0C0
C0C0
C0C0
E1C0
FFC0
DEC0
C000
C000
C000
C000
C000
ENDCHAR
STARTCHAR 03BD
ENCODING 957
SWIDTH 480 0
DWIDTH 12 0
BBX 12 13 0 0
BITMAP
E070
6060
7060
30C0
30C0
38C0
1980
1980
0D80
0F00
0F00
0600
0600
ENDCHAR
STARTCHAR 03BE
ENCODING 958
SWIDTH 480 0
DWIDTH 12 0
BBX 10 23 1 -5
BITMAP
0FC0
3FC0
7000
6000
6000
7000
3800
1F80
1F80
7000
6000
E000
E000
E000
E000
7000
3E00
0FC0
01C0
00C0
00C0
01C0
0080
ENDCHAR
STARTCHAR 03BF
ENCODING 959
SWIDTH 560 0
DWIDTH 14 0
BBX 12 13 1 0
BITMAP
0F80
3FC0
70E0
6070
E030
C030
C030
C030
E030
6070
70E0
3FC0
0F80
ENDCHAR
STARTCHAR 03C0
ENCODING 960
SWIDTH 600 0
DWIDTH 15 0
BBX 15 13 0 0
BITMAP
FFFC
FFFC
1830
1830
1830
1830
1830
1830
1830
1830
1830
183C
181E
ENDCHAR
STARTCHAR 03C1
ENCODING 961
SWIDTH 560 0
DWIDTH 14 0
BBX 11 18 2 -5
BITMAP
1F00
7F80
61C0
E0C0
C0E0
C060
C060
C060
C0E0
C0E0
E1C0
FF80
DF00
C000
C000
C000
C000
C000
ENDCHAR
STARTCHAR 03C2
ENCODING 962
SWIDTH 520 0
DWIDTH 13 0
BBX 11 18 1 -5
BITMAP
0F80
3FC0
70E0
6060
E060
E000
C000
E000
E000
7000
7800
3F00
0FC0
00C0
00C0
00C0
0180
0080
ENDCHAR
STARTCHAR 03C3
ENCODING 963
SWIDTH 560 0
DWIDTH 14 0
BBX 13 13 1 0
BITMAP
0FF8
3FF8
70C0
6060
E070
C030
C030
C030
E070
6060
70E0
3FC0
0F80
ENDCHAR
STARTCHAR 03C4
ENCODING 964
SWIDTH 520 0
DWIDTH 13 0
BBX 11 13 1 0
BITMAP
FFE0
FFE0
0E00
0E00
0E00
0E00
0E00
0E00
0E00
0E00
0E00
0780
0780
ENDCHAR
STARTCHAR 03C5
ENCODING 965
SWIDTH 560 0
DWIDTH 14 0
BBX 10 13 2 0
BITMAP
C180
C1C0
C0C0
C0C0
C0C0
C0C0
C0C0
C0C0
C0C0
C1C0
E380
7F00
3E00
ENDCHAR
STARTCHAR 03C6
ENCODING 966
SWIDTH 720 0
DWIDTH 18 0
BBX 16 19 1 -6
BITMAP
10F0
31F8
718C
E18E
E186
C186
C187
C186
E186
618E
799C
3FF8
0FE0
0180
0180
0180
0180
0180
0180
ENDCHAR
STARTCHAR 03C7
ENCODING 967
SWIDTH 480 0
DWIDTH 12 0
BBX 13 18 0 -5
BITMAP
F030
7860
1860
1CC0
0CC0
0D80
0780
0700
0300
0700
0780
0D80
0DC0
18C0
18E0
3860
3078
7038
ENDCHAR
STARTCHAR 03C8
ENCODING 968
SWIDTH 720 0
DWIDTH 18 0
BBX 15 19 1 -6
BITMAP
C38C
C38E
C386
C386
C386
C386
C386
E386
E386
638E
7B9C
3FF8
0FE0
0380
0380
0380
0380
0380
0380
ENDCHAR
STARTCHAR 03C9
ENCODING 969
SWIDTH 840 0
DWIDTH 21 0
BBX 18 13 1 0
BITMAP
380380
700180
600180
6001C0
60C0C0
E0C0C0
E0C0C0
60C0C0
60C0C0
60E1C0
71E180
3FBF80
1E1E00
ENDCHAR
STARTCHAR 03CA
ENCODING 970
SWIDTH 320 0
DWIDTH 8 0
BBX 8 18 0 0
BITMAP
84
C7
C6
00
00
38
38
38
38
38
38
38
38
38
38
38
1E
0E
ENDCHAR
STARTCHAR 03CB
ENCODING 971
SWIDTH 560 0
DWIDTH 14 0
BBX 10 18 2 0
BITMAP
4200
6380
6300
0000
0000
C180
C1C0
C0C0
C0C0
C0C0
C0C0
C0C0
C0C0
C0C0
C1C0
E380
7F00
3E00
ENDCHAR
STARTCHAR 03CC
ENCODING 972
SWIDTH 560 0
DWIDTH 14 0
BBX 12 19 1 0
BITMAP
0300
0200
0600
0600
0000
0000
0F80
3FC0
70E0
6070
E030
C030
C030
C030
E030
6070
70E0
3FC0
0F80
ENDCHAR
STARTCHAR 03CD
ENCODING 973
SWIDTH 560 0
DWIDTH 14 0
BBX 10 19 2 0
BITMAP
0E00
0C00
0C00
0800
0000
0000
C180
C1C0
C0C0
C0C0
C0C0
C0C0
C0C0
C0C0
C0C0
C1C0
E380
7F00
3E00
ENDCHAR
STARTCHAR 03CE
ENCODING 974
SWIDTH 840 0
DWIDTH 21 0
BBX 18 19 1 0
BITMAP
006000
006000
004000
00C000
000000
000000
380380
700180
600180
6001C0
60C0C0
E0C0C0
E0C0C0
60C0C0
60C0C0
60E1C0
71E180
3FBF80
1E1E00
ENDCHAR
STARTCHAR 03D1
ENCODING 977
SWIDTH 560 0
DWIDTH 14 0
BBX 13 18 1 0
BITMAP
0780
0FC0
1CE0
1860
1860
1860
1C60
0C60
2F60
E3F8
E0F8
E060
E060
6060
6060
70E0
3FC0
1F00
ENDCHAR
STARTCHAR 03D2
ENCODING 978
SWIDTH 520 0
DWIDTH 13 0
BBX 14 18 0 0
BITMAP
E01C
F03C
7070
3860
18E0
18C0
1CC0
0D80
0F80
0780
0700
0300
0300
0300
0300
0300
0300
0300
ENDCHAR
STARTCHAR 03D6
ENCODING 982
SWIDTH 800 0
DWIDTH 20 0
BBX 18 13 1 0
BITMAP
FFFFC0
FFFFC0
700380
600380
60C180
60C180
60C180
60C180
60C180
61C380
71E300
3F3F00
1E1E00
ENDCHAR
STARTCHAR 0400
ENCODING 1024
SWIDTH 560 0
DWIDTH 14 0
BBX 11 23 2 0
BITMAP
3800
1C00
0C00
0600
0000
FFE0
FFE0
C000
C000
C000
C000
C000
C000
FFC0
FFC0
C000
C000
C000
C000
C000
C000
FFE0
FFE0
ENDCHAR
STARTCHAR 0401
ENCODING 1025
SWIDTH 560 0
DWIDTH 14 0
BBX 11 23 2 0
BITMAP
3100
31C0
3180
0000
0000
FFE0
FFE0
C000
C000
C000
C000
C000
C000
FFC0
FFC0
C000
C000
C000
C000
C000
C000
FFE0
FFE0
ENDCHAR
STARTCHAR 0402
ENCODING 1026
SWIDTH 760 0
DWIDTH 19 0
BBX 17 18 1 0
BITMAP
FFF800
FFF800
060000
060000
060000
060000
060000
07F800
07FE00
060700
060300
060380
060380
060380
060380
060700
061E00
061C00
ENDCHAR
STARTCHAR 0403
ENCODING 1027
SWIDTH 560 0
DWIDTH 14 0
BBX 11 23 2 0
BITMAP
0380
0300
0600
0E00
0000
FFE0
FFE0
E000
E000
E000
E000
E000
E000
E000
E000
E000
E000
E000
E000
E000
E000
E000
E000
ENDCHAR
STARTCHAR 0404
ENCODING 1028
SWIDTH 680 0
DWIDTH 17 0
BBX 14 18 1 0
BITMAP
07C0
1FF0
3838
301C
701C
600C
6000
E000
FFC0
FFC0
6000
6000
600C
701C
301C
3838
1FF0
07C0
ENDCHAR
STARTCHAR 0405
ENCODING 1029
SWIDTH 600 0
DWIDTH 15 0
BBX 13 18 1 0
BITMAP
0F80
3FE0
7070
6030
6038
6000
7000
3C00
1F80
07E0
00F0
0038
0038
C018
E038
7070
3FE0
0FC0
ENDCHAR
STARTCHAR 0406
ENCODING 1030
SWIDTH 280 0
DWIDTH 7 0
BBX 3 18 2 0
BITMAP
E0
E0
E0
E0
E0
E0
E0
E0
E0
E0
E0
E0
E0
E0
E0
E0
E0
E0
ENDCHAR
STARTCHAR 0407
ENCODING 1031
SWIDTH 280 0
DWIDTH 7 0
BBX 8 23 -1 0
BITMAP
43
E3
63
00
00
1C
1C
1C
1C
1C
1C
1C
1C
1C
1C
1C
1C
1C
1C
1C
1C
1C
1C
ENDCHAR
STARTCHAR 0408
ENCODING 1032
SWIDTH 560 0
DWIDTH 14 0
BBX 11 18 1 0
BITMAP
0060
0060
0060
0060
0060
0060
0060
0060
0060
0060
0060
0060
0060
C0E0
C0E0
E1C0
7F80
3F00
ENDCHAR
STARTCHAR 0409
ENCODING 1033
SWIDTH 1080 0
DWIDTH 27 0
BBX 25 18 1 0
BITMAP
0FFC0000
0FFC0000
1C0C0000
1C0C0000
1C0C0000
1C0C0000
1C0C0000
1C0FF800
1C0FFE00
180C0700
180C0300
180C0380
180C0380
180C0380
380C0300
300C0700
F00FFE00
E00FF800
ENDCHAR
STARTCHAR 040A
ENCODING 1034
SWIDTH 1080 0
DWIDTH 27 0
BBX 24 18 2 0
BITMAP
E01C00
E01C00
E01C00
E01C00
E01C00
E01C00
E01C00
E01C00
FFFFF8
FFFFFC
E01C0E
E01C07
E01C03
E01C03
E01C07
E01C0E
E01FFC
E01FF8
ENDCHAR
STARTCHAR 040B
ENCODING 1035
SWIDTH 800 0
DWIDTH 20 0
BBX 17 18 1 0
BITMAP
FFFC00
FFFC00
060000
060000
060000
060000
060000
07FC00
07FF00
060380
060380
060180
060180
060180
060180
060180
060180
060180
ENDCHAR
STARTCHAR 040C
ENCODING 1036
SWIDTH 640 0
DWIDTH 16 0
BBX 14 23 2 0
BITMAP
0380
0700
0600
0C00
0000
C038
C070
C0E0
C1C0
C380
C700
C600
CE00
DE00
FE00
F700
E380
C1C0
C1C0
C0E0
C070
C038
C03C
ENDCHAR
STARTCHAR 040D
ENCODING 1037
SWIDTH 720 0
DWIDTH 18 0
BBX 14 23 2 0
BITMAP
1C00
0E00
0700
0300
0000
E01C
E03C
E03C
E07C
E0FC
E0DC
E1DC
E19C
E39C
E71C
E61C
EE1C
FC1C
F81C
F81C
F01C
E01C
E01C
ENDCHAR
STARTCHAR 040E
ENCODING 1038
SWIDTH 640 0
DWIDTH 16 0
BBX 14 22 1 0
BITMAP
1860
0FC0
0780
0000
E01C
6018
7038
3038
3870
3870
1860
1CE0
0CC0
0FC0
07C0
0780
0380
0300
0700
0600
3E00
3C00
ENDCHAR
STARTCHAR 040F
ENCODING 1039
SWIDTH 720 0
DWIDTH 18 0
BBX 14 22 2 -4
BITMAP
E01C
E01C
E01C
E01C
E01C
E01C
E01C
E01C
E01C
E01C
E01C
E01C
E01C
E01C
E01C
E01C
FFFC
FFFC
0300
0300
0300
0300
ENDCHAR
STARTCHAR 0410
ENCODING 1040
SWIDTH 640 0
DWIDTH 16 0
BBX 16 18 0 0
BITMAP
0180
01C0
03C0
03E0
0760
0660
0670
0C30
0C30
0C18
1818
1FFC
3FFC
300C
300E
7006
6006
E007
ENDCHAR
STARTCHAR 0411
ENCODING 1041
SWIDTH 640 0
DWIDTH 16 0
BBX 13 18 2 0
BITMAP
FFE0
FFE0
C000
C000
C000
C000
C000
FFC0
FFE0
C070
C030
C038
C038
C038
C030
C070
FFE0
FFC0
ENDCHAR
STARTCHAR 0412
ENCODING 1042
SWIDTH 640 0
DWIDTH 16 0
BBX 12 18 2 0
BITMAP
FF80
FFC0
C0E0
C070
C070
C070
C060
C0E0
FFC0
FFC0
C060
C030
C030
C030
C070
C0F0
FFE0
FF80
ENDCHAR
STARTCHAR 0413
ENCODING 1043
SWIDTH 560 0
DWIDTH 14 0
BBX 11 18 2 0
BITMAP
FFE0
FFE0
E000
E000
E000
E000
E000
E000
E000
E000
E000
E000
E000
E000
E000
E000
E000
E000
ENDCHAR
STARTCHAR 0414
ENCODING 1044
SWIDTH 760 0
DWIDTH 19 0
BBX 17 22 1 -4
BITMAP
0FFE00
0FFE00
0C0E00
0C0E00
0C0E00
0C0E00
0C0E00
0C0E00
0C0E00
0C0E00
1C0E00
1C0E00
180E00
180E00
380E00
700E00
FFFF80
FFFF80
C00180
C00180
C00180
C00180
ENDCHAR
STARTCHAR 0415
ENCODING 1045
SWIDTH 560 0
DWIDTH 14 0
BBX 11 18 2 0
BITMAP
FFE0
FFE0
C000
C000
C000
C000
C000
C000
FFC0
FFC0
C000
C000
C000
C000
C000
C000
FFE0
FFE0
ENDCHAR
STARTCHAR 0416
ENCODING 1046
SWIDTH 920 0
DWIDTH 23 0
BBX 23 18 0 0
BITMAP
70381C
303838
383830
1C3870
0C3860
0E38E0
0639C0
033980
03FF80
03FF80
0739C0
0E38C0
0E38E0
1C3870
183870
383838
70381C
F0381E
ENDCHAR
STARTCHAR 0417
ENCODING 1047
SWIDTH 600 0
DWIDTH 15 0
BBX 13 18 1 0
BITMAP
0F80
3FE0
7070
E030
E038
0038
0030
0070
0FC0
0FE0
0070
0038
0038
C038
E038
7070
3FE0
1F80
ENDCHAR
STARTCHAR 0418
ENCODING 1048
SWIDTH 720 0
DWIDTH 18 0
BBX 14 18 2 0
BITMAP
E01C
E03C
E03C
E07C
E0FC
E0DC
E1DC
E19C
E39C
E71C
E61C
EE1C
FC1C
F81C
F81C
F01C
E01C
E01C
ENDCHAR
STARTCHAR 0419
ENCODING 1049
SWIDTH 720 0
DWIDTH 18 0
BBX 14 22 2 0
BITMAP
1860
0FC0
0780
0000
E01C
E03C
E03C
E07C
E0FC
E0DC
E1DC
E19C
E39C
E71C
E61C
EE1C
FC1C
F81C
F81C
F01C
E01C
E01C
ENDCHAR
STARTCHAR 041A
ENCODING 1050
SWIDTH 640 0
DWIDTH 16 0
BBX 14 18 2 0
BITMAP
E038
E070
E0E0
E1C0
E1C0
E380
E700
FE00
FE00
E700
E380
E380
E1C0
E0E0
E060
E070
E038
E01C
ENDCHAR
STARTCHAR 041B
ENCODING 1051
SWIDTH 720 0
DWIDTH 18 0
BBX 15 18 1 0
BITMAP
0FFE
1FFE
1C0E
1C0E
1C0E
1C0E
1C0E
1C0E
1C0E
180E
180E
180E
180E
180E
380E
300E
F00E
E00E
ENDCHAR
STARTCHAR 041C
ENCODING 1052
SWIDTH 880 0
DWIDTH 22 0
BBX 18 18 2 0
BITMAP
E001C0
F003C0
F003C0
F007C0
D806C0
D806C0
DC0CC0
CC0DC0
CC1DC0
C619C0
C619C0
C731C0
C331C0
C371C0
C1E1C0
C1E1C0
C1C1C0
C0C1C0
ENDCHAR
STARTCHAR 041D
ENCODING 1053
SWIDTH 720 0
DWIDTH 18 0
BBX 14 18 2 0
BITMAP
C01C
C01C
C01C
C01C
C01C
C01C
C01C
C01C
FFFC
FFFC
C01C
C01C
C01C
C01C
C01C
C01C
C01C
C01C
ENDCHAR
STARTCHAR 041E
ENCODING 1054
SWIDTH 680 0
DWIDTH 17 0
BBX 15 18 1 0
BITMAP
07C0
1FF0
3838
301C
700C
600C
600E
E00E
E00E
E00E
E00E
600E
600C
700C
301C
3838
1FF0
07C0
ENDCHAR
STARTCHAR 041F
ENCODING 1055
SWIDTH 720 0
DWIDTH 18 0
BBX 14 18 2 0
BITMAP
FFFC
FFFC
E01C
E01C
E01C
E01C
E01C
E01C
E01C
E01C
E01C
E01C
E01C
E01C
E01C
E01C
E01C
E01C
ENDCHAR
STARTCHAR 0420
ENCODING 1056
SWIDTH 640 0
DWIDTH 16 0
BBX 13 18 2 0
BITMAP
FFC0
FFE0
C070
C038
C038
C038
C038
C038
C070
FFE0
FF80
C000
C000
C000
C000
C000
C000
C000
ENDCHAR
STARTCHAR 0421
ENCODING 1057
SWIDTH 640 0
DWIDTH 16 0
BBX 14 18 1 0
BITMAP
07C0
1FF0
3838
701C
701C
600C
6000
E000
E000
E000
E000
6000
600C
601C
701C
3838
1FF0
07C0
ENDCHAR
STARTCHAR 0422
ENCODING 1058
SWIDTH 600 0
DWIDTH 15 0
BBX 13 18 1 0
BITMAP
FFF8
FFF8
0700
0700
0700
0700
0700
0700
0700
0700
0700
0700
0700
0700
0700
0700
0700
0700
ENDCHAR
STARTCHAR 0423
ENCODING 1059
SWIDTH 640 0
DWIDTH 16 0
BBX 14 18 1 0
BITMAP
E01C
6018
7038
3038
3870
3870
1860
1CE0
0CC0
0FC0
07C0
0780
0380
0300
0700
0600
3E00
3C00
ENDCHAR
STARTCHAR 0424
ENCODING 1060
SWIDTH 760 0
DWIDTH 19 0
BBX 17 20 1 -1
BITMAP
00C000
00C000
00C000
0FF800
1FFE00
38C700
60C300
60C180
C0C180
C0C180
C0C180
C0C180
C0C180
60C180
60C300
38C700
1FFE00
0FF800
00C000
00C000
ENDCHAR
STARTCHAR 0425
ENCODING 1061
SWIDTH 640 0
DWIDTH 16 0
BBX 14 18 1 0
BITMAP
E01C
7038
7030
3870
18E0
1CC0
0FC0
0780
0780
0780
0F80
0FC0
1CE0
18E0
3870
7030
6038
E01C
ENDCHAR
STARTCHAR 0426
ENCODING 1062
SWIDTH 720 0
DWIDTH 18 0
BBX 15 22 2 -4
BITMAP
E01C
E01C
E01C
E01C
E01C
E01C
E01C
E01C
E01C
E01C
E01C
E01C
E01C
E01C
E01C
E01C
FFFE
FFFE
0006
0006
0006
0006
ENDCHAR
STARTCHAR 0427
ENCODING 1063
SWIDTH 680 0
DWIDTH 17 0
BBX 13 18 2 0
BITMAP
C018
C018
C018
C018
C018
C018
C018
E018
E038
7FF8
1FD8
0018
0018
0018
0018
0018
0018
0018
ENDCHAR
STARTCHAR 0428
ENCODING 1064
SWIDTH 960 0
DWIDTH 24 0
BBX 19 18 2 0
BITMAP
E06060
E06060
E06060
E06060
E06060
E06060
E06060
E06060
E06060
E06060
E06060
E06060
E06060
E06060
E06060
E06060
FFFFE0
FFFFE0
ENDCHAR
STARTCHAR 0429
ENCODING 1065
SWIDTH 960 0
DWIDTH 24 0
BBX 21 22 2 -4
BITMAP
E06060
E06060
E06060
E06060
E06060
E06060
E06060
E06060
E06060
E06060
E06060
E06060
E06060
E06060
E06060
E06060
FFFFF8
FFFFF8
000018
000018
000018
000018
ENDCHAR
STARTCHAR 042A
ENCODING 1066
SWIDTH 760 0
DWIDTH 19 0
BBX 18 18 0 0
BITMAP
FF0000
FF0000
070000
070000
070000
070000
070000
07FE00
07FF00
070380
0701C0
0701C0
0701C0
0701C0
0701C0
070380
07FF00
07FE00
ENDCHAR
STARTCHAR 042B
ENCODING 1067
SWIDTH 880 0
DWIDTH 22 0
BBX 17 18 2 0
BITMAP
E00180
E00180
E00180
E00180
E00180
E00180
E00180
FFC180
FFE180
E07180
E03980
E03980
E03980
E03980
E03980
E07180
FFE180
FFC180
ENDCHAR
STARTCHAR 042C
ENCODING 1068
SWIDTH 640 0
DWIDTH 16 0
BBX 13 18 2 0
BITMAP
C000
C000
C000
C000
C000
C000
C000
FFC0
FFE0
C070
C030
C038
C038
C038
C030
C070
FFE0
FFC0
ENDCHAR
STARTCHAR 042D
ENCODING 1069
SWIDTH 680 0
DWIDTH 17 0
BBX 13 18 2 0
BITMAP
0F80
3FE0
7070
E030
C038
C018
0018
0018
0FF8
0FF8
0018
0018
C018
C038
E030
7070
3FE0
0F80
ENDCHAR
STARTCHAR 042E
ENCODING 1070
SWIDTH 880 0
DWIDTH 22 0
BBX 19 18 2 0
BITMAP
E03E00
E0FF80
E1C3C0
E380C0
E300E0
E70060
E70060
E60060
FE0060
FE0060
E60060
E70060
E70060
E300E0
E380C0
E1C3C0
E0FF80
E03E00
ENDCHAR
STARTCHAR 042F
ENCODING 1071
SWIDTH 640 0
DWIDTH 16 0
BBX 13 18 1 0
BITMAP
0FF8
3FF8
7838
7038
6038
6038
6038
7038
3838
1FF8
0FF8
0C38
1838
3838
3038
7038
6038
E038
ENDCHAR
STARTCHAR 0430
ENCODING 1072
SWIDTH 560 0
DWIDTH 14 0
BBX 11 13 1 0
BITMAP
1F00
3FC0
60C0
60E0
0060
1FE0
7FE0
6060
E060
E0E0
61E0
7FE0
3E60
ENDCHAR
STARTCHAR 0431
ENCODING 1073
SWIDTH 560 0
DWIDTH 14 0
BBX 12 19 1 0
BITMAP
0060
00E0
0FC0
1E00
3000
6000
6F80
5FC0
F0E0
E070
E030
C030
C030
E030
E070
6060
70E0
3FC0
0F80
ENDCHAR
STARTCHAR 0432
ENCODING 1074
SWIDTH 560 0
DWIDTH 14 0
BBX 11 13 2 0
BITMAP
FF00
FFC0
C0C0
C0E0
C0C0
FF80
FFC0
C0E0
C060
C060
C0E0
FFC0
FF80
ENDCHAR
STARTCHAR 0433
ENCODING 1075
SWIDTH 400 0
DWIDTH 10 0
BBX 8 13 2 0
BITMAP
FF
FF
C0
C0
C0
C0
C0
C0
C0
C0
C0
C0
C0
ENDCHAR
STARTCHAR 0434
ENCODING 1076
SWIDTH 600 0
DWIDTH 15 0
BBX 13 17 1 -4
BITMAP
1FF0
1FF0
1870
1870
1870
1870
1870
1870
3870
3070
7070
FFF8
FFF8
C018
C018
C018
C018
ENDCHAR
STARTCHAR 0435
ENCODING 1077
SWIDTH 520 0
DWIDTH 13 0
BBX 11 13 1 0
BITMAP
0F00
3FC0
70E0
6060
E060
FFE0
FFE0
E000
E000
6000
7060
3FC0
0F80
ENDCHAR
STARTCHAR 0436
ENCODING 1078
SWIDTH 760 0
DWIDTH 19 0
BBX 19 13 0 0
BITMAP
70E1C0
30E180
18E380
1CE700
0EE600
07FC00
07FC00
0EE600
1CE700
18E300
38E380
70E1C0
E0E0E0
ENDCHAR
STARTCHAR 0437
ENCODING 1079
SWIDTH 520 0
DWIDTH 13 0
BBX 10 13 1 0
BITMAP
1F00
7FC0
E0C0
00C0
01C0
1F80
1F80
00C0
00C0
C0C0
E1C0
7FC0
1F00
ENDCHAR
STARTCHAR 0438
ENCODING 1080
SWIDTH 560 0
DWIDTH 14 0
BBX 11 13 2 0
BITMAP
C0E0
C1E0
C1E0
C3E0
C7E0
C6E0
CCE0
DCE0
D8E0
F0E0
F0E0
E0E0
E0E0
ENDCHAR
STARTCHAR 0439
ENCODING 1081
SWIDTH 560 0
DWIDTH 14 0
BBX 11 18 2 0
BITMAP
2180
3F00
1E00
0000
0000
C0E0
C1E0
C1E0
C3E0
C7E0
C6E0
CCE0
DCE0
D8E0
F0E0
F0E0
E0E0
E0E0
ENDCHAR
STARTCHAR 043A
ENCODING 1082
SWIDTH 560 0
DWIDTH 14 0
BBX 11 13 2 0
BITMAP
C0E0
C180
C380
C700
CE00
FC00
FC00
CE00
C700
C380
C380
C1C0
C0E0
ENDCHAR
STARTCHAR 043B
ENCODING 1083
SWIDTH 560 0
DWIDTH 14 0
BBX 12 13 1 0
BITMAP
1FF0
1FF0
3870
3870
3870
3870
3870
3070
3070
3070
7070
E070
C070
ENDCHAR
STARTCHAR 043C
ENCODING 1084
SWIDTH 760 0
DWIDTH 19 0
BBX 15 13 2 0
BITMAP
E00E
F01E
F01E
F03E
D83E
D87E
CC6E
CCEE
C6CE
C6CE
C78E
C38E
C30E
ENDCHAR
STARTCHAR 043D
ENCODING 1085
SWIDTH 560 0
DWIDTH 14 0
BBX 11 13 2 0
BITMAP
C0E0
C0E0
C0E0
C0E0
C0E0
FFE0
FFE0
C0E0
C0E0
C0E0
C0E0
C0E0
C0E0
ENDCHAR
STARTCHAR 043E
ENCODING 1086
SWIDTH 560 0
DWIDTH 14 0
BBX 12 13 1 0
BITMAP
0F80
3FC0
70E0
6070
E030
C030
C030
C030
E030
6070
70E0
3FC0
0F80
ENDCHAR
STARTCHAR 043F
ENCODING 1087
SWIDTH 560 0
DWIDTH 14 0
BBX 11 13 2 0
BITMAP
FFE0
FFE0
C0E0
C0E0
C0E0
C0E0
C0E0
C0E0
C0E0
C0E0
C0E0
C0E0
C0E0
ENDCHAR
STARTCHAR 0440
ENCODING 1088
SWIDTH 560 0
DWIDTH 14 0
BBX 11 18 2 -5
BITMAP
DF00
FF80
E1C0
C0C0
C0E0
C060
C060
C060
C0E0
C0C0
E1C0
FF80
DF00
C000
C000
C000
C000
C000
ENDCHAR
STARTCHAR 0441
ENCODING 1089
SWIDTH 520 0
DWIDTH 13 0
BBX 11 13 1 0
BITMAP
1F00
3FC0
70E0
6060
E060
C000
C000
C000
E000
6060
70E0
3FC0
1F00
ENDCHAR
STARTCHAR 0442
ENCODING 1090
SWIDTH 480 0
DWIDTH 12 0
BBX 12 13 0 0
BITMAP
FFF0
FFF0
0600
0600
0600
0600
0600
0600
0600
0600
0600
0600
0600
ENDCHAR
STARTCHAR 0443
ENCODING 1091
SWIDTH 480 0
DWIDTH 12 0
BBX 12 18 0 -5
BITMAP
E070
6060
70E0
30C0
30C0
39C0
1980
1980
1F80
0F00
0F00
0600
0600
0600
0C00
0C00
7800
7000
ENDCHAR
STARTCHAR 0444
ENCODING 1092
SWIDTH 720 0
DWIDTH 18 0
BBX 16 24 1 -5
BITMAP
0180
0180
0180
0180
0180
0180
1FF8
3FFC
718E
6186
E187
E183
C183
C183
E187
6187
718E
3FFE
1FF8
0180
0180
0180
0180
0180
ENDCHAR
STARTCHAR 0445
ENCODING 1093
SWIDTH 480 0
DWIDTH 12 0
BBX 12 13 0 0
BITMAP
7070
30E0
38C0
1980
0F80
0F00
0600
0F00
0F80
1980
38C0
30E0
E070
ENDCHAR
STARTCHAR 0446
ENCODING 1094
SWIDTH 600 0
DWIDTH 15 0
BBX 12 17 2 -4
BITMAP
C0E0
C0E0
C0E0
C0E0
C0E0
C0E0
C0E0
C0E0
C0E0
C0E0
C0E0
FFF0
FFF0
0030
0030
0030
0030
ENDCHAR
STARTCHAR 0447
ENCODING 1095
SWIDTH 560 0
DWIDTH 14 0
BBX 11 13 1 0
BITMAP
E0E0
E0E0
E0E0
E0E0
E0E0
E0E0
70E0
7FE0
1FE0
00E0
00E0
00E0
00E0
ENDCHAR
STARTCHAR 0448
ENCODING 1096
SWIDTH 800 0
DWIDTH 20 0
BBX 16 13 2 0
BITMAP
C183
C183
C183
C183
C183
C183
C183
C183
C183
C183
C183
FFFF
FFFF
ENDCHAR
STARTCHAR 0449
ENCODING 1097
SWIDTH 840 0
DWIDTH 21 0
BBX 18 17 2 -4
BITMAP
C18300
C18300
C18300
C18300
C18300
C18300
C18300
C18300
C18300
C18300
C18300
FFFFC0
FFFFC0
0000C0
0000C0
0000C0
0000C0
ENDCHAR
STARTCHAR 044A
ENCODING 1098
SWIDTH 640 0
DWIDTH 16 0
BBX 15 13 0 0
BITMAP
FE00
FE00
0E00
0E00
0FF0
0FFC
0E0C
0E0E
0E06
0E0E
0E0C
0FFC
0FF0
ENDCHAR
STARTCHAR 044B
ENCODING 1099
SWIDTH 760 0
DWIDTH 19 0
BBX 15 13 2 0
BITMAP
C006
C006
C006
C006
FF06
FF86
C1C6
C0C6
C0C6
C0C6
C1C6
FF86
FF06
ENDCHAR
STARTCHAR 044C
ENCODING 1100
SWIDTH 560 0
DWIDTH 14 0
BBX 10 13 2 0
BITMAP
C000
C000
C000
C000
FF00
FF80
C1C0
C0C0
C0C0
C0C0
C1C0
FF80
FF00
ENDCHAR
STARTCHAR 044D
ENCODING 1101
SWIDTH 520 0
DWIDTH 13 0
BBX 11 13 1 0
BITMAP
1F00
7F80
61C0
C0E0
0060
0FE0
0FE0
0060
C060
E0E0
61C0
7F80
1F00
ENDCHAR
STARTCHAR 044E
ENCODING 1102
SWIDTH 800 0
DWIDTH 20 0
BBX 17 13 2 0
BITMAP
C07C00
C1FE00
C38700
C30380
C70180
FF0180
FF0180
C70180
C30180
C30380
C18700
C1FE00
C07C00
ENDCHAR
STARTCHAR 044F
ENCODING 1103
SWIDTH 560 0
DWIDTH 14 0
BBX 11 13 1 0
BITMAP
1FE0
7FE0
6060
E060
E060
6060
7FE0
1FE0
3860
3060
7060
E060
C060
ENDCHAR
STARTCHAR 0450
ENCODING 1104
SWIDTH 520 0
DWIDTH 13 0
BBX 11 19 1 0
BITMAP
3800
1C00
0E00
0600
0000
0000
0F00
3FC0
70E0
6060
E060
FFE0
FFE0
E000
E000
6000
7060
3FC0
0F80
ENDCHAR
STARTCHAR 0451
ENCODING 1105
SWIDTH 520 0
DWIDTH 13 0
BBX 11 18 1 0
BITMAP
1080
39C0
31C0
0000
0000
0F00
3FC0
70E0
6060
E060
FFE0
FFE0
E000
E000
6000
7060
3FC0
0F80
ENDCHAR
STARTCHAR 0452
ENCODING 1106
SWIDTH 560 0
DWIDTH 14 0
BBX 12 24 0 -5
BITMAP
3000
3000
FE00
FE00
3000
3000
33C0
3FE0
3870
3030
3030
3030
3030
3030
3030
3030
3030
3030
3030
0030
0030
0070
01E0
01C0
ENDCHAR
STARTCHAR 0453
ENCODING 1107
SWIDTH 400 0
DWIDTH 10 0
BBX 8 19 2 0
BITMAP
0E
1C
18
30
00
00
FF
FF
C0
C0
C0
C0
C0
C0
C0
C0
C0
C0
C0
ENDCHAR
STARTCHAR 0454
ENCODING 1108
SWIDTH 520 0
DWIDTH 13 0
BBX 11 13 1 0
BITMAP
0F80
3FC0
70E0
6060
E000
FE00
FE00
E000
E000
6060
70E0
3FC0
0F80
ENDCHAR
STARTCHAR 0455
ENCODING 1109
SWIDTH 520 0
DWIDTH 13 0
BBX 11 13 1 0
BITMAP
1F00
3F80
61C0
60C0
6020
7C00
1F80
03C0
00E0
E0E0
60C0
7FC0
1F00
ENDCHAR
STARTCHAR 0456
ENCODING 1110
SWIDTH 240 0
DWIDTH 6 0
BBX 2 18 2 0
BITMAP
80
C0
C0
00
00
C0
C0
C0
C0
C0
C0
C0
C0
C0
C0
C0
C0
C0
ENDCHAR
STARTCHAR 0457
ENCODING 1111
SWIDTH 240 0
DWIDTH 6 0
BBX 8 18 -1 0
BITMAP
42
E7
E3
00
00
18
18
18
18
18
18
18
18
18
18
18
18
18
ENDCHAR
STARTCHAR 0458
ENCODING 1112
SWIDTH 240 0
DWIDTH 6 0
BBX 5 23 -1 -5
BITMAP
10
18
18
00
00
18
18
18
18
18
18
18
18
18
18
18
18
18
18
18
38
F8
F0
ENDCHAR
STARTCHAR 0459
ENCODING 1113
SWIDTH 840 0
DWIDTH 21 0
BBX 20 13 0 0
BITMAP
0FF000
1FF000
1C3000
1C3000
1C3000
1C3FC0
183FE0
183070
183030
183030
383070
F03FE0
E03FC0
ENDCHAR
STARTCHAR 045A
ENCODING 1114
SWIDTH 880 0
DWIDTH 22 0
BBX 19 13 2 0
BITMAP
C0E000
C0E000
C0E000
C0E000
C0E000
FFFF00
FFFFC0
C0E0C0
C0E0E0
C0E0E0
C0E0C0
C0FFC0
C0FF00
ENDCHAR
STARTCHAR 045B
ENCODING 1115
SWIDTH 560 0
DWIDTH 14 0
BBX 12 19 0 0
BITMAP
3000
3000
FF00
FF00
3000
3000
33C0
3FE0
3870
3030
3030
3030
3030
3030
3030
3030
3030
3030
3030
ENDCHAR
STARTCHAR 045C
ENCODING 1116
SWIDTH 560 0
DWIDTH 14 0
BBX 11 19 2 0
BITMAP
0700
0600
0C00
1C00
0000
0000
C0E0
C180
C380
C700
CE00
FC00
FC00
CE00
C700
C380
C380
C1C0
C0E0
ENDCHAR
STARTCHAR 045D
ENCODING 1117
SWIDTH 560 0
DWIDTH 14 0
BBX 11 19 2 0
BITMAP
7000
1800
1C00
0C00
0000
0000
C0E0
C1E0
C1E0
C3E0
C7E0
C6E0
CCE0
DCE0
D8E0
F0E0
F0E0
E0E0
E0E0
ENDCHAR
STARTCHAR 045E
ENCODING 1118
SWIDTH 480 0
DWIDTH 12 0
BBX 12 23 0 -5
BITMAP
10C0
1F80
0F00
0000
0000
E070
6060
70E0
30C0
30C0
39C0
1980
1980
1F80
0F00
0F00
0600
0600
0600
0C00
0C00
7800
7000
ENDCHAR
STARTCHAR 045F
ENCODING 1119
SWIDTH 560 0
DWIDTH 14 0
BBX 11 17 2 -4
BITMAP
C0E0
C0E0
C0E0
C0E0
C0E0
C0E0
C0E0
C0E0
C0E0
C0E0
C0E0
FFE0
FFE0
0C00
0C00
0C00
0C00
ENDCHAR
STARTCHAR 0460
ENCODING 1120
SWIDTH 880 0
DWIDTH 22 0
BBX 18 18 2 0
BITMAP
C0C0C0
C0C0C0
C0C0C0
C0C0C0
C0C0C0
C0C0C0
C0C0C0
C0C0C0
C0C0C0
C0C0C0
C0C0C0
C0C0C0
C0C0C0
C0C0C0
E0E0C0
E1E1C0
7FFF80
3E1F00
ENDCHAR
STARTCHAR 0461
ENCODING 1121
SWIDTH 760 0
DWIDTH 19 0
BBX 16 13 2 0
BITMAP
C187
C187
C187
C187
C187
C187
C187
C187
C187
C387
C386
FEFE
3C78
ENDCHAR
STARTCHAR 0462
ENCODING 1122
SWIDTH 640 0
DWIDTH 16 0
BBX 16 18 -1 0
BITMAP
1800
1800
FF00
FF00
1800
1800
1800
1FF8
1FFC
180E
1806
1807
1807
1807
1806
180E
1FFC
1FF8
ENDCHAR
STARTCHAR 0463
ENCODING 1123
SWIDTH 560 0
DWIDTH 14 0
BBX 12 19 0 0
BITMAP
3000
3000
3000
3000
FF00
FF00
3000
3000
3000
3000
3FC0
3FE0
3070
3030
3030
3030
3070
3FE0
3FC0
ENDCHAR
STARTCHAR 0464
ENCODING 1124
SWIDTH 880 0
DWIDTH 22 0
BBX 19 18 2 0
BITMAP
E07E00
E0FF80
E1C3C0
E380C0
E300C0
E700E0
E70000
E60000
FFFC00
FFFC00
E60000
E60000
E700E0
E300C0
E380C0
E1C1C0
E0FF80
E07E00
ENDCHAR
STARTCHAR 0465
ENCODING 1125
SWIDTH 760 0
DWIDTH 19 0
BBX 16 13 2 0
BITMAP
C0F8
C3FC
C70E
C607
C600
FFF0
FFF0
C600
C600
C607
C30E
C3FC
C0F8
ENDCHAR
STARTCHAR 0466
ENCODING 1126
SWIDTH 600 0
DWIDTH 15 0
BBX 15 18 0 0
BITMAP
0180
03C0
03C0
03C0
07E0
0660
0660
0E70
0C30
1C30
1C38
1FF8
3FF8
399C
318C
718C
618E
E186
ENDCHAR
STARTCHAR 0467
ENCODING 1127
SWIDTH 520 0
DWIDTH 13 0
BBX 13 13 0 0
BITMAP
0700
0700
0780
0D80
0D80
1DC0
18C0
38E0
3FE0
3FE0
7770
6730
E738
ENDCHAR
STARTCHAR 0468
ENCODING 1128
SWIDTH 880 0
DWIDTH 22 0
BBX 20 18 2 0
BITMAP
E01C00
E01C00
E03C00
E03E00
E03600
E07600
E06700
E06300
E0E300
E0C380
E0C180
FFFF80
FFFFC0
E198C0
E398E0
E318E0
E31860
E71870
ENDCHAR
STARTCHAR 0469
ENCODING 1129
SWIDTH 760 0
DWIDTH 19 0
BBX 16 13 2 0
BITMAP
E060
E0F0
E0F0
E0F0
E198
E198
E39C
E30C
FFFE
FFFE
E666
EE67
EC63
ENDCHAR
STARTCHAR 046A
ENCODING 1130
SWIDTH 840 0
DWIDTH 21 0
BBX 18 18 2 0
BITMAP
7FFF00
3FFE00
1C0E00
1C1C00
0E1800
063800
073000
037000
1FFE00
7FFF00
E0C380
C0C180
C0C180
C0C1C0
C0C1C0
C0C1C0
C0C1C0
C0C1C0
ENDCHAR
STARTCHAR 046B
ENCODING 1131
SWIDTH 720 0
DWIDTH 18 0
BBX 15 13 2 0
BITMAP
7FF8
3FF0
1870
1C60
0CC0
06C0
3FF0
7FF8
E31C
C30C
C30E
C30E
C30E
ENDCHAR
STARTCHAR 046C
ENCODING 1132
SWIDTH 1120 0
DWIDTH 28 0
BBX 24 18 2 0
BITMAP
E0FFFE
E07FFC
E03018
E03838
E01C30
E00C70
E00E60
E006E0
FFFFF8
FFFFFE
E1C387
E18383
E18383
E18383
E18383
E18383
E18383
E18383
ENDCHAR
STARTCHAR 046D
ENCODING 1133
SWIDTH 960 0
DWIDTH 24 0
BBX 21 13 2 0
BITMAP
C1FFE0
C0FFC0
C061C0
C07180
C03380
C01B00
FFFFC0
FFFFE0
C38C70
C30C30
C30C38
C30C38
C30C38
ENDCHAR
STARTCHAR 046E
ENCODING 1134
SWIDTH 520 0
DWIDTH 13 0
BBX 10 28 1 -5
BITMAP
3180
1B00
0E00
0000
0000
7E00
7F80
01C0
00C0
00C0
00C0
00C0
0380
3F00
3F80
01C0
00C0
00C0
00C0
00C0
01C0
3F80
FE00
C000
C000
E000
7000
3000
ENDCHAR
STARTCHAR 046F
ENCODING 1135
SWIDTH 480 0
DWIDTH 12 0
BBX 10 24 1 -5
BITMAP
6300
3600
1C00
0000
0000
0000
7E00
7F80
0180
01C0
0180
3F00
3F80
0180
01C0
01C0
0180
3F80
FE00
C000
C000
E000
7000
2000
ENDCHAR
STARTCHAR 0470
ENCODING 1136
SWIDTH 680 0
DWIDTH 17 0
BBX 15 18 1 0
BITMAP
C386
C386
C386
C386
C386
C386
C386
C386
E38E
E38E
739C
3BBC
1FF8
0FE0
0380
0380
0380
0380
ENDCHAR
STARTCHAR 0471
ENCODING 1137
SWIDTH 720 0
DWIDTH 18 0
BBX 15 19 1 -6
BITMAP
C38C
C38E
C386
C386
C386
C386
C386
E386
E386
638E
7B9C
3FF8
0FE0
0380
0380
0380
0380
0380
0380
ENDCHAR
STARTCHAR 0472
ENCODING 1138
SWIDTH 680 0
DWIDTH 17 0
BBX 15 18 1 0
BITMAP
07C0
1FF0
3838
7018
601C
600C
E00C
E00C
FFFE
FFFE
E00E
E00C
600C
601C
7018
3838
1FF0
07C0
ENDCHAR
STARTCHAR 0473
ENCODING 1139
SWIDTH 560 0
DWIDTH 14 0
BBX 12 13 1 0
BITMAP
0F80
3FC0
70E0
6070
E030
FFF0
FFF0
C030
E070
6070
70E0
3FC0
0F80
ENDCHAR
STARTCHAR 0474
ENCODING 1140
SWIDTH 640 0
DWIDTH 16 0
BBX 15 18 0 0
BITMAP
E006
600E
701C
7018
3018
3838
3830
1830
1C70
0C60
0C60
0CE0
06C0
06C0
06C0
0380
0380
0380
ENDCHAR
STARTCHAR 0475
ENCODING 1141
SWIDTH 520 0
DWIDTH 13 0
BBX 12 13 1 0
BITMAP
C070
C0E0
E1C0
6180
6180
3180
3300
3300
1B00
1E00
1E00
0C00
0C00
ENDCHAR
STARTCHAR 0476
ENCODING 1142
SWIDTH 640 0
DWIDTH 16 0
BBX 15 22 0 0
BITMAP
7F00
1D80
0EC0
0000
E006
600E
701C
7018
3018
3838
3830
1830
1C70
0C60
0C60
0CE0
06C0
06C0
06C0
0380
0380
0380
ENDCHAR
STARTCHAR 0477
ENCODING 1143
SWIDTH 520 0
DWIDTH 13 0
BBX 13 18 0 0
BITMAP
EE00
3B00
1D80
0000
0000
6038
6070
70E0
30C0
30C0
18C0
1980
1980
0D80
0F00
0F00
0600
0600
ENDCHAR
STARTCHAR 0478
ENCODING 1144
SWIDTH 1160 0
DWIDTH 29 0
BBX 28 23 1 -5
BITMAP
07C00000
1FF00000
38380000
301C0000
700C0000
600CE070
600E6060
E00E70E0
E00E30C0
E00E30C0
E00E38C0
600E1980
600C1980
700C0D80
301C0F00
38380F00
1FF00700
07C00600
00000600
00000E00
00000C00
00007800
00007000
ENDCHAR
STARTCHAR 0479
ENCODING 1145
SWIDTH 1040 0
DWIDTH 26 0
BBX 25 18 1 -5
BITMAP
0F830380
3FC38300
70E38300
60718700
E031C600
C030C600
C030CC00
C030EC00
E0306C00
60707800
70E07800
3FC03800
0F803000
00003000
00003000
00006000
0003E000
00038000
ENDCHAR
STARTCHAR 047A
ENCODING 1146
SWIDTH 680 0
DWIDTH 17 0
BBX 15 21 1 -2
BITMAP
0380
07C0
1FF0
3BB8
7018
601C
600C
E00C
E00E
E00E
E00E
E00E
E00C
600C
601C
7018
3BB8
1FF0
0FC0
0380
0380
ENDCHAR
STARTCHAR 047B
ENCODING 1147
SWIDTH 560 0
DWIDTH 14 0
BBX 12 15 1 -1
BITMAP
0600
1F80
3FC0
76E0
6070
E030
C030
C030
C030
E030
6070
76E0
3FC0
1F80
0600
ENDCHAR
STARTCHAR 047C
ENCODING 1148
SWIDTH 880 0
DWIDTH 22 0
BBX 18 24 2 0
BITMAP
010000
03E000
063C00
060C00
00C000
00C000
18C600
788780
600180
E001C0
C000C0
C000C0
C000C0
C000C0
C0C0C0
C0C0C0
C0C0C0
C0C0C0
C0C0C0
C0C0C0
E0E1C0
61E180
7FFF80
1E1E00
ENDCHAR
STARTCHAR 047D
ENCODING 1149
SWIDTH 760 0
DWIDTH 19 0
BBX 16 19 2 0
BITMAP
0200
07C0
0C78
0C18
0180
0180
319C
711E
E006
C007
C007
C007
C387
C387
C387
C387
C386
FEFE
3C78
ENDCHAR
STARTCHAR 047E
ENCODING 1150
SWIDTH 880 0
DWIDTH 22 0
BBX 18 22 2 0
BITMAP
0FFC00
00C000
00C000
000000
C0C0C0
C0C0C0
C0C0C0
C0C0C0
C0C0C0
C0C0C0
C0C0C0
C0C0C0
C0C0C0
C0C0C0
C0C0C0
C0C0C0
C0C0C0
C0C0C0
E0E0C0
E1E1C0
7FFF80
3E1F00
ENDCHAR
STARTCHAR 047F
ENCODING 1151
SWIDTH 760 0
DWIDTH 19 0
BBX 16 18 2 0
BITMAP
1FF8
0180
0180
0000
0000
C187
C187
C187
C187
C187
C187
C187
C187
C187
C387
C386
FEFE
3C78
ENDCHAR
STARTCHAR 0480
ENCODING 1152
SWIDTH 640 0
DWIDTH 16 0
BBX 14 23 1 -5
BITMAP
07C0
1FF0
3838
7018
601C
601C
E000
E000
E000
E000
E000
E000
6000
6000
7000
3800
1F80
0F80
0380
0380
0380
0380
0380
ENDCHAR
STARTCHAR 0481
ENCODING 1153
SWIDTH 520 0
DWIDTH 13 0
BBX 11 18 1 -5
BITMAP
0F00
3FC0
70E0
6060
E060
E000
C000
E000
E000
6000
7000
3E00
1E00
0600
0600
0600
0600
0600
ENDCHAR
STARTCHAR 0482
ENCODING 1154
SWIDTH 640 0
DWIDTH 16 0
BBX 13 16 1 0
BITMAP
0038
0030
0C60
0EC0
03C0
01E0
01F8
0318
6300
F600
1C00
0F00
1B80
18C0
3000
7000
ENDCHAR
STARTCHAR 0483
ENCODING 1155
SWIDTH 0 0
DWIDTH 0 0
BBX 8 5 -11 14
BITMAP
03
03
FF
C0
C0
ENDCHAR
STARTCHAR 0484
ENCODING 1156
SWIDTH 0 0
DWIDTH 0 0
BBX 9 4 -11 16
BITMAP
0200
1F80
F980
E080
ENDCHAR
STARTCHAR 0485
ENCODING 1157
SWIDTH 0 0
DWIDTH 0 0
BBX 3 4 -8 16
BITMAP
C0
C0
40
60
ENDCHAR
STARTCHAR 0486
ENCODING 1158
SWIDTH 0 0
DWIDTH 0 0
BBX 3 4 -7 16
BITMAP
E0
E0
C0
80
ENDCHAR
STARTCHAR 0488
ENCODING 1160
SWIDTH 0 0
DWIDTH 0 0
BBX 23 22 -18 -4
BITMAP
003800
004C00
000000
000000
1C0070
2600D8
000000
000000
000000
000000
F0001C
980032
000000
000000
000000
000000
1C0070
260098
000000
000000
003800
004C00
ENDCHAR
STARTCHAR 0489
ENCODING 1161
SWIDTH 0 0
DWIDTH 0 0
BBX 22 23 -18 -5
BITMAP
001000
001000
003000
103000
080030
0C00E0
0C01C0
040000
000000
000000
C00030
70003C
100004
000000
000000
000000
000080
0600C0
1C0040
303060
003020
003000
002000
ENDCHAR
STARTCHAR 048A
ENCODING 1162
SWIDTH 760 0
DWIDTH 19 0
BBX 16 27 2 -5
BITMAP
1860
0FC0
0780
0000
E01C
E03C
E03C
E07C
E0FC
E0DC
E1DC
E19C
E39C
E71C
E61C
EE1C
FC1C
F81C
F81C
F01C
E01F
E01F
0003
0007
0006
0006
000C
ENDCHAR
STARTCHAR 048B
ENCODING 1163
SWIDTH 600 0
DWIDTH 15 0
BBX 13 23 2 -5
BITMAP
2180
3F00
1E00
0000
0000
C0E0
C1E0
C1E0
C3E0
C7E0
C6E0
CCE0
DCE0
D8E0
F0E0
F0E0
E0F8
E0F8
0038
0038
0030
0030
0060
ENDCHAR
STARTCHAR 048C
ENCODING 1164
SWIDTH 640 0
DWIDTH 16 0
BBX 16 18 -1 0
BITMAP
1800
1800
FF00
FF00
1800
1800
1800
1FF8
1FFC
180E
1806
1807
1807
1807
1806
180E
1FFC
1FF8
ENDCHAR
STARTCHAR 048D
ENCODING 1165
SWIDTH 560 0
DWIDTH 14 0
BBX 12 20 0 0
BITMAP
3000
3000
FF00
FF00
3000
3000
3000
3000
3000
3000
3000
3FC0
3FE0
3070
3030
3030
3030
3070
3FE0
3FC0
ENDCHAR
STARTCHAR 048E
ENCODING 1166
SWIDTH 640 0
DWIDTH 16 0
BBX 13 18 2 0
BITMAP
FFC0
FFE0
C070
C038
C038
C038
C0B8
C1F8
C070
FFF0
FFF8
C010
C000
C000
C000
C000
C000
C000
ENDCHAR
STARTCHAR 048F
ENCODING 1167
SWIDTH 560 0
DWIDTH 14 0
BBX 11 18 2 -5
BITMAP
DF00
FF80
E1C0
C0C0
C0E0
C060
C060
C060
C2E0
C3C0
E1C0
FFC0
DFE0
C040
C000
C000
C000
C000
ENDCHAR
STARTCHAR 0490
ENCODING 1168
SWIDTH 560 0
DWIDTH 14 0
BBX 11 22 2 0
BITMAP
0060
0060
0060
0060
FFE0
FFE0
C000
C000
C000
C000
C000
C000
C000
C000
C000
C000
C000
C000
C000
C000
C000
C000
ENDCHAR
STARTCHAR 0491
ENCODING 1169
SWIDTH 440 0
DWIDTH 11 0
BBX 8 17 2 0
BITMAP
03
03
03
03
FF
FF
C0
C0
C0
C0
C0
C0
C0
C0
C0
C0
C0
ENDCHAR
STARTCHAR 0492
ENCODING 1170
SWIDTH 560 0
DWIDTH 14 0
BBX 13 18 0 0
BITMAP
3FF8
3FF8
3800
3800
3800
3800
3800
3800
FF00
FF00
3800
3800
3800
3800
3800
3800
3800
3800
ENDCHAR
STARTCHAR 0493
ENCODING 1171
SWIDTH 400 0
DWIDTH 10 0
BBX 10 13 0 0
BITMAP
3FC0
3FC0
3000
3000
3000
FF00
FF00
3000
3000
3000
3000
3000
3000
ENDCHAR
STARTCHAR 0494
ENCODING 1172
SWIDTH 600 0
DWIDTH 15 0
BBX 12 22 2 -4
BITMAP
FFE0
FFE0
E000
E000
E000
E000
E000
E000
FF00
FFC0
E1E0
E060
E070
E030
E030
E030
E030
E070
0070
00E0
03C0
0380
ENDCHAR
STARTCHAR 0495
ENCODING 1173
SWIDTH 520 0
DWIDTH 13 0
BBX 10 16 2 -3
BITMAP
FF00
FF00
C000
C000
C000
FC00
FF00
C380
C180
C1C0
C1C0
C1C0
C180
0380
0F00
0600
ENDCHAR
STARTCHAR 0496
ENCODING 1174
SWIDTH 960 0
DWIDTH 24 0
BBX 23 22 0 -4
BITMAP
70381C
303838
383830
1C3870
0C3860
0E38E0
0639C0
033980
03FF80
03FF80
0739C0
0E38C0
0E38E0
1C3870
183870
383838
70381E
70381E
800006
000006
000006
000006
ENDCHAR
STARTCHAR 0497
ENCODING 1175
SWIDTH 800 0
DWIDTH 20 0
BBX 20 17 0 -4
BITMAP
70E1C0
30E180
18E380
1CE700
0EE600
07FC00
07FC00
0EE600
1CE700
18E300
38E380
70E1F0
60E0F0
800070
000070
000070
000070
ENDCHAR
STARTCHAR 0498
ENCODING 1176
SWIDTH 600 0
DWIDTH 15 0
BBX 13 23 1 -5
BITMAP
0F80
3FE0
7070
E030
E038
0038
0030
0070
0FC0
0FE0
0070
0038
0038
C038
E038
7070
3FE0
1F80
0700
0700
0700
0700
0700
ENDCHAR
STARTCHAR 0499
ENCODING 1177
SWIDTH 520 0
DWIDTH 13 0
BBX 10 18 1 -5
BITMAP
1F00
7FC0
E0C0
00C0
01C0
1F80
1F80
00C0
00C0
C0C0
E1C0
7FC0
1F00
0C00
0C00
0C00
0C00
0C00
ENDCHAR
STARTCHAR 049A
ENCODING 1178
SWIDTH 720 0
DWIDTH 18 0
BBX 14 22 2 -4
BITMAP
E038
E070
E0E0
E1C0
E1C0
E380
E700
FE00
FE00
E700
E380
E380
E1C0
E0E0
E060
E070
E03C
E01C
000C
000C
000C
000C
ENDCHAR
STARTCHAR 049B
ENCODING 1179
SWIDTH 600 0
DWIDTH 15 0
BBX 12 17 2 -4
BITMAP
C0E0
C180
C380
C700
CE00
FC00
FC00
CE00
C700
C380
C380
C1F0
C0F0
0030
0030
0030
0030
ENDCHAR
STARTCHAR 049C
ENCODING 1180
SWIDTH 640 0
DWIDTH 16 0
BBX 14 18 2 0
BITMAP
C038
C030
C070
C060
C0E0
C8C0
C980
C980
FF00
FF80
C980
C9C0
C8C0
C0E0
C070
C070
C038
C03C
ENDCHAR
STARTCHAR 049D
ENCODING 1181
SWIDTH 560 0
DWIDTH 14 0
BBX 12 13 2 0
BITMAP
C070
C0E0
D9C0
D980
DB00
FF00
FF00
DB80
D980
C1C0
C0C0
C0E0
C070
ENDCHAR
STARTCHAR 049E
ENCODING 1182
SWIDTH 640 0
DWIDTH 16 0
BBX 16 18 0 0
BITMAP
380F
380E
381C
FF38
FF70
3860
38E0
39C0
3F80
3FC0
39C0
38E0
3870
3838
3818
381C
380E
3807
ENDCHAR
STARTCHAR 049F
ENCODING 1183
SWIDTH 520 0
DWIDTH 13 0
BBX 14 19 -1 0
BITMAP
1800
1800
FF00
FF00
1800
1800
1838
1830
1860
18E0
19C0
1F80
1F80
19C0
18E0
1860
1870
1838
181C
ENDCHAR
STARTCHAR 04A0
ENCODING 1184
SWIDTH 800 0
DWIDTH 20 0
BBX 19 18 1 0
BITMAP
FF00E0
FF01C0
030380
030700
030600
030E00
031C00
033800
03F000
03F800
031C00
031C00
030E00
030700
030380
030180
0301C0
0300E0
ENDCHAR
STARTCHAR 04A1
ENCODING 1185
SWIDTH 680 0
DWIDTH 17 0
BBX 16 13 1 0
BITMAP
FE07
FE0C
0618
0638
0670
07E0
07E0
0670
0638
0618
061C
060E
0607
ENDCHAR
STARTCHAR 04A2
ENCODING 1186
SWIDTH 760 0
DWIDTH 19 0
BBX 16 22 2 -4
BITMAP
C01C
C01C
C01C
C01C
C01C
C01C
C01C
C01C
FFFC
FFFC
C01C
C01C
C01C
C01C
C01C
C01C
C01F
C01F
0007
0007
0007
0007
ENDCHAR
STARTCHAR 04A3
ENCODING 1187
SWIDTH 600 0
DWIDTH 15 0
BBX 12 17 2 -4
BITMAP
C0E0
C0E0
C0E0
C0E0
C0E0
FFE0
FFE0
C0E0
C0E0
C0E0
C0E0
C0F0
C0F0
0030
0030
0030
0030
ENDCHAR
STARTCHAR 04A4
ENCODING 1188
SWIDTH 960 0
DWIDTH 24 0
BBX 21 18 2 0
BITMAP
C01FF8
C01FF8
C01C00
C01C00
C01C00
C01C00
C01C00
C01C00
FFFC00
FFFC00
C01C00
C01C00
C01C00
C01C00
C01C00
C01C00
C01C00
C01C00
ENDCHAR
STARTCHAR 04A5
ENCODING 1189
SWIDTH 720 0
DWIDTH 18 0
BBX 15 13 2 0
BITMAP
C0FE
C0FE
C0C0
C0C0
C0C0
FFC0
FFC0
C0C0
C0C0
C0C0
C0C0
C0C0
C0C0
ENDCHAR
STARTCHAR 04A6
ENCODING 1190
SWIDTH 1040 0
DWIDTH 26 0
BBX 22 22 2 -4
BITMAP
FFFC00
FFFC00
E01C00
E01C00
E01C00
E01C00
E01C00
E01C00
E01FC0
E01FF0
E01C38
E01C1C
E01C0C
E01C0C
E01C0C
E01C0C
E01C0C
E01C0C
00001C
000018
000078
000060
ENDCHAR
STARTCHAR 04A7
ENCODING 1191
SWIDTH 880 0
DWIDTH 22 0
BBX 19 16 2 -3
BITMAP
FFC000
FFC000
C0C000
C0C000
C0C000
C0FE00
C0FF80
C0C1C0
C0C0E0
C0C0E0
C0C060
C0C060
C0C0E0
0001C0
000380
000300
ENDCHAR
STARTCHAR 04A8
ENCODING 1192
SWIDTH 760 0
DWIDTH 19 0
BBX 17 18 1 0
BITMAP
0C7C00
1CFE00
39C600
718300
618300
638300
E38300
E38300
E38300
E38300
E38300
618300
61C700
70C600
30EE00
3C7C00
1FFF80
07E780
ENDCHAR
STARTCHAR 04A9
ENCODING 1193
SWIDTH 600 0
DWIDTH 15 0
BBX 13 13 1 0
BITMAP
19E0
3BF0
6730
6638
E618
E618
E618
E738
6338
63F0
31E0
3FF8
0F98
ENDCHAR
STARTCHAR 04AA
ENCODING 1194
SWIDTH 640 0
DWIDTH 16 0
BBX 14 23 1 -5
BITMAP
07C0
1FF0
3838
701C
701C
600C
6000
E000
E000
E000
E000
6000
600C
601C
701C
3838
1FF0
07C0
0300
0300
0300
0300
0300
ENDCHAR
STARTCHAR 04AB
ENCODING 1195
SWIDTH 520 0
DWIDTH 13 0
BBX 11 18 1 -5
BITMAP
1F00
3FC0
70E0
6060
E060
C000
C000
C000
E000
6060
70E0
3FC0
1F00
0E00
0E00
0E00
0E00
0E00
ENDCHAR
STARTCHAR 04AC
ENCODING 1196
SWIDTH 600 0
DWIDTH 15 0
BBX 13 22 1 -4
BITMAP
FFF8
FFF8
0700
0700
0700
0700
0700
0700
0700
0700
0700
0700
0700
0700
0700
0700
07C0
07C0
01C0
01C0
01C0
01C0
ENDCHAR
STARTCHAR 04AD
ENCODING 1197
SWIDTH 480 0
DWIDTH 12 0
BBX 12 17 0 -4
BITMAP
FFF0
FFF0
0600
0600
0600
0600
0600
0600
0600
0600
0600
0780
0780
0180
0180
0180
0180
ENDCHAR
STARTCHAR 04AE
ENCODING 1198
SWIDTH 600 0
DWIDTH 15 0
BBX 15 18 0 0
BITMAP
E00E
701C
3018
3838
1830
1C70
0C60
0EE0
06C0
07C0
0380
0380
0380
0380
0380
0380
0380
0380
ENDCHAR
STARTCHAR 04AF
ENCODING 1199
SWIDTH 520 0
DWIDTH 13 0
BBX 11 18 1 -5
BITMAP
C060
C0E0
60C0
60C0
7180
3180
3380
3B00
1B00
1F00
0E00
0E00
0C00
0C00
0C00
0C00
0C00
0C00
ENDCHAR
STARTCHAR 04B0
ENCODING 1200
SWIDTH 600 0
DWIDTH 15 0
BBX 15 18 0 0
BITMAP
E00E
701C
7018
3838
1830
1C70
0C60
0EE0
06C0
07C0
0FE0
0FE0
0380
0380
0380
0380
0380
0380
ENDCHAR
STARTCHAR 04B1
ENCODING 1201
SWIDTH 520 0
DWIDTH 13 0
BBX 11 18 1 -5
BITMAP
C060
C0E0
60C0
60C0
7180
3180
3380
3B00
1B00
1E00
0E00
3F80
3F80
0C00
0C00
0C00
0C00
0C00
ENDCHAR
STARTCHAR 04B2
ENCODING 1202
SWIDTH 640 0
DWIDTH 16 0
BBX 15 22 1 -4
BITMAP
E01C
7038
7030
3870
18E0
1CC0
0FC0
0780
0780
0780
0F80
0FC0
1CE0
18E0
3870
7030
603E
E01E
000E
000E
000E
000E
ENDCHAR
STARTCHAR 04B3
ENCODING 1203
SWIDTH 520 0
DWIDTH 13 0
BBX 13 17 0 -4
BITMAP
7070
30E0
38C0
1980
0F80
0F00
0600
0F00
0F80
1980
38C0
30F8
6078
8038
0038
0038
0038
ENDCHAR
STARTCHAR 04B4
ENCODING 1204
SWIDTH 880 0
DWIDTH 22 0
BBX 20 22 1 -4
BITMAP
FFE1C0
FFE1C0
0E01C0
0E01C0
0E01C0
0E01C0
0E01C0
0E01C0
0E01C0
0E01C0
0E01C0
0E01C0
0E01C0
0E01C0
0E01C0
0E01C0
0FFFF0
0FFFF0
000060
000060
000060
000060
ENDCHAR
STARTCHAR 04B5
ENCODING 1205
SWIDTH 680 0
DWIDTH 17 0
BBX 16 17 0 -4
BITMAP
FF8C
FF8C
0C0C
0C0C
0C0C
0C0C
0C0C
0C0C
0C0C
0C0C
0C0C
0FFF
0FFF
0003
0003
0003
0003
ENDCHAR
STARTCHAR 04B6
ENCODING 1206
SWIDTH 720 0
DWIDTH 18 0
BBX 15 22 2 -4
BITMAP
C018
C018
C018
C018
C018
C018
C018
E018
E038
7FF8
1FD8
0018
0018
0018
0018
0018
001E
001E
0006
0006
0006
0006
ENDCHAR
STARTCHAR 04B7
ENCODING 1207
SWIDTH 560 0
DWIDTH 14 0
BBX 13 17 1 -4
BITMAP
E0E0
E0E0
E0E0
E0E0
E0E0
E0E0
70E0
7FE0
1FE0
00E0
00E0
00F8
00F8
0038
0038
0038
0038
ENDCHAR
STARTCHAR 04B8
ENCODING 1208
SWIDTH 680 0
DWIDTH 17 0
BBX 13 18 2 0
BITMAP
C018
C018
C018
C018
C018
C318
C318
E318
E338
7FF8
1FD8
0318
0318
0318
0018
0018
0018
0018
ENDCHAR
STARTCHAR 04B9
ENCODING 1209
SWIDTH 560 0
DWIDTH 14 0
BBX 10 13 2 0
BITMAP
C0C0
C0C0
C0C0
C0C0
CCC0
CCC0
ECC0
7FC0
3FC0
0CC0
0CC0
00C0
00C0
ENDCHAR
STARTCHAR 04BA
ENCODING 1210
SWIDTH 680 0
DWIDTH 17 0
BBX 13 18 2 0
BITMAP
C000
C000
C000
C000
C000
C000
C000
DFC0
FFE0
C070
C038
C038
C038
C038
C038
C038
C038
C038
ENDCHAR
STARTCHAR 04BB
ENCODING 1211
SWIDTH 560 0
DWIDTH 14 0
BBX 10 19 2 0
BITMAP
C000
C000
C000
C000
C000
C000
CF00
FF80
E1C0
C0C0
C0C0
C0C0
C0C0
C0C0
C0C0
C0C0
C0C0
C0C0
C0C0
ENDCHAR
STARTCHAR 04BC
ENCODING 1212
SWIDTH 760 0
DWIDTH 19 0
BBX 17 18 1 0
BITMAP
00F800
03FE00
070E00
060300
0E0300
CC0380
CC0180
EC0180
7FFF80
1FFF80
0C0000
0C0000
0C0000
0E0000
0E0000
078300
03FF00
00FC00
ENDCHAR
STARTCHAR 04BD
ENCODING 1213
SWIDTH 600 0
DWIDTH 15 0
BBX 14 13 0 0
BITMAP
03E0
0FF0
9C38
D818
D81C
7FFC
3FFC
1800
1800
1C00
0E18
0FFC
03E0
ENDCHAR
STARTCHAR 04BE
ENCODING 1214
SWIDTH 760 0
DWIDTH 19 0
BBX 17 23 1 -5
BITMAP
00F800
03FE00
070E00
060300
0E0300
CC0380
CC0180
EC0180
7FFF80
1FFF80
0C0000
0C0000
0C0000
0E0000
0E0000
078300
03FF00
00FE00
003000
003000
003000
003000
003000
ENDCHAR
STARTCHAR 04BF
ENCODING 1215
SWIDTH 600 0
DWIDTH 15 0
BBX 14 18 0 -5
BITMAP
03E0
0FF0
9C38
D818
D81C
7FFC
3FFC
1800
1800
1C00
0E18
0FFC
03E0
00C0
00C0
00C0
00C0
00C0
ENDCHAR
STARTCHAR 04C0
ENCODING 1216
SWIDTH 280 0
DWIDTH 7 0
BBX 3 18 2 0
BITMAP
E0
E0
E0
E0
E0
E0
E0
E0
E0
E0
E0
E0
E0
E0
E0
E0
E0
E0
ENDCHAR
STARTCHAR 04C1
ENCODING 1217
SWIDTH 920 0
DWIDTH 23 0
BBX 23 22 0 0
BITMAP
00C600
00EE00
007C00
000000
70381C
303838
383830
1C3870
0C3860
0E38E0
0639C0
033980
03FF80
03FF80
0739C0
0E38C0
0E38E0
1C3870
183870
383838
70381C
F0381E
ENDCHAR
STARTCHAR 04C2
ENCODING 1218
SWIDTH 760 0
DWIDTH 19 0
BBX 19 18 0 0
BITMAP
031800
03B800
01F000
000000
000000
70E1C0
30E180
18E380
1CE700
0EE600
07FC00
07FC00
0EE600
1CE700
18E300
38E380
70E1C0
E0E0E0
ENDCHAR
STARTCHAR 04C3
ENCODING 1219
SWIDTH 640 0
DWIDTH 16 0
BBX 13 22 2 -4
BITMAP
C038
C070
C0E0
C1C0
C180
C380
C700
CE00
FF80
FFE0
C0F0
C070
C038
C038
C018
C018
C018
C038
0030
0070
01E0
01C0
ENDCHAR
STARTCHAR 04C4
ENCODING 1220
SWIDTH 560 0
DWIDTH 14 0
BBX 11 16 2 -3
BITMAP
C0E0
C180
C300
C600
CC00
FE00
FF80
C1C0
C0C0
C0E0
C0E0
C0E0
C0C0
01C0
0780
0300
ENDCHAR
STARTCHAR 04C5
ENCODING 1221
SWIDTH 760 0
DWIDTH 19 0
BBX 17 23 1 -5
BITMAP
0FFE00
1FFE00
1C0E00
1C0E00
1C0E00
1C0E00
1C0E00
1C0E00
1C0E00
180E00
180E00
180E00
180E00
180E00
380E00
300E00
F00F80
E00F80
000380
000380
000300
000300
000600
ENDCHAR
STARTCHAR 04C6
ENCODING 1222
SWIDTH 600 0
DWIDTH 15 0
BBX 14 18 1 -5
BITMAP
1FF0
1FF0
3870
3870
3870
3870
3870
3070
3070
3070
7070
E07C
C07C
000C
001C
0018
0018
0030
ENDCHAR
STARTCHAR 04C7
ENCODING 1223
SWIDTH 720 0
DWIDTH 18 0
BBX 14 23 2 -5
BITMAP
E01C
E01C
E01C
E01C
E01C
E01C
E01C
E01C
FFFC
FFFC
E01C
E01C
E01C
E01C
E01C
E01C
E01C
E01C
001C
001C
0018
00F8
00F0
ENDCHAR
STARTCHAR 04C8
ENCODING 1224
SWIDTH 560 0
DWIDTH 14 0
BBX 10 18 2 -5
BITMAP
C0C0
C0C0
C0C0
C0C0
C0C0
FFC0
FFC0
C0C0
C0C0
C0C0
C0C0
C0C0
C0C0
00C0
00C0
00C0
07C0
0780
ENDCHAR
STARTCHAR 04C9
ENCODING 1225
SWIDTH 760 0
DWIDTH 19 0
BBX 16 23 2 -5
BITMAP
C01C
C01C
C01C
C01C
C01C
C01C
C01C
C01C
FFFC
FFFC
C01C
C01C
C01C
C01C
C01C
C01C
C01F
C01F
0003
0003
0006
0006
000C
ENDCHAR
STARTCHAR 04CA
ENCODING 1226
SWIDTH 600 0
DWIDTH 15 0
BBX 13 18 2 -5
BITMAP
C0E0
C0E0
C0E0
C0E0
C0E0
FFE0
FFE0
C0E0
C0E0
C0E0
C0E0
C0F8
C0F8
0038
0038
0030
0030
0060
ENDCHAR
STARTCHAR 04CB
ENCODING 1227
SWIDTH 680 0
DWIDTH 17 0
BBX 13 22 2 -4
BITMAP
C018
C018
C018
C018
C018
C018
C018
E018
E038
7FF8
1FD8
0018
0018
0018
0018
0018
0078
0078
0060
0060
0060
0060
ENDCHAR
STARTCHAR 04CC
ENCODING 1228
SWIDTH 560 0
DWIDTH 14 0
BBX 11 17 1 -4
BITMAP
E0E0
E0E0
E0E0
E0E0
E0E0
E0E0
70E0
7FE0
1FE0
00E0
00E0
03E0
03E0
0380
0380
0380
0380
ENDCHAR
STARTCHAR 04CD
ENCODING 1229
SWIDTH 920 0
DWIDTH 23 0
BBX 20 23 2 -5
BITMAP
E001C0
F003C0
F003C0
F007C0
D806C0
D806C0
DC0CC0
CC0DC0
CC1DC0
C619C0
C619C0
C731C0
C331C0
C371C0
C1E1C0
C1E1C0
C1C1F0
C0C1F0
000030
000070
000060
000060
0000C0
ENDCHAR
STARTCHAR 04CE
ENCODING 1230
SWIDTH 800 0
DWIDTH 20 0
BBX 17 18 2 -5
BITMAP
E00E00
F01E00
F01E00
F03E00
D83E00
D87E00
CC6E00
CCEE00
C6CE00
C6CE00
C78E00
C38F80
C30F80
000180
000380
000300
000300
000600
ENDCHAR
STARTCHAR 04CF
ENCODING 1231
SWIDTH 280 0
DWIDTH 7 0
BBX 3 18 2 0
BITMAP
E0
E0
E0
E0
E0
E0
E0
E0
E0
E0
E0
E0
E0
E0
E0
E0
E0
E0
ENDCHAR
STARTCHAR 04D0
ENCODING 1232
SWIDTH 640 0
DWIDTH 16 0
BBX 16 22 0 0
BITMAP
0430
07E0
03C0
0000
0180
01C0
03C0
03E0
0760
0660
0670
0C30
0C30
0C18
1818
1FFC
3FFC
300C
300E
7006
6006
E007
ENDCHAR
STARTCHAR 04D1
ENCODING 1233
SWIDTH 560 0
DWIDTH 14 0
BBX 11 18 1 0
BITMAP
38C0
1F80
0F00
0000
0000
1F00
3FC0
60C0
60E0
0060
1FE0
7FE0
6060
E060
E0E0
61E0
7FE0
3E60
ENDCHAR
STARTCHAR 04D2
ENCODING 1234
SWIDTH 640 0
DWIDTH 16 0
BBX 16 23 0 0
BITMAP
0420
0E30
0630
0000
0000
0180
01C0
03C0
03E0
0760
0660
0670
0C30
0C30
0C18
1818
1FFC
3FFC
300C
300E
7006
6006
E007
ENDCHAR
STARTCHAR 04D3
ENCODING 1235
SWIDTH 560 0
DWIDTH 14 0
BBX 11 18 1 0
BITMAP
1080
39C0
38C0
0000
0000
1F00
3FC0
60C0
60E0
0060
1FE0
7FE0
6060
E060
E0E0
61E0
7FE0
3E60
ENDCHAR
STARTCHAR 04D4
ENCODING 1236
SWIDTH 920 0
DWIDTH 23 0
BBX 23 18 0 0
BITMAP
003FFC
003FFC
006C00
00EC00
00CC00
01CC00
018C00
030C00
070FF8
060FF8
0E0C00
0FFC00
1FFC00
380C00
300C00
700C00
600FFE
E00FFE
ENDCHAR
STARTCHAR 04D5
ENCODING 1237
SWIDTH 840 0
DWIDTH 21 0
BBX 19 13 1 0
BITMAP
1F0F00
7FBFC0
E1F0E0
E0E060
00E060
3FFFE0
7FFFE0
E0C000
C0E000
C0E000
E1F060
7FBFE0
3E0F80
ENDCHAR
STARTCHAR 04D6
ENCODING 1238
SWIDTH 560 0
DWIDTH 14 0
BBX 11 22 2 0
BITMAP
3180
3B80
1F00
0000
FFE0
FFE0
C000
C000
C000
C000
C000
C000
FFC0
FFC0
C000
C000
C000
C000
C000
C000
FFE0
FFE0
ENDCHAR
STARTCHAR 04D7
ENCODING 1239
SWIDTH 520 0
DWIDTH 13 0
BBX 11 18 1 0
BITMAP
30C0
1F80
0F00
0000
0000
0F00
3FC0
70E0
6060
E060
FFE0
FFE0
E000
E000
6000
7060
3FC0
0F80
ENDCHAR
STARTCHAR 04D8
ENCODING 1240
SWIDTH 680 0
DWIDTH 17 0
BBX 15 18 1 0
BITMAP
1FC0
3FF0
3078
001C
001C
000C
000E
000E
000E
FFFE
FFFE
C00E
E00C
600C
601C
3838
1FF0
0FC0
ENDCHAR
STARTCHAR 04D9
ENCODING 1241
SWIDTH 520 0
DWIDTH 13 0
BBX 11 13 1 0
BITMAP
3F00
7F80
41C0
00E0
0060
0060
FFE0
FFE0
C060
E0E0
71C0
3F80
1F00
ENDCHAR
STARTCHAR 04DA
ENCODING 1242
SWIDTH 680 0
DWIDTH 17 0
BBX 15 23 1 0
BITMAP
1040
18E0
18C0
0000
0000
1FC0
3FF0
3078
001C
001C
000C
000E
000E
000E
FFFE
FFFE
C00E
E00C
600C
601C
3838
1FF0
0FC0
ENDCHAR
STARTCHAR 04DB
ENCODING 1243
SWIDTH 520 0
DWIDTH 13 0
BBX 11 18 1 0
BITMAP
2080
39C0
31C0
0000
0000
3F00
7F80
41C0
00E0
0060
0060
FFE0
FFE0
C060
E0E0
71C0
3F80
1F00
ENDCHAR
STARTCHAR 04DC
ENCODING 1244
SWIDTH 920 0
DWIDTH 23 0
BBX 23 23 0 0
BITMAP
008600
01C600
00C600
000000
000000
70381C
303838
383830
1C3870
0C3860
0E38E0
0639C0
033980
03FF80
03FF80
0739C0
0E38C0
0E38E0
1C3870
183870
383838
70381C
F0381E
ENDCHAR
STARTCHAR 04DD
ENCODING 1245
SWIDTH 760 0
DWIDTH 19 0
BBX 19 18 0 0
BITMAP
021000
031800
031C00
000000
000000
70E1C0
30E180
18E380
1CE700
0EE600
07FC00
07FC00
0EE600
1CE700
18E300
38E380
70E1C0
E0E0E0
ENDCHAR
STARTCHAR 04DE
ENCODING 1246
SWIDTH 600 0
DWIDTH 15 0
BBX 13 23 1 0
BITMAP
10C0
38C0
18C0
0000
0000
0F80
3FE0
7070
E030
E038
0038
0030
0070
0FC0
0FE0
0070
0038
0038
C038
E038
7070
3FE0
1F80
ENDCHAR
STARTCHAR 04DF
ENCODING 1247
SWIDTH 520 0
DWIDTH 13 0
BBX 10 18 1 0
BITMAP
2100
7180
3180
0000
0000
1F00
7FC0
E0C0
00C0
01C0
1F80
1F80
00C0
00C0
C0C0
E1C0
7FC0
1F00
ENDCHAR
STARTCHAR 04E0
ENCODING 1248
SWIDTH 600 0
DWIDTH 15 0
BBX 12 18 1 0
BITMAP
7FE0
7FE0
00E0
01C0
0380
0700
0E00
0F80
0FC0
00E0
0070
0030
0030
E030
E070
70E0
3FC0
1F80
ENDCHAR
STARTCHAR 04E1
ENCODING 1249
SWIDTH 600 0
DWIDTH 15 0
BBX 12 18 1 -5
BITMAP
7FE0
7FE0
00E0
01C0
0380
0700
0E00
0F80
0FC0
00E0
0070
0030
0030
E030
E070
70E0
3FC0
1F80
ENDCHAR
STARTCHAR 04E2
ENCODING 1250
SWIDTH 720 0
DWIDTH 18 0
BBX 14 22 2 0
BITMAP
1FE0
1FE0
0000
0000
E01C
E03C
E03C
E07C
E0FC
E0DC
E1DC
E19C
E39C
E71C
E61C
EE1C
FC1C
F81C
F81C
F01C
E01C
E01C
ENDCHAR
STARTCHAR 04E3
ENCODING 1251
SWIDTH 560 0
DWIDTH 14 0
BBX 11 18 2 0
BITMAP
7F80
7F80
0000
0000
0000
C0E0
C1E0
C1E0
C3E0
C7E0
C6E0
CCE0
DCE0
D8E0
F0E0
F0E0
E0E0
E0E0
ENDCHAR
STARTCHAR 04E4
ENCODING 1252
SWIDTH 720 0
DWIDTH 18 0
BBX 14 23 2 0
BITMAP
0840
1CE0
1860
0000
0000
E01C
E03C
E03C
E07C
E0FC
E0DC
E1DC
E19C
E39C
E71C
E61C
EE1C
FC1C
F81C
F81C
F01C
E01C
E01C
ENDCHAR
STARTCHAR 04E5
ENCODING 1253
SWIDTH 560 0
DWIDTH 14 0
BBX 11 18 2 0
BITMAP
2100
7180
3180
0000
0000
C0E0
C1E0
C1E0
C3E0
C7E0
C6E0
CCE0
DCE0
D8E0
F0E0
F0E0
E0E0
E0E0
ENDCHAR
STARTCHAR 04E6
ENCODING 1254
SWIDTH 680 0
DWIDTH 17 0
BBX 15 23 1 0
BITMAP
0840
0C70
0C60
0000
0000
07C0
1FF0
3838
301C
700C
600C
600E
E00E
E00E
E00E
E00E
600E
600C
700C
301C
3838
1FF0
07C0
ENDCHAR
STARTCHAR 04E7
ENCODING 1255
SWIDTH 560 0
DWIDTH 14 0
BBX 12 18 1 0
BITMAP
1080
39C0
38C0
0000
0000
0F80
3FC0
70E0
6070
E030
C030
C030
C030
E030
6070
70E0
3FC0
0F80
ENDCHAR
STARTCHAR 04E8
ENCODING 1256
SWIDTH 680 0
DWIDTH 17 0
BBX 15 18 1 0
BITMAP
07C0
1FF0
3838
7018
601C
600C
E00C
E00C
FFFE
FFFE
E00E
E00C
600C
601C
7018
3838
1FF0
07C0
ENDCHAR
STARTCHAR 04E9
ENCODING 1257
SWIDTH 560 0
DWIDTH 14 0
BBX 12 13 1 0
BITMAP
0F80
3FC0
70E0
6070
E030
FFF0
FFF0
C030
E070
6070
70E0
3FC0
0F80
ENDCHAR
STARTCHAR 04EA
ENCODING 1258
SWIDTH 680 0
DWIDTH 17 0
BBX 15 23 1 0
BITMAP
0820
0C70
0E70
0000
0000
07C0
1FF0
3838
7018
601C
600C
E00C
E00C
FFFE
FFFE
E00E
E00C
600C
601C
7018
3838
1FF0
07C0
ENDCHAR
STARTCHAR 04EB
ENCODING 1259
SWIDTH 560 0
DWIDTH 14 0
BBX 12 18 1 0
BITMAP
2080
39C0
31C0
0000
0000
0F80
3FC0
70E0
6070
E030
FFF0
FFF0
C030
E070
6070
70E0
3FC0
0F80
ENDCHAR
STARTCHAR 04EC
ENCODING 1260
SWIDTH 680 0
DWIDTH 17 0
BBX 13 23 2 0
BITMAP
1080
18C0
18C0
0000
0000
0F80
3FE0
7070
E030
C038
C018
0018
0018
0FF8
0FF8
0018
0018
C018
C038
E030
7070
3FE0
0F80
ENDCHAR
STARTCHAR 04ED
ENCODING 1261
SWIDTH 520 0
DWIDTH 13 0
BBX 11 18 1 0
BITMAP
2100
31C0
3180
0000
0000
1F00
7F80
61C0
C0E0
0060
0FE0
0FE0
0060
C060
E0E0
61C0
7F80
1F00
ENDCHAR
STARTCHAR 04EE
ENCODING 1262
SWIDTH 640 0
DWIDTH 16 0
BBX 14 22 1 0
BITMAP
1FE0
1FE0
0000
0000
E01C
6018
7038
3038
3870
3870
1860
1CE0
0CC0
0FC0
07C0
0780
0380
0300
0700
0600
3E00
3C00
ENDCHAR
STARTCHAR 04EF
ENCODING 1263
SWIDTH 480 0
DWIDTH 12 0
BBX 12 23 0 -5
BITMAP
3FC0
3FC0
0000
0000
0000
E070
6060
70E0
30C0
30C0
39C0
1980
1980
1F80
0F00
0F00
0600
0600
0600
0C00
0C00
7800
7000
ENDCHAR
STARTCHAR 04F0
ENCODING 1264
SWIDTH 640 0
DWIDTH 16 0
BBX 14 23 1 0
BITMAP
1040
1CE0
18E0
0000
0000
E01C
6018
7038
3038
3870
3870
1860
1CE0
0CC0
0FC0
07C0
0780
0380
0300
0700
0600
3E00
3C00
ENDCHAR
STARTCHAR 04F1
ENCODING 1265
SWIDTH 480 0
DWIDTH 12 0
BBX 12 23 0 -5
BITMAP
1080
38C0
18C0
0000
0000
E070
6060
70E0
30C0
30C0
39C0
1980
1980
1F80
0F00
0F00
0600
0600
0600
0C00
0C00
7800
7000
ENDCHAR
STARTCHAR 04F2
ENCODING 1266
SWIDTH 640 0
DWIDTH 16 0
BBX 14 23 1 0
BITMAP
0338
0660
0EE0
0DC0
0000
E01C
6018
7038
3038
3870
3870
1860
1CE0
0CC0
0FC0
07C0
0780
0380
0300
0700
0600
3E00
3C00
ENDCHAR
STARTCHAR 04F3
ENCODING 1267
SWIDTH 480 0
DWIDTH 12 0
BBX 12 24 0 -5
BITMAP
0770
0EE0
0DC0
1980
0000
0000
E070
6060
70E0
30C0
30C0
39C0
1980
1980
1F80
0F00
0F00
0600
0600
0600
0C00
0C00
7800
7000
ENDCHAR
STARTCHAR 04F4
ENCODING 1268
SWIDTH 680 0
DWIDTH 17 0
BBX 13 23 2 0
BITMAP
10C0
38C0
18C0
0000
0000
C018
C018
C018
C018
C018
C018
C018
E018
E038
7FF8
1FD8
0018
0018
0018
0018
0018
0018
0018
ENDCHAR
STARTCHAR 04F5
ENCODING 1269
SWIDTH 560 0
DWIDTH 14 0
BBX 11 18 1 0
BITMAP
2180
7180
3180
0000
0000
E0E0
E0E0
E0E0
E0E0
E0E0
E0E0
70E0
7FE0
1FE0
00E0
00E0
00E0
00E0
ENDCHAR
STARTCHAR 04F6
ENCODING 1270
SWIDTH 560 0
DWIDTH 14 0
BBX 11 22 2 -4
BITMAP
FFE0
FFE0
E000
E000
E000
E000
E000
E000
E000
E000
E000
E000
E000
E000
E000
E000
F000
F000
3000
3000
3000
3000
ENDCHAR
STARTCHAR 04F7
ENCODING 1271
SWIDTH 400 0
DWIDTH 10 0
BBX 8 17 2 -4
BITMAP
FF
FF
C0
C0
C0
C0
C0
C0
C0
C0
C0
F0
F0
30
30
30
30
ENDCHAR
STARTCHAR 04F8
ENCODING 1272
SWIDTH 880 0
DWIDTH 22 0
BBX 17 23 2 0
BITMAP
041000
073800
063800
000000
000000
E00180
E00180
E00180
E00180
E00180
E00180
E00180
FFC180
FFE180
E07180
E03980
E03980
E03980
E03980
E03980
E07180
FFE180
FFC180
ENDCHAR
STARTCHAR 04F9
ENCODING 1273
SWIDTH 760 0
DWIDTH 19 0
BBX 15 18 2 0
BITMAP
0840
0C70
0C60
0000
0000
C006
C006
C006
C006
FF06
FF86
C1C6
C0C6
C0C6
C0C6
C1C6
FF86
FF06
ENDCHAR
STARTCHAR 04FA
ENCODING 1274
SWIDTH 600 0
DWIDTH 15 0
BBX 13 23 1 -5
BITMAP
3FF8
3FF8
3000
3000
3000
3000
3000
FE00
FE00
3000
3000
3000
3000
3000
3000
3000
3C00
3C00
0C00
0C00
0C00
7C00
7800
ENDCHAR
STARTCHAR 04FB
ENCODING 1275
SWIDTH 440 0
DWIDTH 11 0
BBX 10 18 1 -5
BITMAP
3FC0
3FC0
3000
3000
FE00
FE00
3000
3000
3000
3000
3000
3C00
3C00
0C00
0C00
1C00
7800
7000
ENDCHAR
STARTCHAR 04FC
ENCODING 1276
SWIDTH 640 0
DWIDTH 16 0
BBX 15 23 1 -5
BITMAP
E01C
7038
7030
3870
18E0
1CC0
0FC0
0780
0780
0780
0F80
0FC0
1CE0
18E0
3870
7030
603E
E01E
0006
000E
000E
003C
0078
ENDCHAR
STARTCHAR 04FD
ENCODING 1277
SWIDTH 520 0
DWIDTH 13 0
BBX 13 18 0 -5
BITMAP
7070
30E0
38C0
1980
0F80
0F00
0600
0F00
0F80
1980
38C0
30F8
6078
8018
0038
0038
00F0
00E0
ENDCHAR
STARTCHAR 04FE
ENCODING 1278
SWIDTH 640 0
DWIDTH 16 0
BBX 14 18 1 0
BITMAP
E01C
7038
7030
3870
18E0
1CC0
0FC0
0F80
1FE0
1FE0
0780
0FC0
1CC0
18E0
3870
7030
6038
E01C
ENDCHAR
STARTCHAR 04FF
ENCODING 1279
SWIDTH 480 0
DWIDTH 12 0
BBX 12 13 0 0
BITMAP
7070
30E0
38C0
1980
0F00
3FC0
3FC0
0F00
1F80
19C0
38C0
70E0
E070
ENDCHAR
STARTCHAR 0500
ENCODING 1280
SWIDTH 640 0
DWIDTH 16 0
BBX 13 18 1 0
BITMAP
0038
0038
0038
0038
0038
0038
0038
1FF8
3FF8
7038
E038
C038
C038
E038
E038
7038
3FF8
1FF8
ENDCHAR
STARTCHAR 0501
ENCODING 1281
SWIDTH 560 0
DWIDTH 14 0
BBX 11 19 1 0
BITMAP
0060
0060
0060
0060
0060
0060
1F60
3FE0
70E0
6060
E060
C060
C060
C060
E060
6060
70E0
3FE0
1F60
ENDCHAR
STARTCHAR 0502
ENCODING 1282
SWIDTH 840 0
DWIDTH 21 0
BBX 19 18 1 0
BITMAP
003800
003800
003800
003800
003800
003800
003800
1FF800
3FF800
7038C0
E038E0
E03860
C03860
E03860
E038E0
7038C0
3FFFC0
1FFF00
ENDCHAR
STARTCHAR 0503
ENCODING 1283
SWIDTH 880 0
DWIDTH 22 0
BBX 19 19 1 0
BITMAP
006000
006000
006000
006000
006000
006000
1F6000
3FE000
70E0C0
6060E0
E06060
E06060
C06060
C06060
E06060
6060E0
70F1C0
3FBF80
1F1F00
ENDCHAR
STARTCHAR 0504
ENCODING 1284
SWIDTH 800 0
DWIDTH 20 0
BBX 17 18 1 0
BITMAP
FE0000
FF8000
03C000
01C000
00C000
00C000
01C300
038380
3F0180
3F0180
038180
01C180
00C180
00C180
00C380
00C700
00FE00
007C00
ENDCHAR
STARTCHAR 0505
ENCODING 1285
SWIDTH 640 0
DWIDTH 16 0
BBX 14 13 1 0
BITMAP
FC00
FE00
0700
0300
031C
070C
7C0C
7E0C
070C
030C
031C
03F8
01F0
ENDCHAR
STARTCHAR 0506
ENCODING 1286
SWIDTH 520 0
DWIDTH 13 0
BBX 11 22 1 -4
BITMAP
FC00
FF00
0380
0180
0180
0180
0180
0300
7E00
7F00
0380
0180
0180
0180
0180
01E0
01E0
01E0
0060
0060
00C0
0040
ENDCHAR
STARTCHAR 0507
ENCODING 1287
SWIDTH 520 0
DWIDTH 13 0
BBX 11 17 1 -4
BITMAP
FE00
FF00
0380
0180
0180
0380
7E00
7F00
0380
0180
0180
01E0
01E0
0060
00E0
00C0
0080
ENDCHAR
STARTCHAR 0508
ENCODING 1288
SWIDTH 960 0
DWIDTH 24 0
BBX 22 18 1 0
BITMAP
0FFC00
0FFC00
0C0C00
0C0C00
0C0C00
0C0C00
0C0C18
1C0C1C
1C0C0C
1C0C0C
1C0C0C
1C0C0C
180C0C
180C0C
180C1C
380E38
F007F0
E003E0
ENDCHAR
STARTCHAR 0509
ENCODING 1289
SWIDTH 800 0
DWIDTH 20 0
BBX 18 13 1 0
BITMAP
1FE000
1FE000
186000
1861C0
1860C0
1860C0
1860C0
3860C0
3860C0
3060C0
7071C0
F03F80
E01F00
ENDCHAR
STARTCHAR 050A
ENCODING 1290
SWIDTH 1000 0
DWIDTH 25 0
BBX 21 18 2 0
BITMAP
C01800
C01800
C01800
C01800
C01800
C01800
C01830
C01838
FFF818
FFF818
C01818
C01818
C01818
C01818
C01838
C01C70
C00FE0
C007C0
ENDCHAR
STARTCHAR 050B
ENCODING 1291
SWIDTH 840 0
DWIDTH 21 0
BBX 18 13 2 0
BITMAP
C0C000
C0C000
C0C000
C0C180
C0C180
FFC1C0
FFC1C0
C0C1C0
C0C1C0
C0E180
C06380
C07F00
C03E00
ENDCHAR
STARTCHAR 050C
ENCODING 1292
SWIDTH 640 0
DWIDTH 16 0
BBX 13 18 1 0
BITMAP
07E0
1FF0
3820
7000
6000
6000
E000
E000
E038
E018
E018
E018
6018
6018
7018
3838
1FF0
07C0
ENDCHAR
STARTCHAR 050D
ENCODING 1293
SWIDTH 520 0
DWIDTH 13 0
BBX 11 13 1 0
BITMAP
0F80
3F80
7080
6000
E000
E000
C000
E0E0
E060
60E0
70E0
3FC0
0F80
ENDCHAR
STARTCHAR 050E
ENCODING 1294
SWIDTH 720 0
DWIDTH 18 0
BBX 16 18 0 0
BITMAP
FFFC
FFFC
0380
0380
0380
0380
0387
0383
0383
0383
0383
0383
0383
0383
0387
018E
01FE
00F8
ENDCHAR
STARTCHAR 050F
ENCODING 1295
SWIDTH 640 0
DWIDTH 16 0
BBX 14 13 1 0
BITMAP
FFE0
FFE0
0E00
0E00
0E18
0E18
0E1C
0E1C
0E1C
0E18
0638
07F0
03E0
ENDCHAR
STARTCHAR 0510
ENCODING 1296
SWIDTH 680 0
DWIDTH 17 0
BBX 14 18 2 0
BITMAP
0FC0
3FF0
7078
E018
E018
E000
E000
7000
3F80
3F80
7000
E000
C000
C01C
E018
7078
3FF0
0FC0
ENDCHAR
STARTCHAR 0511
ENCODING 1297
SWIDTH 520 0
DWIDTH 13 0
BBX 11 13 1 0
BITMAP
1F80
7FC0
60E0
E000
6000
3F00
7F00
6000
E000
E060
60E0
7FC0
1F00
ENDCHAR
STARTCHAR 0512
ENCODING 1298
SWIDTH 760 0
DWIDTH 19 0
BBX 17 23 1 -5
BITMAP
0FFE00
1FFE00
1C0E00
1C0E00
1C0E00
1C0E00
1C0E00
1C0E00
1C0E00
180E00
180E00
180E00
180E00
180E00
380E00
300E00
F00F80
E00F80
000380
000380
000380
000F00
001E00
ENDCHAR
STARTCHAR 0513
ENCODING 1299
SWIDTH 600 0
DWIDTH 15 0
BBX 14 18 1 -5
BITMAP
1FF0
1FF0
3870
3870
3870
3870
3870
3070
3070
3070
7070
E07C
C07C
000C
001C
001C
0078
00F0
ENDCHAR
STARTCHAR 1E00
ENCODING 7680
SWIDTH 640 0
DWIDTH 16 0
BBX 16 23 0 -5
BITMAP
0180
01C0
03C0
03E0
0760
0660
0670
0C30
0C30
0C18
1818
1FFC
3FFC
300C
300E
7006
6006
6007
8000
01C0
0240
0240
01C0
ENDCHAR
STARTCHAR 1E01
ENCODING 7681
SWIDTH 560 0
DWIDTH 14 0
BBX 11 18 1 -5
BITMAP
1F00
3FC0
60C0
60E0
0060
1FE0
7FE0
6060
E060
E0E0
61E0
7FE0
3E60
0000
0C00
1200
1200
0C00
ENDCHAR
STARTCHAR 1E3E
ENCODING 7742
SWIDTH 880 0
DWIDTH 22 0
BBX 18 23 2 0
BITMAP
003800
007000
00E000
00C000
000000
E001C0
F003C0
F003C0
F007C0
D806C0
D806C0
DC0CC0
CC0DC0
CC1DC0
C619C0
C619C0
C731C0
C331C0
C371C0
C1E1C0
C1E1C0
C1C1C0
C0C1C0
ENDCHAR
STARTCHAR 1E3F
ENCODING 7743
SWIDTH 880 0
DWIDTH 22 0
BBX 18 19 2 0
BITMAP
003800
007000
006000
00C000
000000
000000
DF1F00
FFBF80
E1E1C0
C0C0C0
C0C0C0
C0C0C0
C0C0C0
C0C0C0
C0C0C0
C0C0C0
C0C0C0
C0C0C0
C0C0C0
ENDCHAR
STARTCHAR 1E80
ENCODING 7808
SWIDTH 880 0
DWIDTH 22 0
BBX 21 23 1 0
BITMAP
03C000
00C000
00E000
007000
000000
C06038
C07030
E07030
60F070
60F070
60D860
71D860
319860
318CE0
318CC0
330CC0
3B0CC0
1B07C0
1E0780
1E0780
1E0380
0E0380
0C0300
ENDCHAR
STARTCHAR 1E81
ENCODING 7809
SWIDTH 760 0
DWIDTH 19 0
BBX 17 19 1 0
BITMAP
070000
030000
038000
01C000
000000
000000
C18180
C1C180
C1C300
63C300
636300
636300
766600
363600
363600
3C3400
1C1C00
1C1C00
181C00
ENDCHAR
STARTCHAR 1E82
ENCODING 7810
SWIDTH 880 0
DWIDTH 22 0
BBX 21 23 1 0
BITMAP
001C00
003800
003000
006000
000000
C06038
C07030
E07030
60F070
60F070
60D860
71D860
319860
318CE0
318CC0
330CC0
3B0CC0
1B07C0
1E0780
1E0780
1E0380
0E0380
0C0300
ENDCHAR
STARTCHAR 1E83
ENCODING 7811
SWIDTH 760 0
DWIDTH 19 0
BBX 17 19 1 0
BITMAP
007000
00E000
00C000
018000
000000
000000
C18180
C1C180
C1C300
63C300
636300
636300
766600
363600
363600
3C3400
1C1C00
1C1C00
181C00
ENDCHAR
STARTCHAR 1E84
ENCODING 7812
SWIDTH 880 0
DWIDTH 22 0
BBX 21 23 1 0
BITMAP
010800
038C00
018C00
000000
000000
C06038
C07030
E07030
60F070
60F070
60D860
71D860
319860
318CE0
318CC0
330CC0
3B0CC0
1B07C0
1E0780
1E0780
1E0380
0E0380
0C0300
ENDCHAR
STARTCHAR 1E85
ENCODING 7813
SWIDTH 760 0
DWIDTH 19 0
BBX 17 18 1 0
BITMAP
042000
0E3000
063000
000000
000000
C18180
C1C180
C1C300
63C300
636300
636300
766600
363600
363600
3C3400
1C1C00
1C1C00
181C00
ENDCHAR
STARTCHAR 1EA0
ENCODING 7840
SWIDTH 640 0
DWIDTH 16 0
BBX 16 23 0 -5
BITMAP
0180
01C0
03C0
03E0
0760
0660
0670
0C30
0C30
0C18
1818
1FFC
3FFC
300C
300E
7006
6006
6007
8000
0000
0180
01C0
0080
ENDCHAR
STARTCHAR 1EA1
ENCODING 7841
SWIDTH 560 0
DWIDTH 14 0
BBX 11 18 1 -5
BITMAP
1F00
3FC0
60C0
60E0
0060
1FE0
7FE0
6060
E060
E0E0
61E0
7FE0
3E60
0000
0000
0C00
0C00
0800
ENDCHAR
STARTCHAR 1EA2
ENCODING 7842
SWIDTH 640 0
DWIDTH 16 0
BBX 16 24 0 0
BITMAP
01C0
00E0
0060
01E0
0180
0000
0180
01C0
03C0
03E0
0760
0660
0670
0C30
0C30
0C18
1818
1FFC
3FFC
300C
300E
7006
6006
E007
ENDCHAR
STARTCHAR 1EA3
ENCODING 7843
SWIDTH 560 0
DWIDTH 14 0
BBX 11 20 1 0
BITMAP
0700
0380
0180
0700
0600
0000
0000
1F00
3FC0
60C0
60E0
0060
1FE0
7FE0
6060
E060
E0E0
61E0
7FE0
3E60
ENDCHAR
STARTCHAR 1EA4
ENCODING 7844
SWIDTH 640 0
DWIDTH 16 0
BBX 16 24 0 0
BITMAP
0007
000E
01CC
0760
0E38
0000
0180
01C0
03C0
03E0
0760
0660
0670
0C30
0C30
0C18
1818
1FFC
3FFC
300C
300E
7006
6006
E007
ENDCHAR
STARTCHAR 1EA5
ENCODING 7845
SWIDTH 560 0
DWIDTH 14 0
BBX 14 19 1 0
BITMAP
001C
0038
0F30
1F80
38E0
0000
1F00
3FC0
60C0
60E0
0060
1FE0
7FE0
6060
E060
E0E0
61E0
7FE0
3E60
ENDCHAR
STARTCHAR 1EA6
ENCODING 7846
SWIDTH 640 0
DWIDTH 16 0
BBX 16 24 0 0
BITMAP
E000
3000
39C0
0760
0E38
0000
0180
01C0
03C0
03E0
0760
0660
0670
0C30
0C30
0C18
1818
1FFC
3FFC
300C
300E
7006
6006
E007
ENDCHAR
STARTCHAR 1EA7
ENCODING 7847
SWIDTH 560 0
DWIDTH 14 0
BBX 13 19 -1 0
BITMAP
E000
3000
33C0
07E0
0E38
0000
07C0
0FF0
1830
1838
0018
07F8
1FF8
1818
3818
3838
1878
1FF8
0F98
ENDCHAR
STARTCHAR 1EA8
ENCODING 7848
SWIDTH 640 0
DWIDTH 16 0
BBX 16 25 0 0
BITMAP
001C
0006
000E
03C8
0660
0C38
0000
0180
01C0
03C0
03E0
0760
0660
0670
0C30
0C30
0C18
1818
1FFC
3FFC
300C
300E
7006
6006
E007
ENDCHAR
STARTCHAR 1EA9
ENCODING 7849
SWIDTH 560 0
DWIDTH 14 0
BBX 13 20 1 0
BITMAP
0070
0018
0030
0F20
1980
30E0
0000
1F00
3FC0
60C0
60E0
0060
1FE0
7FE0
6060
E060
E0E0
61E0
7FE0
3E60
ENDCHAR
STARTCHAR 1EAA
ENCODING 7850
SWIDTH 640 0
DWIDTH 16 0
BBX 16 25 0 0
BITMAP
07A0
04E0
0000
01C0
0760
0C38
0000
0180
01C0
03C0
03E0
0760
0660
0670
0C30
0C30
0C18
1818
1FFC
3FFC
300C
300E
7006
6006
E007
ENDCHAR
STARTCHAR 1EAB
ENCODING 7851
SWIDTH 560 0
DWIDTH 14 0
BBX 11 20 1 0
BITMAP
1E80
1380
0000
0700
1D80
30E0
0000
1F00
3FC0
60C0
60E0
0060
1FE0
7FE0
6060
E060
E0E0
61E0
7FE0
3E60
ENDCHAR
STARTCHAR 1EAC
ENCODING 7852
SWIDTH 640 0
DWIDTH 16 0
BBX 16 27 0 -5
BITMAP
01C0
03E0
0630
0000
0180
01C0
03C0
03E0
0760
0660
0670
0C30
0C30
0C18
1818
1FFC
3FFC
300C
300E
7006
6006
6007
8000
0000
0180
01C0
0080
ENDCHAR
STARTCHAR 1EAD
ENCODING 7853
SWIDTH 560 0
DWIDTH 14 0
BBX 11 23 1 -5
BITMAP
0600
0F80
39C0
0000
0000
1F00
3FC0
60C0
60E0
0060
1FE0
7FE0
6060
E060
E0E0
61E0
7FE0
3E60
0000
0000
0C00
0C00
0800
ENDCHAR
STARTCHAR 1EAE
ENCODING 7854
SWIDTH 640 0
DWIDTH 16 0
BBX 16 24 0 0
BITMAP
00E0
0180
0C30
0660
03C0
0000
0180
01C0
03C0
03E0
0760
0660
0670
0C30
0C30
0C18
1818
1FFC
3FFC
300C
300E
7006
6006
E007
ENDCHAR
STARTCHAR 1EAF
ENCODING 7855
SWIDTH 560 0
DWIDTH 14 0
BBX 11 20 1 0
BITMAP
0380
0600
30C0
1980
0F00
0000
0000
1F00
3FC0
60C0
60E0
0060
1FE0
7FE0
6060
E060
E0E0
61E0
7FE0
3E60
ENDCHAR
STARTCHAR 1EB0
ENCODING 7856
SWIDTH 640 0
DWIDTH 16 0
BBX 16 24 0 0
BITMAP
0300
0180
0C30
0660
03C0
0000
0180
01C0
03C0
03E0
0760
0660
0670
0C30
0C30
0C18
1818
1FFC
3FFC
300C
300E
7006
6006
E007
ENDCHAR
STARTCHAR 1EB1
ENCODING 7857
SWIDTH 560 0
DWIDTH 14 0
BBX 11 20 1 0
BITMAP
0C00
0600
30C0
1980
0F00
0000
0000
1F00
3FC0
60C0
60E0
0060
1FE0
7FE0
6060
E060
E0E0
61E0
7FE0
3E60
ENDCHAR
STARTCHAR 1EB2
ENCODING 7858
SWIDTH 640 0
DWIDTH 16 0
BBX 16 26 0 0
BITMAP
01C0
0060
01E0
0180
0C30
0660
03C0
0000
0180
01C0
03C0
03E0
0760
0660
0670
0C30
0C30
0C18
1818
1FFC
3FFC
300C
300E
7006
6006
E007
ENDCHAR
STARTCHAR 1EB3
ENCODING 7859
SWIDTH 560 0
DWIDTH 14 0
BBX 11 22 1 0
BITMAP
0700
0180
0700
0600
30C0
1980
0F00
0000
0000
1F00
3FC0
60C0
60E0
0060
1FE0
7FE0
6060
E060
E0E0
61E0
7FE0
3E60
ENDCHAR
STARTCHAR 1EB4
ENCODING 7860
SWIDTH 640 0
DWIDTH 16 0
BBX 16 26 0 0
BITMAP
0020
07B0
04E0
0000
0C30
0660
03C0
0000
0180
01C0
03C0
03E0
0760
0660
0670
0C30
0C30
0C18
1818
1FFC
3FFC
300C
300E
7006
6006
E007
ENDCHAR
STARTCHAR 1EB5
ENCODING 7861
SWIDTH 560 0
DWIDTH 14 0
BBX 11 22 1 0
BITMAP
0080
1EC0
1380
0000
30C0
1980
0F00
0000
0000
1F00
3FC0
60C0
60E0
0060
1FE0
7FE0
6060
E060
E0E0
61E0
7FE0
3E60
ENDCHAR
STARTCHAR 1EB6
ENCODING 7862
SWIDTH 640 0
DWIDTH 16 0
BBX 16 27 0 -5
BITMAP
0430
07E0
03C0
0000
0180
01C0
03C0
03E0
0760
0660
0670
0C30
0C30
0C18
1818
1FFC
3FFC
300C
300E
7006
6006
6007
8000
0000
0180
01C0
0080
ENDCHAR
STARTCHAR 1EB7
ENCODING 7863
SWIDTH 560 0
DWIDTH 14 0
BBX 11 23 1 -5
BITMAP
38C0
1F80
0F00
0000
0000
1F00
3FC0
60C0
60E0
0060
1FE0
7FE0
6060
E060
E0E0
61E0
7FE0
3E60
0000
0000
0C00
0C00
0800
ENDCHAR
STARTCHAR 1EB8
ENCODING 7864
SWIDTH 560 0
DWIDTH 14 0
BBX 11 23 2 -5
BITMAP
FFE0
FFE0
C000
C000
C000
C000
C000
C000
FFC0
FFC0
C000
C000
C000
C000
C000
C000
FFE0
FFE0
0000
0000
0E00
0E00
0400
ENDCHAR
STARTCHAR 1EB9
ENCODING 7865
SWIDTH 520 0
DWIDTH 13 0
BBX 11 18 1 -5
BITMAP
0F00
3FC0
70E0
6060
E060
FFE0
FFE0
E000
E000
6000
7060
3FC0
0F80
0000
0000
0600
0600
0400
ENDCHAR
STARTCHAR 1EBA
ENCODING 7866
SWIDTH 560 0
DWIDTH 14 0
BBX 11 24 2 0
BITMAP
0600
0300
0300
0700
0400
0000
FFE0
FFE0
C000
C000
C000
C000
C000
C000
FFC0
FFC0
C000
C000
C000
C000
C000
C000
FFE0
FFE0
ENDCHAR
STARTCHAR 1EBB
ENCODING 7867
SWIDTH 520 0
DWIDTH 13 0
BBX 11 20 1 0
BITMAP
0700
0300
0180
0700
0600
0000
0000
0F00
3FC0
70E0
6060
E060
FFE0
FFE0
E000
E000
6000
7060
3FC0
0F80
ENDCHAR
STARTCHAR 1EBC
ENCODING 7868
SWIDTH 560 0
DWIDTH 14 0
BBX 11 23 2 0
BITMAP
18C0
3FC0
6780
0000
0000
FFE0
FFE0
C000
C000
C000
C000
C000
C000
FFC0
FFC0
C000
C000
C000
C000
C000
C000
FFE0
FFE0
ENDCHAR
STARTCHAR 1EBD
ENCODING 7869
SWIDTH 520 0
DWIDTH 13 0
BBX 11 18 1 0
BITMAP
1840
3FC0
2380
0000
0000
0F00
3FC0
70E0
6060
E060
FFE0
FFE0
E000
E000
6000
7060
3FC0
0F80
ENDCHAR
STARTCHAR 1EBE
ENCODING 7870
SWIDTH 560 0
DWIDTH 14 0
BBX 13 24 2 0
BITMAP
0018
0030
0E60
3B80
71C0
0000
FFE0
FFE0
C000
C000
C000
C000
C000
C000
FFC0
FFC0
C000
C000
C000
C000
C000
C000
FFE0
FFE0
ENDCHAR
STARTCHAR 1EBF
ENCODING 7871
SWIDTH 520 0
DWIDTH 13 0
BBX 14 19 1 0
BITMAP
001C
0030
0F70
1F80
71C0
0000
0F00
3FC0
70E0
6060
E060
FFE0
FFE0
E000
E000
6000
7060
3FC0
0F80
ENDCHAR
STARTCHAR 1EC0
ENCODING 7872
SWIDTH 560 0
DWIDTH 14 0
BBX 13 24 0 0
BITMAP
E000
6000
3380
0EE0
1C70
0000
3FF8
3FF8
3000
3000
3000
3000
3000
3000
3FF0
3FF0
3000
3000
3000
3000
3000
3000
3FF8
3FF8
ENDCHAR
STARTCHAR 1EC1
ENCODING 7873
SWIDTH 520 0
DWIDTH 13 0
BBX 13 19 -1 0
BITMAP
E000
7000
33C0
07E0
1C70
0000
03C0
0FF0
1C38
1818
3818
3FF8
3FF8
3800
3800
1800
1C18
0FF0
03E0
ENDCHAR
STARTCHAR 1EC2
ENCODING 7874
SWIDTH 560 0
DWIDTH 14 0
BBX 12 25 2 0
BITMAP
0060
0030
0070
0E40
3B80
71C0
0000
FFE0
FFE0
C000
C000
C000
C000
C000
C000
FFC0
FFC0
C000
C000
C000
C000
C000
C000
FFE0
FFE0
ENDCHAR
STARTCHAR 1EC3
ENCODING 7875
SWIDTH 520 0
DWIDTH 13 0
BBX 12 20 1 0
BITMAP
0070
0010
0030
0F60
1980
70C0
0000
0F00
3FC0
70E0
6060
E060
FFE0
FFE0
E000
E000
6000
7060
3FC0
0F80
ENDCHAR
STARTCHAR 1EC4
ENCODING 7876
SWIDTH 560 0
DWIDTH 14 0
BBX 11 25 2 0
BITMAP
1D80
2700
0000
0E00
1B80
71C0
0000
FFE0
FFE0
C000
C000
C000
C000
C000
C000
FFC0
FFC0
C000
C000
C000
C000
C000
C000
FFE0
FFE0
ENDCHAR
STARTCHAR 1EC5
ENCODING 7877
SWIDTH 520 0
DWIDTH 13 0
BBX 11 20 1 0
BITMAP
1E80
1300
0000
0E00
1B80
70C0
0000
0F00
3FC0
70E0
6060
E060
FFE0
FFE0
E000
E000
6000
7060
3FC0
0F80
ENDCHAR
STARTCHAR 1EC6
ENCODING 7878
SWIDTH 560 0
DWIDTH 14 0
BBX 11 27 2 -5
BITMAP
0E00
1B00
3180
0000
FFE0
FFE0
C000
C000
C000
C000
C000
C000
FFC0
FFC0
C000
C000
C000
C000
C000
C000
FFE0
FFE0
0000
0000
0E00
0E00
0400
ENDCHAR
STARTCHAR 1EC7
ENCODING 7879
SWIDTH 520 0
DWIDTH 13 0
BBX 11 23 1 -5
BITMAP
0600
1F00
39C0
0000
0000
0F00
3FC0
70E0
6060
E060
FFE0
FFE0
E000
E000
6000
7060
3FC0
0F80
0000
0000
0600
0600
0400
ENDCHAR
STARTCHAR 1EC8
ENCODING 7880
SWIDTH 280 0
DWIDTH 7 0
BBX 4 24 2 0
BITMAP
E0
30
30
70
40
00
E0
E0
E0
E0
E0
E0
E0
E0
E0
E0
E0
E0
E0
E0
E0
E0
E0
E0
ENDCHAR
STARTCHAR 1EC9
ENCODING 7881
SWIDTH 240 0
DWIDTH 6 0
BBX 4 20 2 0
BITMAP
E0
70
30
E0
C0
00
00
C0
C0
C0
C0
C0
C0
C0
C0
C0
C0
C0
C0
C0
ENDCHAR
STARTCHAR 1ECA
ENCODING 7882
SWIDTH 280 0
DWIDTH 7 0
BBX 3 23 2 -5
BITMAP
E0
E0
E0
E0
E0
E0
E0
E0
E0
E0
E0
E0
E0
E0
E0
E0
E0
E0
00
00
C0
E0
40
ENDCHAR
STARTCHAR 1ECB
ENCODING 7883
SWIDTH 240 0
DWIDTH 6 0
BBX 2 23 2 -5
BITMAP
80
C0
C0
00
00
C0
C0
C0
C0
C0
C0
C0
C0
C0
C0
C0
C0
C0
00
00
C0
C0
80
ENDCHAR
STARTCHAR 1ECC
ENCODING 7884
SWIDTH 680 0
DWIDTH 17 0
BBX 15 23 1 -5
BITMAP
07C0
1FF0
3838
301C
700C
600C
600E
E00E
E00E
E00E
E00E
600E
600C
700C
301C
3838
1FF0
07C0
0000
0000
0380
0380
0100
ENDCHAR
STARTCHAR 1ECD
ENCODING 7885
SWIDTH 560 0
DWIDTH 14 0
BBX 12 18 1 -5
BITMAP
0F80
3FC0
70E0
6070
E030
C030
C030
C030
E030
6070
70E0
3FC0
0F80
0000
0000
0600
0600
0400
ENDCHAR
STARTCHAR 1ECE
ENCODING 7886
SWIDTH 680 0
DWIDTH 17 0
BBX 15 24 1 0
BITMAP
0180
00C0
0040
01C0
0180
0000
07C0
1FF0
3838
301C
700C
600C
600E
E00E
E00E
E00E
E00E
600E
600C
700C
301C
3838
1FF0
07C0
ENDCHAR
STARTCHAR 1ECF
ENCODING 7887
SWIDTH 560 0
DWIDTH 14 0
BBX 12 20 1 0
BITMAP
0700
0380
0180
0700
0600
0000
0000
0F80
3FC0
70E0
6070
E030
C030
C030
C030
E030
6070
70E0
3FC0
0F80
ENDCHAR
STARTCHAR 1ED0
ENCODING 7888
SWIDTH 680 0
DWIDTH 17 0
BBX 15 24 1 0
BITMAP
0006
000C
0398
06E0
1C70
0000
07C0
1FF0
3838
301C
700C
600C
600E
E00E
E00E
E00E
E00E
600E
600C
700C
301C
3838
1FF0
07C0
ENDCHAR
STARTCHAR 1ED1
ENCODING 7889
SWIDTH 560 0
DWIDTH 14 0
BBX 14 19 1 0
BITMAP
001C
0038
0F30
1F80
38E0
0000
0F80
3FC0
70E0
6070
E030
C030
C030
C030
E030
6070
70E0
3FC0
0F80
ENDCHAR
STARTCHAR 1ED2
ENCODING 7890
SWIDTH 680 0
DWIDTH 17 0
BBX 15 24 1 0
BITMAP
E000
6000
3380
06E0
1C70
0000
07C0
1FF0
3838
301C
700C
600C
600E
E00E
E00E
E00E
E00E
600E
600C
700C
301C
3838
1FF0
07C0
ENDCHAR
STARTCHAR 1ED3
ENCODING 7891
SWIDTH 560 0
DWIDTH 14 0
BBX 14 19 -1 0
BITMAP
E000
7000
33C0
07E0
0E70
0000
03E0
0FF0
1C38
181C
380C
300C
300C
300C
380C
181C
1C38
0FF0
03E0
ENDCHAR
STARTCHAR 1ED4
ENCODING 7892
SWIDTH 680 0
DWIDTH 17 0
BBX 15 25 1 0
BITMAP
0018
000C
001C
0390
0EE0
1C70
0000
07C0
1FF0
3838
301C
700C
600C
600E
E00E
E00E
E00E
E00E
600E
600C
700C
301C
3838
1FF0
07C0
ENDCHAR
STARTCHAR 1ED5
ENCODING 7893
SWIDTH 560 0
DWIDTH 14 0
BBX 13 20 1 0
BITMAP
0070
0010
0038
0F60
1980
30C0
0000
0F80
3FC0
70E0
6070
E030
C030
C030
C030
E030
6070
70E0
3FC0
0F80
ENDCHAR
STARTCHAR 1ED6
ENCODING 7894
SWIDTH 680 0
DWIDTH 17 0
BBX 15 25 1 0
BITMAP
0760
0DC0
0000
0380
06E0
1C70
0000
07C0
1FF0
3838
301C
700C
600C
600E
E00E
E00E
E00E
E00E
600E
600C
700C
301C
3838
1FF0
07C0
ENDCHAR
STARTCHAR 1ED7
ENCODING 7895
SWIDTH 560 0
DWIDTH 14 0
BBX 12 20 1 0
BITMAP
1E80
1300
0000
0F00
1980
30C0
0000
0F80
3FC0
70E0
6070
E030
C030
C030
C030
E030
6070
70E0
3FC0
0F80
ENDCHAR
STARTCHAR 1ED8
ENCODING 7896
SWIDTH 680 0
DWIDTH 17 0
BBX 15 27 1 -5
BITMAP
0380
06C0
0C60
0000
07C0
1FF0
3838
301C
700C
600C
600E
E00E
E00E
E00E
E00E
600E
600C
700C
301C
3838
1FF0
07C0
0000
0000
0380
0380
0100
ENDCHAR
STARTCHAR 1ED9
ENCODING 7897
SWIDTH 560 0
DWIDTH 14 0
BBX 12 23 1 -5
BITMAP
0600
1F80
39C0
0000
0000
0F80
3FC0
70E0
6070
E030
C030
C030
C030
E030
6070
70E0
3FC0
0F80
0000
0000
0600
0600
0400
ENDCHAR
STARTCHAR 1EDA
ENCODING 7898
SWIDTH 680 0
DWIDTH 17 0
BBX 17 23 1 0
BITMAP
00E000
00C000
018000
038000
000380
07C300
1FF700
383E00
701800
601C00
600C00
E00C00
E00C00
E00E00
E00E00
E00C00
E00C00
600C00
601C00
701800
383800
1FF000
07C000
ENDCHAR
STARTCHAR 1EDB
ENCODING 7899
SWIDTH 560 0
DWIDTH 14 0
BBX 14 19 1 0
BITMAP
01C0
0380
0300
0600
0000
000C
0F8C
3FD8
70F0
6070
E030
C030
C030
C030
E030
6070
70E0
3FC0
0F80
ENDCHAR
STARTCHAR 1EDC
ENCODING 7900
SWIDTH 680 0
DWIDTH 17 0
BBX 17 23 1 0
BITMAP
0E0000
070000
030000
018000
000380
07C300
1FF700
383E00
701800
601C00
600C00
E00C00
E00C00
E00E00
E00E00
E00C00
E00C00
600C00
601C00
701800
383800
1FF000
07C000
ENDCHAR
STARTCHAR 1EDD
ENCODING 7901
SWIDTH 560 0
DWIDTH 14 0
BBX 14 19 1 0
BITMAP
3800
1C00
0E00
0600
0000
000C
0F8C
3FD8
70F0
6070
E030
C030
C030
C030
E030
6070
70E0
3FC0
0F80
ENDCHAR
STARTCHAR 1EDE
ENCODING 7902
SWIDTH 680 0
DWIDTH 17 0
BBX 17 24 1 0
BITMAP
018000
00C000
00C000
01C000
010000
000380
07C300
1FF700
383E00
701800
601C00
600C00
E00C00
E00C00
E00E00
E00E00
E00C00
E00C00
600C00
601C00
701800
383800
1FF000
07C000
ENDCHAR
STARTCHAR 1EDF
ENCODING 7903
SWIDTH 560 0
DWIDTH 14 0
BBX 14 20 1 0
BITMAP
0700
0380
0180
0700
0600
0000
000C
0F8C
3FD8
70F0
6070
E030
C030
C030
C030
E030
6070
70E0
3FC0
0F80
ENDCHAR
STARTCHAR 1EE0
ENCODING 7904
SWIDTH 680 0
DWIDTH 17 0
BBX 17 23 1 0
BITMAP
063000
0FF000
19E000
000000
000380
07C300
1FF700
383E00
701800
601C00
600C00
E00C00
E00C00
E00E00
E00E00
E00C00
E00C00
600C00
601C00
701800
383800
1FF000
07C000
ENDCHAR
STARTCHAR 1EE1
ENCODING 7905
SWIDTH 560 0
DWIDTH 14 0
BBX 14 18 1 0
BITMAP
1C40
3FC0
3380
0000
000C
0F8C
3FD8
70F0
6070
E030
C030
C030
C030
E030
6070
70E0
3FC0
0F80
ENDCHAR
STARTCHAR 1EE2
ENCODING 7906
SWIDTH 680 0
DWIDTH 17 0
BBX 17 24 1 -5
BITMAP
000380
07C300
1FF700
383E00
701800
601C00
600C00
E00C00
E00C00
E00E00
E00E00
E00C00
E00C00
600C00
601C00
701800
383800
1FF000
07C000
000000
000000
030000
038000
010000
ENDCHAR
STARTCHAR 1EE3
ENCODING 7907
SWIDTH 560 0
DWIDTH 14 0
BBX 14 19 1 -5
BITMAP
000C
0F8C
3FD8
70F0
6070
E030
C030
C030
C030
E030
6070
70E0
3FC0
0F80
0000
0000
0600
0600
0400
ENDCHAR
STARTCHAR 1EE4
ENCODING 7908
SWIDTH 640 0
DWIDTH 16 0
BBX 13 23 2 -5
BITMAP
C038
C038
C038
C038
C038
C038
C038
C038
C038
C038
C038
C038
C038
C030
E030
7070
3FE0
1F80
0000
0000
0600
0600
0400
ENDCHAR
STARTCHAR 1EE5
ENCODING 7909
SWIDTH 560 0
DWIDTH 14 0
BBX 10 18 2 -5
BITMAP
C0C0
C0C0
C0C0
C0C0
C0C0
C0C0
C0C0
C0C0
C0C0
C0C0
E1C0
FFC0
3CC0
0000
0000
1800
1800
1000
ENDCHAR
STARTCHAR 1EE6
ENCODING 7910
SWIDTH 640 0
DWIDTH 16 0
BBX 13 24 2 0
BITMAP
0700
0380
0180
0700
0600
0000
C038
C038
C038
C038
C038
C038
C038
C038
C038
C038
C038
C038
C038
C030
E030
7070
3FE0
1F80
ENDCHAR
STARTCHAR 1EE7
ENCODING 7911
SWIDTH 560 0
DWIDTH 14 0
BBX 10 20 2 0
BITMAP
0C00
0700
0300
0E00
0C00
0000
0000
C0C0
C0C0
C0C0
C0C0
C0C0
C0C0
C0C0
C0C0
C0C0
C0C0
E1C0
FFC0
3CC0
ENDCHAR
STARTCHAR 1EE8
ENCODING 7912
SWIDTH 680 0
DWIDTH 17 0
BBX 17 23 2 0
BITMAP
01C000
018000
030000
060000
000180
C03980
C03980
C03F00
C03E00
C03800
C03800
C03800
C03800
C03800
C03800
C03800
C03800
C03800
C03000
E03000
707000
3FE000
1F8000
ENDCHAR
STARTCHAR 1EE9
ENCODING 7913
SWIDTH 600 0
DWIDTH 15 0
BBX 14 19 2 0
BITMAP
0380
0700
0E00
0C00
0000
000C
C0CC
C0F8
C0F0
C0C0
C0C0
C0C0
C0C0
C0C0
C0C0
C0C0
E1C0
FFC0
3CC0
ENDCHAR
STARTCHAR 1EEA
ENCODING 7914
SWIDTH 680 0
DWIDTH 17 0
BBX 17 23 2 0
BITMAP
1C0000
0C0000
060000
070000
000180
C03980
C03980
C03F00
C03E00
C03800
C03800
C03800
C03800
C03800
C03800
C03800
C03800
C03800
C03000
E03000
707000
3FE000
1F8000
ENDCHAR
STARTCHAR 1EEB
ENCODING 7915
SWIDTH 600 0
DWIDTH 15 0
BBX 14 19 2 0
BITMAP
7000
3800
1C00
0C00
0000
000C
C0CC
C0F8
C0F0
C0C0
C0C0
C0C0
C0C0
C0C0
C0C0
C0C0
E1C0
FFC0
3CC0
ENDCHAR
STARTCHAR 1EEC
ENCODING 7916
SWIDTH 680 0
DWIDTH 17 0
BBX 17 24 2 0
BITMAP
070000
018000
018000
038000
020000
000180
C03980
C03980
C03F00
C03E00
C03800
C03800
C03800
C03800
C03800
C03800
C03800
C03800
C03800
C03000
E03000
707000
3FE000
1F8000
ENDCHAR
STARTCHAR 1EED
ENCODING 7917
SWIDTH 600 0
DWIDTH 15 0
BBX 14 20 2 0
BITMAP
0E00
0700
0300
0E00
0C00
0000
000C
C0CC
C0F8
C0F0
C0C0
C0C0
C0C0
C0C0
C0C0
C0C0
C0C0
E1C0
FFC0
3CC0
ENDCHAR
STARTCHAR 1EEE
ENCODING 7918
SWIDTH 680 0
DWIDTH 17 0
BBX 17 23 2 0
BITMAP
0C6000
1FE000
33C000
000000
000180
C03980
C03980
C03F00
C03E00
C03800
C03800
C03800
C03800
C03800
C03800
C03800
C03800
C03800
C03000
E03000
707000
3FE000
1F8000
ENDCHAR
STARTCHAR 1EEF
ENCODING 7919
SWIDTH 600 0
DWIDTH 15 0
BBX 14 18 2 0
BITMAP
3080
7F80
4700
0000
000C
C0CC
C0F8
C0F0
C0C0
C0C0
C0C0
C0C0
C0C0
C0C0
C0C0
E1C0
FFC0
3CC0
ENDCHAR
STARTCHAR 1EF0
ENCODING 7920
SWIDTH 680 0
DWIDTH 17 0
BBX 17 24 2 -5
BITMAP
000180
C03980
C03980
C03F00
C03E00
C03800
C03800
C03800
C03800
C03800
C03800
C03800
C03800
C03800
C03000
E03000
707000
3FE000
1F8000
000000
000000
060000
070000
020000
ENDCHAR
STARTCHAR 1EF1
ENCODING 7921
SWIDTH 600 0
DWIDTH 15 0
BBX 14 19 2 -5
BITMAP
000C
C0CC
C0F8
C0F0
C0C0
C0C0
C0C0
C0C0
C0C0
C0C0
C0C0
E1C0
FFC0
3CC0
0000
0000
0C00
1C00
0800
ENDCHAR
STARTCHAR 1EF2
ENCODING 7922
SWIDTH 600 0
DWIDTH 15 0
BBX 15 23 0 0
BITMAP
0E00
0600
0300
0380
0000
E00E
701C
3018
3838
1830
1C70
0C60
0EE0
06C0
07C0
0380
0380
0380
0380
0380
0380
0380
0380
ENDCHAR
STARTCHAR 1EF3
ENCODING 7923
SWIDTH 480 0
DWIDTH 12 0
BBX 12 24 0 -5
BITMAP
3800
0C00
0E00
0600
0000
0000
E070
6060
70E0
30C0
30C0
39C0
1980
1980
1F80
0F00
0F00
0600
0600
0600
0C00
0C00
7800
7000
ENDCHAR
STARTCHAR 1EF4
ENCODING 7924
SWIDTH 600 0
DWIDTH 15 0
BBX 15 23 0 -5
BITMAP
E00E
701C
3018
3838
1830
1C70
0C60
0EE0
06C0
07C0
0380
0380
0380
0380
0380
0380
0380
0380
0000
0000
0300
0380
0100
ENDCHAR
STARTCHAR 1EF5
ENCODING 7925
SWIDTH 480 0
DWIDTH 12 0
BBX 12 20 0 -7
BITMAP
E070
6060
70E0
30C0
30C0
39C0
1980
1980
1F80
0F00
0F00
0600
0600
0600
0C00
0C00
7800
70C0
01C0
0080
ENDCHAR
STARTCHAR 1EF6
ENCODING 7926
SWIDTH 600 0
DWIDTH 15 0
BBX 15 24 0 0
BITMAP
0180
02C0
00C0
01C0
0100
0000
E00E
701C
3018
3838
1830
1C70
0C60
0EE0
06C0
07C0
0380
0380
0380
0380
0380
0380
0380
0380
ENDCHAR
STARTCHAR 1EF7
ENCODING 7927
SWIDTH 480 0
DWIDTH 12 0
BBX 12 25 0 -5
BITMAP
0700
0380
0180
0780
0600
0000
0000
E070
6060
70E0
30C0
30C0
39C0
1980
1980
1F80
0F00
0F00
0600
0600
0600
0C00
0C00
7800
7000
ENDCHAR
STARTCHAR 1EF8
ENCODING 7928
SWIDTH 600 0
DWIDTH 15 0
BBX 15 23 0 0
BITMAP
0630
0FF0
19E0
0000
0000
E00E
701C
3018
3838
1830
1C70
0C60
0EE0
06C0
07C0
0380
0380
0380
0380
0380
0380
0380
0380
ENDCHAR
STARTCHAR 1EF9
ENCODING 7929
SWIDTH 480 0
DWIDTH 12 0
BBX 12 23 0 -5
BITMAP
1C60
3FC0
3380
0000
0000
E070
6060
70E0
30C0
30C0
39C0
1980
1980
1F80
0F00
0F00
0600
0600
0600
0C00
0C00
7800
7000
ENDCHAR
STARTCHAR 1F4D
ENCODING 8013
SWIDTH 720 0
DWIDTH 18 0
BBX 23 18 -6 0
BITMAP
C707C0
C61FF0
6C3838
287018
00601C
00600C
00E00C
00E00E
00E00E
00E00E
00E00E
00E00C
00600C
00600C
00701C
003838
001FF0
0007C0
ENDCHAR
STARTCHAR 2000
ENCODING 8192
SWIDTH 520 0
DWIDTH 13 0
BBX 0 0 0 0
BITMAP
ENDCHAR
STARTCHAR 2001
ENCODING 8193
SWIDTH 1040 0
DWIDTH 26 0
BBX 0 0 0 0
BITMAP
ENDCHAR
STARTCHAR 2002
ENCODING 8194
SWIDTH 520 0
DWIDTH 13 0
BBX 0 0 0 0
BITMAP
ENDCHAR
STARTCHAR 2003
ENCODING 8195
SWIDTH 1040 0
DWIDTH 26 0
BBX 0 0 0 0
BITMAP
ENDCHAR
STARTCHAR 2004
ENCODING 8196
SWIDTH 360 0
DWIDTH 9 0
BBX 0 0 0 0
BITMAP
ENDCHAR
STARTCHAR 2005
ENCODING 8197
SWIDTH 240 0
DWIDTH 6 0
BBX 0 0 0 0
BITMAP
ENDCHAR
STARTCHAR 2006
ENCODING 8198
SWIDTH 160 0
DWIDTH 4 0
BBX 0 0 0 0
BITMAP
ENDCHAR
STARTCHAR 2007
ENCODING 8199
SWIDTH 560 0
DWIDTH 14 0
BBX 0 0 0 0
BITMAP
ENDCHAR
STARTCHAR 2008
ENCODING 8200
SWIDTH 280 0
DWIDTH 7 0
BBX 0 0 0 0
BITMAP
ENDCHAR
STARTCHAR 2009
ENCODING 8201
SWIDTH 200 0
DWIDTH 5 0
BBX 0 0 0 0
BITMAP
ENDCHAR
STARTCHAR 200A
ENCODING 8202
SWIDTH 120 0
DWIDTH 3 0
BBX 0 0 0 0
BITMAP
ENDCHAR
STARTCHAR 200B
ENCODING 8203
SWIDTH 0 0
DWIDTH 0 0
BBX 0 0 0 0
BITMAP
ENDCHAR
STARTCHAR 2010
ENCODING 8208
SWIDTH 280 0
DWIDTH 7 0
BBX 6 2 0 6
BITMAP
FC
FC
ENDCHAR
STARTCHAR 2011
ENCODING 8209
SWIDTH 280 0
DWIDTH 7 0
BBX 6 2 0 6
BITMAP
FC
FC
ENDCHAR
STARTCHAR 2013
ENCODING 8211
SWIDTH 640 0
DWIDTH 16 0
BBX 12 2 2 8
BITMAP
FFF0
FFF0
ENDCHAR
STARTCHAR 2014
ENCODING 8212
SWIDTH 800 0
DWIDTH 20 0
BBX 16 2 2 8
BITMAP
FFFF
FFFF
ENDCHAR
STARTCHAR 2015
ENCODING 8213
SWIDTH 800 0
DWIDTH 20 0
BBX 16 2 2 8
BITMAP
FFFF
FFFF
ENDCHAR
STARTCHAR 2017
ENCODING 8215
SWIDTH 440 0
DWIDTH 11 0
BBX 11 5 0 -5
BITMAP
FFE0
FFE0
0000
FFE0
FFE0
ENDCHAR
STARTCHAR 2018
ENCODING 8216
SWIDTH 200 0
DWIDTH 5 0
BBX 4 6 1 13
BITMAP
20
70
60
E0
C0
C0
ENDCHAR
STARTCHAR 2019
ENCODING 8217
SWIDTH 200 0
DWIDTH 5 0
BBX 3 6 1 13
BITMAP
60
60
60
E0
C0
80
ENDCHAR
STARTCHAR 201A
ENCODING 8218
SWIDTH 200 0
DWIDTH 5 0
BBX 4 5 0 -3
BITMAP
30
30
70
60
C0
ENDCHAR
STARTCHAR 201B
ENCODING 8219
SWIDTH 200 0
DWIDTH 5 0
BBX 3 6 1 13
BITMAP
C0
C0
C0
E0
60
20
ENDCHAR
STARTCHAR 201C
ENCODING 8220
SWIDTH 360 0
DWIDTH 9 0
BBX 8 6 1 13
BITMAP
22
77
6E
EC
EC
EC
ENDCHAR
STARTCHAR 201D
ENCODING 8221
SWIDTH 360 0
DWIDTH 9 0
BBX 7 6 1 13
BITMAP
66
66
66
6E
CC
D8
ENDCHAR
STARTCHAR 201E
ENCODING 8222
SWIDTH 360 0
DWIDTH 9 0
BBX 7 7 0 -4
BITMAP
36
36
36
76
66
6E
C4
ENDCHAR
STARTCHAR 2020
ENCODING 8224
SWIDTH 560 0
DWIDTH 14 0
BBX 12 18 1 0
BITMAP
0600
0600
0600
0600
0600
FFF0
FFF0
0600
0600
0600
0600
0600
0600
0600
0600
0600
0600
0600
ENDCHAR
STARTCHAR 2021
ENCODING 8225
SWIDTH 560 0
DWIDTH 14 0
BBX 12 23 1 -5
BITMAP
0600
0600
0600
0600
0600
FFF0
FFF0
0600
0600
0600
0600
0600
0600
0600
0600
0600
FFF0
FFF0
0600
0600
0600
0600
0600
ENDCHAR
STARTCHAR 2022
ENCODING 8226
SWIDTH 320 0
DWIDTH 8 0
BBX 5 5 2 7
BITMAP
70
F8
F8
F8
F0
ENDCHAR
STARTCHAR 2025
ENCODING 8229
SWIDTH 480 0
DWIDTH 12 0
BBX 8 3 2 0
BITMAP
42
E7
C7
ENDCHAR
STARTCHAR 2026
ENCODING 8230
SWIDTH 680 0
DWIDTH 17 0
BBX 13 3 2 0
BITMAP
4210
E738
C738
ENDCHAR
STARTCHAR 2027
ENCODING 8231
SWIDTH 200 0
DWIDTH 5 0
BBX 3 3 1 6
BITMAP
C0
E0
40
ENDCHAR
STARTCHAR 2030
ENCODING 8240
SWIDTH 960 0
DWIDTH 24 0
BBX 22 18 1 0
BITMAP
380000
FC0000
C61000
C61800
C63000
C66000
EE4000
78C000
018000
018000
031EF0
063FF8
06638C
0C610C
18610C
18638C
003FF8
001EF0
ENDCHAR
STARTCHAR 2032
ENCODING 8242
SWIDTH 160 0
DWIDTH 4 0
BBX 2 6 1 13
BITMAP
C0
C0
C0
C0
C0
C0
ENDCHAR
STARTCHAR 2033
ENCODING 8243
SWIDTH 320 0
DWIDTH 8 0
BBX 5 6 2 13
BITMAP
98
98
98
98
90
90
ENDCHAR
STARTCHAR 2039
ENCODING 8249
SWIDTH 320 0
DWIDTH 8 0
BBX 6 10 1 2
BITMAP
0C
18
30
60
60
E0
60
30
18
0C
ENDCHAR
STARTCHAR 203A
ENCODING 8250
SWIDTH 320 0
DWIDTH 8 0
BBX 5 10 1 2
BITMAP
C0
60
30
30
18
18
30
30
60
C0
ENDCHAR
STARTCHAR 203C
ENCODING 8252
SWIDTH 520 0
DWIDTH 13 0
BBX 9 18 2 0
BITMAP
C380
C380
C180
C180
C180
C180
C180
C180
C180
C180
C180
C180
C180
0000
0000
8100
E380
C180
ENDCHAR
STARTCHAR 2044
ENCODING 8260
SWIDTH 440 0
DWIDTH 11 0
BBX 10 15 1 1
BITMAP
0080
01C0
0180
0300
0200
0600
0C00
0C00
1800
1000
3000
6000
6000
C000
8000
ENDCHAR
STARTCHAR 2074
ENCODING 8308
SWIDTH 360 0
DWIDTH 9 0
BBX 8 10 1 8
BITMAP
0C
1C
3C
3C
6C
CC
FF
FF
0C
0C
ENDCHAR
STARTCHAR 207F
ENCODING 8319
SWIDTH 440 0
DWIDTH 11 0
BBX 8 10 1 8
BITMAP
DE
DF
E3
E3
E3
E3
E3
E3
E3
E3
ENDCHAR
STARTCHAR 20A3
ENCODING 8355
SWIDTH 560 0
DWIDTH 14 0
BBX 13 18 0 0
BITMAP
3FF8
3FF8
3000
3000
3000
3000
3000
3000
3FF0
3FF0
3000
3000
3000
FF00
FF00
3000
3000
3000
ENDCHAR
STARTCHAR 20A4
ENCODING 8356
SWIDTH 600 0
DWIDTH 15 0
BBX 13 18 1 0
BITMAP
07C0
1FE0
1C70
3830
3030
3000
3000
3000
FF80
FF80
3000
FF80
FF80
3800
3000
3000
FFF8
FFF8
ENDCHAR
STARTCHAR 20A6
ENCODING 8358
SWIDTH 800 0
DWIDTH 20 0
BBX 19 18 0 0
BITMAP
1C0380
1C0380
1E0380
1F0380
1B0380
1B8380
FFFFE0
FFFFE0
18E380
187380
FFFFE0
FFFFE0
181B80
181F80
180F80
180780
180780
180380
ENDCHAR
STARTCHAR 20A7
ENCODING 8359
SWIDTH 840 0
DWIDTH 21 0
BBX 17 18 2 0
BITMAP
FE0000
FF8000
C1CC00
C0CC00
C0CC00
C0FF80
C0FF80
C0CC00
C1CC00
FF8C00
FE0C00
C00C00
C00C00
C00C00
C00C00
C00C00
C00F80
C00780
ENDCHAR
STARTCHAR 20A8
ENCODING 8360
SWIDTH 1040 0
DWIDTH 26 0
BBX 23 18 2 0
BITMAP
FF8000
FFE000
C0E000
C07000
C03000
C030F8
C033FC
C0770E
C0E606
FFC700
FF83E0
C181F8
C1C01E
C0E006
C06606
C0770E
C033FC
C039F8
ENDCHAR
STARTCHAR 20A9
ENCODING 8361
SWIDTH 760 0
DWIDTH 19 0
BBX 18 18 0 0
BITMAP
60C1C0
60E180
70E180
70E180
31E180
31E380
FFFFC0
FFFFC0
193300
1B3300
FFFFC0
FFFFC0
1B1E00
0F1E00
0E1E00
0E1C00
0E1C00
0E0C00
ENDCHAR
STARTCHAR 20AA
ENCODING 8362
SWIDTH 760 0
DWIDTH 19 0
BBX 16 13 2 0
BITMAP
FF87
FFC7
C0C7
C0E7
CEE7
CEE7
CEE7
CEE7
CEE7
CE06
CE06
CFFE
CFFC
ENDCHAR
STARTCHAR 20AB
ENCODING 8363
SWIDTH 560 0
DWIDTH 14 0
BBX 14 23 1 -4
BITMAP
0060
0060
03FC
03FC
0060
0060
1F60
3FE0
70E0
6060
E060
C060
C060
C060
E060
6060
70E0
3FE0
1F60
0000
0000
7FF0
7FF0
ENDCHAR
STARTCHAR 20AC
ENCODING 8364
SWIDTH 560 0
DWIDTH 14 0
BBX 12 18 1 0
BITMAP
03F0
07F0
0E00
1C00
1800
3800
3800
FF80
FF80
3800
FF80
FF80
3800
1800
1800
1E00
0FF0
03F0
ENDCHAR
STARTCHAR 20B1
ENCODING 8369
SWIDTH 720 0
DWIDTH 18 0
BBX 18 18 0 0
BITMAP
1FF000
1FFC00
180E00
FFFFC0
FFFFC0
180700
FFFFC0
FFFFC0
180E00
1FFC00
1FF000
180000
180000
180000
180000
180000
180000
180000
ENDCHAR
STARTCHAR 20B9
ENCODING 8377
SWIDTH 520 0
DWIDTH 13 0
BBX 11 18 1 0
BITMAP
FFE0
FFE0
0700
0380
FFE0
FFE0
0380
0780
FF00
FC00
7000
7000
3800
1C00
0E00
0E00
0700
0380
ENDCHAR
STARTCHAR 20BA
ENCODING 8378
SWIDTH 560 0
DWIDTH 14 0
BBX 13 18 0 0
BITMAP
1C00
1C00
1C80
1F80
1F00
7C00
FC80
DF80
1F38
7C38
FC38
DC38
1C30
1C30
1C70
1CE0
1FC0
1F00
ENDCHAR
STARTCHAR 20BC
ENCODING 8380
SWIDTH 680 0
DWIDTH 17 0
BBX 14 13 1 0
BITMAP
0300
0300
0FC0
1FF0
3B38
7318
631C
E30C
E30C
E30C
C30C
C30C
C30C
ENDCHAR
STARTCHAR 20BD
ENCODING 8381
SWIDTH 680 0
DWIDTH 17 0
BBX 16 18 0 0
BITMAP
1FF0
1FFC
180E
1806
1807
1807
1807
1806
180E
FFFC
FFF0
1800
1800
FF80
FF80
1800
1800
1800
ENDCHAR
STARTCHAR 2105
ENCODING 8453
SWIDTH 720 0
DWIDTH 18 0
BBX 16 18 1 0
BITMAP
3C00
7E00
4208
C018
C030
4220
7E60
3CC0
0080
0180
031E
023F
0663
0C61
0861
1863
0037
001E
ENDCHAR
STARTCHAR 2113
ENCODING 8467
SWIDTH 480 0
DWIDTH 12 0
BBX 10 19 1 0
BITMAP
0700
0F80
1980
19C0
19C0
19C0
1980
1980
1B80
1B00
1F00
1E00
FC00
F800
1800
1800
1C00
0F00
0700
ENDCHAR
STARTCHAR 2116
ENCODING 8470
SWIDTH 1040 0
DWIDTH 26 0
BBX 22 18 2 0
BITMAP
E030F0
E031F8
F0330C
F0330C
F8330C
D8330C
CC330C
CC339C
C631F8
C63020
C33000
C333FC
C1B3FC
C1B000
C0F000
C0F000
C07000
C07000
ENDCHAR
STARTCHAR 2122
ENCODING 8482
SWIDTH 640 0
DWIDTH 16 0
BBX 12 7 1 11
BITMAP
FA10
2330
2330
2330
22D0
22D0
2250
ENDCHAR
STARTCHAR 2126
ENCODING 8486
SWIDTH 680 0
DWIDTH 17 0
BBX 14 18 1 0
BITMAP
07C0
1FE0
3870
7038
6018
601C
E00C
E00C
E00C
E00C
E00C
601C
6018
7018
3030
1870
FCFC
FCFC
ENDCHAR
STARTCHAR 212E
ENCODING 8494
SWIDTH 640 0
DWIDTH 16 0
BBX 12 13 2 0
BITMAP
0F80
30C0
6060
6030
E030
E030
FFF0
E000
E000
6000
6020
3060
0F80
ENDCHAR
STARTCHAR 215B
ENCODING 8539
SWIDTH 760 0
DWIDTH 19 0
BBX 17 18 1 0
BITMAP
380000
F80000
981000
183000
182000
186000
18C000
18C000
199E00
193F00
033180
063300
061F00
0C3F00
083180
183180
103F00
001E00
ENDCHAR
STARTCHAR 215C
ENCODING 8540
SWIDTH 840 0
DWIDTH 21 0
BBX 19 18 1 0
BITMAP
3C0000
7E0000
C60400
060600
1C0C00
0E1800
031800
C33000
7E2780
3C6FC0
00CC60
00CCC0
0187C0
030FC0
030C60
060C60
040FC0
000780
ENDCHAR
STARTCHAR 215D
ENCODING 8541
SWIDTH 840 0
DWIDTH 21 0
BBX 19 18 1 0
BITMAP
7E0000
7E0000
600400
7C0C00
EE0800
061800
063000
C63000
7E6780
3C4FC0
00CCC0
018CC0
010780
030FC0
061860
061860
0C0FC0
000780
ENDCHAR
STARTCHAR 215E
ENCODING 8542
SWIDTH 800 0
DWIDTH 20 0
BBX 18 18 1 0
BITMAP
FF0000
FE0000
060800
061800
0C3000
0C3000
186000
184000
30CF00
319F80
419980
031980
060F80
061F80
0C10C0
0830C0
181F80
000F00
ENDCHAR
STARTCHAR 2202
ENCODING 8706
SWIDTH 560 0
DWIDTH 14 0
BBX 12 19 1 0
BITMAP
3F00
3F80
41C0
00E0
0060
0070
0F30
3FF0
70F0
6070
E030
E030
E030
E030
6070
6060
70E0
3FC0
0F00
ENDCHAR
STARTCHAR 2206
ENCODING 8710
SWIDTH 720 0
DWIDTH 18 0
BBX 17 18 0 0
BITMAP
00C000
01E000
01E000
03E000
037000
033000
063800
061800
0E1800
0C1C00
1C0C00
180C00
180600
380600
300700
700300
7FFF00
FFFF80
ENDCHAR
STARTCHAR 220F
ENCODING 8719
SWIDTH 680 0
DWIDTH 17 0
BBX 13 21 2 -3
BITMAP
FFF8
FFF8
C018
C018
C018
C018
C018
C018
C018
C018
C018
C018
C018
C018
C018
C018
C018
C018
C018
C018
C018
ENDCHAR
STARTCHAR 2211
ENCODING 8721
SWIDTH 600 0
DWIDTH 15 0
BBX 14 21 1 -3
BITMAP
FFF8
FFF8
E000
7000
3800
1C00
0C00
0600
0300
0380
01C0
0380
0300
0600
0E00
1C00
3800
7000
E000
FFFC
FFFC
ENDCHAR
STARTCHAR 2212
ENCODING 8722
SWIDTH 560 0
DWIDTH 14 0
BBX 10 2 2 8
BITMAP
FFC0
FFC0
ENDCHAR
STARTCHAR 221A
ENCODING 8730
SWIDTH 600 0
DWIDTH 15 0
BBX 13 18 1 0
BITMAP
0018
0038
0030
0030
0070
0060
0060
00E0
F0C0
F0C0
31C0
1980
1980
1F00
0F00
0F00
0E00
0600
ENDCHAR
STARTCHAR 221E
ENCODING 8734
SWIDTH 1040 0
DWIDTH 26 0
BBX 23 14 1 0
BITMAP
0F01F0
3FC3F8
70E71C
606C0E
603C06
E03806
C03806
C03806
E03806
603C06
606C0E
70E61C
3FC3F8
0F01F0
ENDCHAR
STARTCHAR 222B
ENCODING 8747
SWIDTH 240 0
DWIDTH 6 0
BBX 9 24 -1 -5
BITMAP
0780
0F80
1C00
1800
1800
1800
1800
1800
1800
1800
1800
1800
1800
1800
1800
1800
1800
1800
1800
1800
1800
1800
F800
F000
ENDCHAR
STARTCHAR 2248
ENCODING 8776
SWIDTH 560 0
DWIDTH 14 0
BBX 12 9 1 3
BITMAP
7810
FE30
C7F0
81C0
0000
7810
FE30
C7F0
81C0
ENDCHAR
STARTCHAR 2260
ENCODING 8800
SWIDTH 560 0
DWIDTH 14 0
BBX 10 13 2 2
BITMAP
0080
0180
0300
FFC0
FFC0
0400
0C00
1800
FFC0
FFC0
2000
6000
4000
ENDCHAR
STARTCHAR 2264
ENCODING 8804
SWIDTH 520 0
DWIDTH 13 0
BBX 10 13 1 0
BITMAP
0040
03C0
0F80
7C00
F000
F000
3C00
0F80
03C0
0040
0000
FFC0
FFC0
ENDCHAR
STARTCHAR 2265
ENCODING 8805
SWIDTH 520 0
DWIDTH 13 0
BBX 10 13 2 0
BITMAP
8000
E000
7C00
0F00
03C0
03C0
1F00
FC00
E000
8000
0000
FFC0
FFC0
ENDCHAR
STARTCHAR 25CA
ENCODING 9674
SWIDTH 520 0
DWIDTH 13 0
BBX 11 18 1 0
BITMAP
0C00
0E00
1F00
1B00
3380
7180
61C0
E0C0
C0E0
C0E0
E0C0
61C0
7180
3380
1B00
1F00
0E00
0C00
ENDCHAR
STARTCHAR EE01
ENCODING 60929
SWIDTH 280 0
DWIDTH 7 0
BBX 3 14 2 2
BITMAP
40
E0
E0
00
00
00
00
00
00
00
00
40
E0
E0
ENDCHAR
STARTCHAR EE02
ENCODING 60930
SWIDTH 320 0
DWIDTH 8 0
BBX 6 5 1 8
BITMAP
CC
CC
CC
CC
CC
ENDCHAR
STARTCHAR F6C3
ENCODING 63171
SWIDTH 240 0
DWIDTH 6 0
BBX 3 5 1 -2
BITMAP
60
60
60
E0
40
ENDCHAR
STARTCHAR FB01
ENCODING 64257
SWIDTH 560 0
DWIDTH 14 0
BBX 12 19 0 0
BITMAP
07C0
0FE0
1C40
1800
3800
3800
FE30
FE30
3830
3830
3830
3830
3830
3830
3830
3830
3830
3830
3830
ENDCHAR
STARTCHAR FB02
ENCODING 64258
SWIDTH 560 0
DWIDTH 14 0
BBX 11 19 1 0
BITMAP
0FC0
1FE0
3860
3060
3060
3060
FE60
FE60
3060
3060
3060
3060
3060
3060
3060
3060
3060
3060
3060
ENDCHAR
STARTCHAR FB03
ENCODING 64259
SWIDTH 840 0
DWIDTH 21 0
BBX 18 19 1 0
BITMAP
0F1F80
1F3F80
387080
306000
306000
306000
FFFCC0
FFFCC0
3060C0
3060C0
3060C0
3060C0
3060C0
3060C0
3060C0
3060C0
3060C0
3060C0
3060C0
ENDCHAR
STARTCHAR FB04
ENCODING 64260
SWIDTH 840 0
DWIDTH 21 0
BBX 18 19 1 0
BITMAP
0F1F80
1F3FC0
3870C0
3060C0
3060C0
3060C0
FFFCC0
FFFCC0
3060C0
3060C0
3060C0
3060C0
3060C0
3060C0
3060C0
3060C0
3060C0
3060C0
3060C0
ENDCHAR
STARTCHAR FEFF
ENCODING 65279
SWIDTH 0 0
DWIDTH 0 0
BBX 0 0 0 0
BITMAP
ENDCHAR
STARTCHAR FFFC
ENCODING 65532
SWIDTH 1040 0
DWIDTH 26 0
BBX 24 23 1 -5
BITMAP
F7BDEF
800003
800003
000000
000000
800003
800003
800003
073C08
08A208
98A60B
98BC0B
98A20B
08A298
073C70
800003
800003
000000
000000
800003
800003
800003
F7BDEF
ENDCHAR
STARTCHAR FFFD
ENCODING 65533
SWIDTH 1040 0
DWIDTH 26 0
BBX 24 23 1 0
BITMAP
001000
003800
007C00
00FE00
01FF00
03FF80
07C3C0
0F01E0
1F18F0
3FF8F8
7FF9FE
FFF1FF
7FE7FC
3FC7F8
1FFFF0
0FC7E0
07C7C0
03FF80
01FF00
00FE00
007C00
003800
001000
ENDCHAR
ENDFONT
